<?xml version="1.0" encoding="UTF-8"?>
<svg xmlns="http://www.w3.org/2000/svg" xmlns:xlink="http://www.w3.org/1999/xlink" width="40px" height="px" viewBox="0 0 40 40" version="1.1">
<g id="surface1">
<path style=" stroke:none;fill-rule:nonzero;fill:rgb(90.980393%,91.764706%,92.941177%);fill-opacity:1;" d="M 6.667969 25.832031 L 6.667969 10 C 6.667969 8.527344 7.046875 7.355469 7.8125 6.480469 C 8.578125 5.605469 9.582031 4.9375 10.832031 4.480469 C 12.082031 4.019531 13.507812 3.714844 15.105469 3.5625 C 16.703125 3.410156 18.332031 3.332031 20 3.332031 C 21.832031 3.332031 23.5625 3.410156 25.1875 3.5625 C 26.8125 3.714844 28.230469 4.019531 29.4375 4.480469 C 30.644531 4.9375 31.597656 5.605469 32.292969 6.480469 C 32.984375 7.355469 33.332031 8.527344 33.332031 10 L 33.332031 25.832031 C 33.332031 27.472656 32.769531 28.855469 31.644531 29.980469 C 30.519531 31.105469 29.140625 31.667969 27.5 31.667969 L 30 34.167969 L 30 35 L 26.667969 35 L 23.332031 31.667969 L 16.667969 31.667969 L 13.332031 35 L 10 35 L 10 34.167969 L 12.5 31.667969 C 10.859375 31.667969 9.480469 31.105469 8.355469 29.980469 C 7.230469 28.855469 6.667969 27.472656 6.667969 25.832031 Z M 20 6.667969 C 17.054688 6.667969 14.902344 6.839844 13.542969 7.1875 C 12.179688 7.535156 11.25 7.917969 10.75 8.332031 L 29.417969 8.332031 C 29 7.859375 28.105469 7.464844 26.730469 7.144531 C 25.355469 6.828125 23.109375 6.667969 20 6.667969 Z M 10 16.667969 L 18.332031 16.667969 L 18.332031 11.667969 L 10 11.667969 Z M 27.5 20 L 10 20 L 30 20 Z M 21.667969 16.667969 L 30 16.667969 L 30 11.667969 L 21.667969 11.667969 Z M 14.167969 26.667969 C 14.890625 26.667969 15.484375 26.429688 15.957031 25.957031 C 16.429688 25.484375 16.667969 24.890625 16.667969 24.167969 C 16.667969 23.445312 16.429688 22.847656 15.957031 22.375 C 15.484375 21.902344 14.890625 21.667969 14.167969 21.667969 C 13.445312 21.667969 12.847656 21.902344 12.375 22.375 C 11.902344 22.847656 11.667969 23.445312 11.667969 24.167969 C 11.667969 24.890625 11.902344 25.484375 12.375 25.957031 C 12.847656 26.429688 13.445312 26.667969 14.167969 26.667969 Z M 25.832031 26.667969 C 26.554688 26.667969 27.152344 26.429688 27.625 25.957031 C 28.097656 25.484375 28.332031 24.890625 28.332031 24.167969 C 28.332031 23.445312 28.097656 22.847656 27.625 22.375 C 27.152344 21.902344 26.554688 21.667969 25.832031 21.667969 C 25.109375 21.667969 24.515625 21.902344 24.042969 22.375 C 23.570312 22.847656 23.332031 23.445312 23.332031 24.167969 C 23.332031 24.890625 23.570312 25.484375 24.042969 25.957031 C 24.515625 26.429688 25.109375 26.667969 25.832031 26.667969 Z M 12.5 28.332031 L 27.5 28.332031 C 28.222656 28.332031 28.820312 28.097656 29.292969 27.625 C 29.765625 27.152344 30 26.554688 30 25.832031 L 30 20 L 10 20 L 10 25.832031 C 10 26.554688 10.234375 27.152344 10.707031 27.625 C 11.179688 28.097656 11.777344 28.332031 12.5 28.332031 Z M 20 8.332031 L 29.417969 8.332031 L 10.75 8.332031 Z M 20 8.332031 "/>
</g>
</svg>
