<svg fill="none" height="512" viewBox="0 0 24 24" width="512" xmlns="http://www.w3.org/2000/svg"><g fill="rgb(0,0,0)"><path clip-rule="evenodd" d="m20.5303 4.53033c.2929-.29289.2929-.76777 0-1.06066s-.7677-.29289-1.0606 0l-16.00003 16.00003c-.29289.2929-.29289.7677 0 1.0606s.76777.2929 1.06066 0l3.03502-3.035c1.31782.6079 2.82655 1.0047 4.43465 1.0047 2.6178 0 4.972-1.0514 6.6684-2.3534.8493-.6518 1.5462-1.3757 2.0351-2.0803.4796-.6911.7965-1.4178.7965-2.0663s-.3169-1.3752-.7965-2.06632c-.4889-.70455-1.1858-1.42849-2.0351-2.08033-.2706-.20768-.558-.40898-.8604-.60066zm-5.4016 5.40163-1.098 1.09794c.1406.2938.2193.6227.2193.9701 0 1.2426-1.0074 2.25-2.25 2.25-.3474 0-.6763-.0787-.9701-.2193l-1.09794 1.098c.59284.3926 1.30374.6213 2.06804.6213 2.0711 0 3.75-1.6789 3.75-3.75 0-.7643-.2287-1.4752-.6213-2.06804z" fill-rule="evenodd"/><path d="m12.6692 8.30953c.0838.01509.1703-.00973.2305-.06993l1.9496-1.94953c.1323-.13235.0774-.35726-.1029-.40755-.8674-.24197-1.7893-.38252-2.7464-.38252-2.61777 0-4.97199 1.05139-6.66838 2.35335-.8493.65184-1.54618 1.37578-2.03513 2.08033-.47963.69112-.79649 1.41782-.79649 2.06632s.31686 1.3752.79649 2.0663c.41731.6013.98608 1.2168 1.6718 1.7895.09785.0817.24164.0736.33179-.0165l2.93952-2.9396c.0602-.0602.08502-.1467.06993-.2305-.03911-.2172-.05953-.4408-.05953-.6692 0-2.07107 1.67893-3.75 3.75-3.75.2284 0 .452.02042.6692.05953z"/></g></svg>