<svg id="Layer_1" enable-background="new 0 0 512.458 512.458" height="512" viewBox="0 0 512.458 512.458" width="512" xmlns="http://www.w3.org/2000/svg"><g><g><g><path d="m176.182 246.027-72.246-72.246c-.877-.877-2.109-1.281-3.341-1.134-24.336 2.91-49.674-5.024-68.402-23.753-20.281-20.282-27.833-48.462-22.677-74.636 1.287-6.532 9.296-9.029 14.004-4.321l40.197 40.197c2.219 2.219 5.5 2.993 8.477 2.001l26.356-8.786c2.473-.824 4.414-2.765 5.239-5.239l8.785-26.356c.992-2.976.217-6.258-2.001-8.477l-40.198-40.198c-4.707-4.707-2.21-12.715 4.321-14.002 26.176-5.157 54.357 2.396 74.639 22.678 18.66 18.66 26.538 44.006 23.669 68.326-.145 1.229.26 2.459 1.135 3.334l234.82 234.82c.877.877 2.109 1.281 3.341 1.134 24.336-2.91 49.674 5.024 68.402 23.753 20.281 20.282 27.833 48.461 22.677 74.636-1.287 6.532-9.296 9.029-14.004 4.321l-40.197-40.197c-2.219-2.219-5.5-2.993-8.477-2.001l-26.357 8.786c-2.473.824-4.414 2.765-5.238 5.238l-8.785 26.357c-.992 2.976-.217 6.258 2.001 8.476l40.198 40.198c4.707 4.707 2.211 12.716-4.321 14.002-26.176 5.157-54.357-2.396-74.639-22.678-18.66-18.66-26.538-44.006-23.669-68.326.145-1.229-.259-2.459-1.135-3.334z" fill="#babdce"/><path d="m480.701 363.121c-18.728-18.729-44.066-26.663-68.402-23.753-1.231.147-2.464-.257-3.341-1.134l-234.82-234.82c-.875-.875-1.28-2.105-1.135-3.334 2.869-24.32-5.009-49.666-23.669-68.326-19.1-19.1-45.205-26.906-70.044-23.445 17.21 2.4 33.809 10.21 47.045 23.446 18.66 18.66 26.538 44.006 23.669 68.326-.145 1.229.26 2.459 1.135 3.334l234.82 234.82c.877.877 2.109 1.281 3.341 1.134 24.336-2.91 49.674 5.024 68.402 23.753 19.253 19.254 27.026 45.623 23.355 70.639l8.318 8.319c4.708 4.708 12.717 2.211 14.004-4.321 5.156-26.176-2.397-54.355-22.678-74.638z" fill="#9da3b3"/></g><g><path d="m92.589 490.15-70.284-70.284-5.454 5.454c-12.497 12.497-12.497 32.758 0 45.255l25.029 25.029c12.497 12.497 32.758 12.497 45.255 0z" fill="#ff9259"/><path d="m78.906 476.466-19.55 19.138c-2.618 2.618-5.581 4.681-8.738 6.202 11.911 5.739 26.639 3.676 36.517-6.202l5.454-5.454z" fill="#ff7169"/><path d="m275.768 271.829-35.142-35.142 212.417-212.417c.829-.829 1.824-1.472 2.919-1.888l37.745-14.317c6.677-2.533 13.215 4.005 10.682 10.682l-14.317 37.745c-.416 1.096-1.059 2.091-1.888 2.919z" fill="#e6ebef"/><path d="m493.708 8.065-12.353 4.685c.727 1.799.834 3.89.035 5.997l-14.317 37.745c-.415 1.096-1.059 2.091-1.888 2.919l-200.917 200.918 11.5 11.5 212.417-212.417c.829-.829 1.472-1.824 1.888-2.919l14.317-37.745c2.532-6.677-4.006-13.215-10.682-10.683z" fill="#dae2ed"/><path d="m271.791 299.234-5.076 35.533c-.507 3.548-2.151 6.837-4.686 9.371l-32.382 32.381-58.57 35.142-36.286 59.714-23.428 23.428c-6.469 6.469-16.959 6.469-23.428 0l-70.284-70.284c-6.469-6.469-6.469-16.958 0-23.428l24.572-24.572 58.57-35.142 35.142-58.57 32.382-32.382c2.535-2.534 5.823-4.179 9.371-4.686l35.532-5.076 40.999 23.428z" fill="#ff7169"/><path d="m254.22 264.092-.692-.395-10.241 71.07c-.507 3.548-2.151 6.837-4.686 9.371l-150.665 150.665c6.469 6.469 16.958 6.469 23.428 0l23.426-23.426 36.288-59.716 58.57-35.142 32.382-32.382c2.535-2.535 4.179-5.823 4.686-9.371l5.076-35.533z" fill="#ff5178"/><path d="m283.705 311.148-82.398-82.398c-3.124-3.124-3.124-8.189 0-11.314l12.114-12.114c3.124-3.124 8.189-3.124 11.314 0l82.398 82.398c3.124 3.124 3.124 8.19 0 11.314l-12.114 12.114c-3.124 3.124-8.19 3.124-11.314 0z" fill="#ff9259"/><path d="m307.133 287.72-82.398-82.398c-3.124-3.124-8.19-3.124-11.314 0l-5.857 5.858 76.541 76.541c3.124 3.124 3.124 8.19 0 11.314l-6.257 6.257 5.858 5.858c3.124 3.124 8.189 3.124 11.314 0l12.114-12.114c3.123-3.126 3.123-8.192-.001-11.316z" fill="#ff7169"/><path d="m64.508 401.091c-6.469 6.47-16.958 6.47-23.428 0-6.469-6.469-6.469-16.958 0-23.428l96-96c6.47-6.47 16.959-6.47 23.428 0 6.47 6.469 6.47 16.958 0 23.428z" fill="#ff9259"/><path d="m134.792 471.375c-6.469 6.469-16.959 6.469-23.428 0-6.469-6.47-6.469-16.959 0-23.428l96-96c6.47-6.47 16.959-6.47 23.428 0 6.47 6.47 6.47 16.958 0 23.428z" fill="#ff9259"/><path d="m230.792 351.947-119.428 119.428c6.469 6.469 16.958 6.47 23.427.001l96.001-96.001c6.469-6.469 6.469-16.958 0-23.428z" fill="#ff7169"/></g></g><g fill="#0c0a0b"><path d="m189.239 323.216c-2.929-2.928-7.678-2.928-10.606 0l-96 96c-2.929 2.93-2.929 7.678 0 10.607 1.464 1.464 3.384 2.196 5.303 2.196s3.839-.732 5.303-2.196l96-96c2.929-2.93 2.929-7.678 0-10.607z"/><path d="m413.067 331.736-93.298-93.299 173.716-173.718c1.593-1.591 2.805-3.464 3.601-5.565l14.317-37.746c2.232-5.885.854-12.307-3.598-16.757-4.45-4.45-10.871-5.829-16.758-3.598l-37.741 14.316c-2.105.797-3.978 2.009-5.566 3.598l-49.549 49.548c-2.929 2.93-2.929 7.678 0 10.607 2.93 2.927 7.678 2.929 10.607 0l49.552-49.552c.075-.075.169-.136.272-.175l37.744-14.317c.167-.063.475-.181.832.179.358.358.241.666.179.831l-14.318 37.749c-.038.1-.099.193-.178.271l-199.376 199.378-24.535-24.536 128.615-128.614c2.929-2.93 2.929-7.678 0-10.607-2.929-2.927-7.677-2.929-10.607 0l-102.96 102.959-93.383-93.383c2.731-27.117-6.629-53.484-25.997-72.854-21.326-21.325-51.753-30.574-81.392-24.732-5.764 1.134-10.405 5.324-12.113 10.931-1.697 5.577-.188 11.605 3.938 15.732l40.198 40.198c.211.211.284.518.189.801l-8.786 26.357c-.078.232-.262.417-.495.494l-26.356 8.786c-.282.094-.59.022-.802-.189l-40.196-40.196c-4.128-4.128-10.158-5.637-15.741-3.939-5.6 1.703-9.784 6.333-10.919 12.083-5.851 29.647 3.393 60.085 24.727 81.42 19.456 19.457 45.854 28.843 72.938 26.082l64.048 64.048c-.29.262-.586.518-.863.795l-94.059 94.06c-2.929 2.93-2.929 7.678 0 10.607 1.464 1.464 3.384 2.196 5.303 2.196 1.92 0 3.839-.732 5.303-2.196l62.82-62.821c.001 0 .001-.001.002-.001 3.534-3.536 9.286-3.535 12.821-.001 1.712 1.713 2.656 3.989 2.656 6.411s-.943 4.698-2.655 6.41l-96 96.001c-3.535 3.535-9.287 3.535-12.821 0-1.712-1.712-2.656-3.989-2.656-6.41 0-2.418.941-4.691 2.648-6.402l11.894-11.894c2.929-2.93 2.929-7.678 0-10.607-2.928-2.928-7.677-2.928-10.607 0l-35.314 35.313c-4.545 4.545-7.048 10.589-7.048 17.018 0 3.973.959 7.797 2.762 11.214-11.8 15.472-10.645 37.729 3.486 51.86l25.029 25.029c7.701 7.7 17.816 11.55 27.931 11.55 8.447 0 16.888-2.695 23.928-8.064 3.416 1.804 7.241 2.762 11.214 2.762 6.428 0 12.472-2.504 17.017-7.049l150.667-150.666c.277-.277.532-.573.794-.862l64.133 64.132c-2.731 27.117 6.629 53.484 25.997 72.853 17.117 17.116 40.094 26.451 63.822 26.45 5.835 0 11.719-.564 17.569-1.718 5.764-1.135 10.405-5.323 12.112-10.932 1.697-5.577.189-11.605-3.938-15.732l-40.197-40.196c-.212-.212-.285-.52-.19-.803l8.786-26.357c.077-.233.262-.417.495-.494l26.357-8.786c.284-.095.591-.021.801.189l40.197 40.196c4.127 4.129 10.159 5.638 15.74 3.939 5.6-1.703 9.785-6.333 10.92-12.083 5.851-29.647-3.394-60.085-24.727-81.421-19.457-19.456-45.857-28.845-72.938-26.081zm-152.436-7.413-72.498-72.498 22.437-3.205 53.267 53.267zm-54.021-100.877c-.195-.194-.195-.512 0-.706l12.114-12.114c.098-.098.225-.146.354-.146.128 0 .256.049.354.146l82.397 82.398c.195.194.195.512 0 .706l-12.114 12.114c-.192.194-.512.196-.706 0zm-105.131-58.479c-23.674 3.402-46.995-4.389-63.982-21.376-17.79-17.791-25.498-43.178-20.617-67.91.029-.147.098-.493.568-.637.44-.133.662.087.769.195l40.198 40.198c4.255 4.252 10.444 5.715 16.151 3.811l26.355-8.786c4.688-1.563 8.42-5.294 9.982-9.981l8.786-26.356c1.902-5.708.441-11.898-3.813-16.152l-40.198-40.198c-.114-.113-.326-.325-.194-.757.146-.481.521-.555.662-.583 24.725-4.872 50.102 2.838 67.886 20.623 16.899 16.899 24.661 40.195 21.294 63.915-.331 2.335.455 4.689 2.123 6.357l95.963 95.964-15.048 15.048-18.325-18.325c-6.043-6.043-15.877-6.043-21.92 0l-12.114 12.114c-6.044 6.044-6.044 15.877 0 21.921l1.307 1.307-18.539 2.648-70.923-70.922c-1.672-1.668-4.034-2.454-6.371-2.118zm-54.296 325.334-25.029-25.029c-4.627-4.627-7.176-10.779-7.176-17.324 0-4.363 1.133-8.553 3.261-12.233l58.496 58.496c-9.363 5.389-21.555 4.086-29.552-3.91zm52.467 1.855c-2.421 0-4.698-.943-6.411-2.656l-70.284-70.284c-.001-.001-.001-.001-.002-.002-1.711-1.713-2.653-3.988-2.653-6.408 0-2.422.943-4.698 2.655-6.41l7.674-7.674c1.172 2.79 2.879 5.406 5.147 7.674 4.692 4.691 10.854 7.037 17.017 7.037 6.163-.001 12.326-2.346 17.017-7.037l96-96.001c4.545-4.545 7.049-10.589 7.049-17.018 0-6.428-2.503-12.472-7.049-17.017-2.234-2.234-4.831-3.971-7.657-5.164l14.067-14.068 83.105 83.106-14.065 14.066c-1.193-2.826-2.93-5.423-5.164-7.657-4.545-4.545-10.589-7.049-17.018-7.049-6.428 0-12.472 2.504-17.017 7.049l-96.001 96.001c-9.382 9.383-9.382 24.651.001 34.035 2.268 2.268 4.884 3.975 7.674 5.146l-7.675 7.675c-1.712 1.713-3.989 2.656-6.41 2.656zm29.838-26.083c-3.534 3.533-9.286 3.534-12.821 0-3.535-3.535-3.535-9.288-.001-12.822l96.001-96.001c1.712-1.712 3.989-2.655 6.41-2.655 2.422 0 4.699.943 6.411 2.655 1.712 1.713 2.656 3.989 2.656 6.411s-.943 4.698-2.655 6.41zm366.527-29.739c-.029.148-.097.493-.567.637-.441.134-.661-.087-.769-.195l-40.199-40.198c-4.256-4.252-10.444-5.715-16.15-3.811l-26.355 8.786c-4.688 1.563-8.42 5.294-9.982 9.982l-8.786 26.356c-1.902 5.707-.441 11.896 3.813 16.152l40.198 40.198c.114.113.326.325.195.757-.146.481-.52.555-.662.583-24.719 4.869-50.102-2.838-67.886-20.622-16.899-16.9-24.661-40.196-21.294-63.916.331-2.335-.455-4.689-2.122-6.357l-71.001-71.001 2.648-18.538 1.307 1.307c3.023 3.022 6.991 4.532 10.96 4.532 3.97 0 7.938-1.511 10.961-4.532l12.114-12.114c6.043-6.044 6.043-15.877 0-21.921l-18.324-18.324 15.048-15.049 95.884 95.884c1.671 1.67 4.027 2.453 6.371 2.12 23.669-3.4 46.994 4.388 63.981 21.375 17.791 17.791 25.498 43.178 20.617 67.909z"/><path d="m135.352 123.198-11.714 11.714c-2.929 2.93-2.929 7.678 0 10.607 1.464 1.464 3.384 2.196 5.303 2.196s3.839-.732 5.303-2.196l11.714-11.714c2.929-2.93 2.929-7.678 0-10.607-2.929-2.928-7.678-2.928-10.606 0z"/><path d="m378.65 366.496-11.714 11.714c-2.929 2.93-2.929 7.678 0 10.607 1.465 1.464 3.385 2.196 5.304 2.196s3.839-.733 5.304-2.196l11.714-11.714c2.929-2.93 2.929-7.678 0-10.607-2.931-2.928-7.679-2.928-10.608 0z"/></g></g></svg>