<?xml version="1.0" standalone="no"?>
<!DOCTYPE svg PUBLIC "-//W3C//DTD SVG 20010904//EN"
 "http://www.w3.org/TR/2001/REC-SVG-20010904/DTD/svg10.dtd">
<svg version="1.0" xmlns="http://www.w3.org/2000/svg"
 width="4000.000000pt" height="4000.000000pt" viewBox="0 0 4000.000000 4000.000000"
 preserveAspectRatio="xMidYMid meet">

<g transform="translate(0.000000,4000.000000) scale(0.100000,-0.100000)"
fill="#000000" stroke="none">
<path d="M8552 38674 c-45 -16 -893 -493 -969 -545 -68 -47 -132 -128 -243
-306 -57 -92 -123 -197 -146 -233 -22 -36 -78 -126 -124 -200 -118 -192 -608
-978 -635 -1020 -13 -19 -692 -1110 -1509 -2425 l-1487 -2390 -379 -215 c-209
-118 -402 -234 -430 -258 -103 -89 -195 -236 -251 -402 -40 -120 -52 -300 -26
-391 29 -97 58 -126 233 -229 195 -114 183 -108 157 -79 -12 13 -32 47 -45 74
-20 44 -23 65 -23 185 0 143 9 189 62 320 47 117 104 202 193 290 82 83 96 91
459 295 l373 210 43 65 c23 36 921 1478 1995 3205 1074 1727 1975 3167 2001
3200 27 33 68 75 90 94 35 29 806 473 954 549 37 19 66 26 112 26 35 1 63 1
63 2 0 4 -301 175 -323 183 -39 15 -94 13 -145 -5z"/>
<path d="M22322 38100 c-122 -75 -227 -141 -233 -147 -7 -7 59 -49 220 -137
127 -70 235 -126 240 -124 20 8 460 274 461 278 0 3 -51 33 -113 68 -61 34
-166 93 -233 130 l-121 69 -221 -137z"/>
<path d="M22908 37759 l-366 -221 -164 89 c-90 50 -239 132 -333 183 -93 51
-185 101 -202 112 l-33 20 0 -1146 0 -1146 361 -215 c198 -118 366 -215 372
-215 6 0 175 93 374 207 l363 207 0 744 c0 594 -3 742 -12 734 -7 -5 -138 -84
-290 -175 l-278 -166 0 82 0 82 113 68 c61 37 129 77 150 90 l38 23 -121 68
-120 68 152 87 c84 48 196 111 249 140 l97 53 6 187 c4 102 8 203 10 224 2 20
3 37 2 37 -1 0 -166 -100 -368 -221z"/>
<path d="M27590 37951 c0 -7 -4 -10 -9 -6 -5 3 -12 1 -16 -5 -3 -5 1 -10 9
-10 17 0 31 18 22 27 -3 4 -6 1 -6 -6z"/>
<path d="M27500 37893 c8 -3 7 -9 -1 -19 -9 -11 -8 -14 2 -14 11 0 11 -3 -1
-11 -13 -9 -13 -10 0 -7 18 5 19 51 2 54 -7 1 -8 0 -2 -3z"/>
<path d="M27461 37867 c-6 -8 -8 -17 -4 -20 12 -12 19 -7 19 13 0 24 0 24 -15
7z"/>
<path d="M27410 37841 c0 -6 4 -13 10 -16 6 -3 7 1 4 9 -7 18 -14 21 -14 7z"/>
<path d="M27540 37830 c-9 -6 -10 -10 -3 -10 6 0 15 5 18 10 8 12 4 12 -15 0z"/>
<path d="M27576 37828 c3 -5 10 -6 15 -3 13 9 11 12 -6 12 -8 0 -12 -4 -9 -9z"/>
<path d="M27392 37814 c10 -10 20 -16 22 -13 3 3 -5 11 -17 18 -21 13 -21 12
-5 -5z"/>
<path d="M27531 37801 c-10 -6 -8 -10 6 -16 10 -5 23 -9 28 -10 11 -1 35 14
35 24 0 9 -54 11 -69 2z m39 -5 c0 -11 -19 -15 -25 -6 -3 5 1 10 9 10 9 0 16
-2 16 -4z"/>
<path d="M27324 37787 c-4 -7 -4 -9 0 -5 5 4 19 2 33 -3 16 -6 31 -6 41 1 14
8 14 10 2 10 -8 1 -27 3 -42 5 -15 2 -31 -2 -34 -8z"/>
<path d="M27426 37783 c-6 -14 -5 -15 5 -6 7 7 10 15 7 18 -3 3 -9 -2 -12 -12z"/>
<path d="M27523 37761 c-1 -14 3 -18 13 -14 11 4 12 9 3 19 -15 18 -14 18 -16
-5z"/>
<path d="M8398 37522 l-477 -247 -1 -215 0 -215 -83 -46 c-45 -25 -137 -76
-204 -113 l-123 -69 0 -211 0 -212 -191 -108 c-105 -59 -198 -109 -207 -110
-15 -3 -18 -28 -22 -217 l-5 -214 -202 -114 -203 -114 0 -211 0 -211 -200
-113 -200 -113 0 -219 0 -218 -189 -106 c-104 -58 -194 -106 -200 -106 -8 0
-11 -67 -11 -218 l0 -217 -203 -114 -204 -115 -7 -205 c-5 -174 -9 -208 -23
-218 -9 -7 -101 -60 -205 -119 l-188 -106 0 -211 0 -212 -187 -105 c-103 -58
-193 -106 -200 -108 -10 -3 -13 -53 -13 -220 l0 -217 -205 -115 -205 -115 0
-211 0 -212 -204 -113 -205 -114 -3 -164 -3 -165 -458 -257 -458 -257 608
-348 c334 -191 619 -354 632 -363 24 -15 24 -15 17 9 -58 199 0 467 147 685
70 103 131 154 292 244 83 47 152 88 155 91 6 7 311 179 416 235 70 37 72 39
148 164 43 69 123 200 179 289 137 220 295 474 412 662 53 85 134 215 181 289
47 74 98 157 114 186 16 29 67 112 114 186 145 227 296 469 296 473 0 4 45 76
303 485 59 93 107 172 107 175 0 3 46 77 103 166 195 308 297 472 297 476 0 4
135 220 308 492 51 81 97 156 102 167 5 11 51 88 104 170 52 83 139 221 193
308 91 146 148 238 410 659 54 87 141 228 193 314 52 86 100 162 106 168 10
11 128 201 289 467 154 253 201 300 452 440 73 41 133 76 133 79 0 9 -817 490
-832 490 -7 -1 -228 -112 -490 -248z"/>
<path d="M27312 37759 c-12 -5 -22 -10 -22 -12 0 -2 30 -1 63 2 4 1 7 5 7 9 0
11 -20 11 -48 1z"/>
<path d="M27449 37755 c-6 -25 -1 -49 9 -51 7 -1 8 0 2 3 -8 3 -7 9 1 19 9 11
8 14 -2 14 -11 0 -11 2 1 10 10 6 11 10 3 10 -7 0 -13 -2 -14 -5z"/>
<path d="M27484 37741 c0 -15 3 -17 13 -9 7 6 10 14 7 19 -9 15 -20 10 -20
-10z"/>
<path d="M27346 37731 c-4 -6 -13 -8 -20 -5 -7 3 -16 -2 -19 -10 -4 -10 -1
-16 8 -16 8 0 17 0 20 0 3 0 5 3 4 6 0 4 5 10 12 15 8 4 11 11 7 14 -3 4 -9 2
-12 -4z"/>
<path d="M27285 37720 c-3 -5 -1 -10 4 -10 6 0 11 5 11 10 0 6 -2 10 -4 10 -3
0 -8 -4 -11 -10z"/>
<path d="M27277 37688 c6 -7 9 -21 8 -30 -3 -15 0 -16 16 -8 15 9 19 7 19 -5
0 -9 -4 -14 -8 -11 -5 3 -9 -1 -9 -9 0 -8 5 -11 11 -7 10 6 14 8 34 11 4 0 13
10 19 20 10 16 9 18 -7 14 -11 -3 -18 -9 -15 -13 3 -5 1 -11 -4 -14 -5 -4 -8
4 -7 17 2 18 -2 23 -18 23 -12 -1 -20 5 -18 12 1 6 -5 12 -14 12 -12 0 -14 -4
-7 -12z"/>
<path d="M27250 37681 c0 -6 4 -13 10 -16 6 -3 7 1 4 9 -7 18 -14 21 -14 7z"/>
<path d="M27135 37659 c-16 -10 -24 -19 -17 -19 7 0 10 -5 7 -10 -4 -6 -3 -10
2 -9 31 5 35 -3 12 -28 -18 -20 -19 -24 -4 -13 27 20 35 32 28 44 -4 5 1 7 10
3 12 -4 14 -2 10 10 -5 12 -3 14 8 8 8 -5 5 1 -5 13 -11 12 -20 22 -20 21 -1
0 -14 -9 -31 -20z m27 -21 c-6 -6 -15 -7 -22 -3 -8 5 -6 11 7 20 20 15 32 0
15 -17z"/>
<path d="M27213 37645 c0 -8 4 -12 9 -9 5 3 6 10 3 15 -9 13 -12 11 -12 -6z"/>
<path d="M27243 37633 c-7 -2 -13 -9 -13 -14 0 -6 5 -7 12 -3 7 4 8 3 4 -4 -5
-9 -13 -9 -27 -2 -12 7 -19 7 -19 1 0 -5 9 -13 21 -16 22 -7 18 -17 -8 -21 -9
-2 -22 4 -28 13 -10 14 -12 13 -12 -3 0 -11 5 -25 10 -32 9 -11 13 -11 24 4 7
10 13 15 13 11 0 -4 9 -3 20 3 13 7 17 16 13 28 -6 15 -5 16 13 2 19 -14 19
-14 1 7 -14 16 -15 22 -5 26 7 3 9 5 3 5 -5 0 -16 -2 -22 -5z"/>
<path d="M27066 37617 c-16 -12 -16 -13 3 -13 11 0 18 3 15 7 -2 4 4 10 13 12
14 4 14 5 2 6 -8 0 -23 -5 -33 -12z"/>
<path d="M27003 37573 c-7 -3 -13 -12 -12 -21 0 -11 2 -12 6 -4 7 18 24 15 21
-4 -2 -10 4 -19 12 -21 12 -4 12 -3 1 5 -8 6 -9 11 -3 13 7 3 7 9 -1 20 -7 9
-18 14 -24 12z"/>
<path d="M27143 37557 c0 -9 4 -14 9 -11 4 3 8 1 8 -5 0 -14 -29 -41 -45 -41
-7 0 -15 -7 -19 -15 -3 -10 9 -6 37 11 23 15 43 28 45 29 1 1 -6 12 -16 25
-14 18 -19 19 -19 7z"/>
<path d="M10485 37525 c-22 -9 -245 -131 -495 -273 -587 -331 -527 -275 -854
-802 -131 -212 -313 -504 -404 -650 -91 -146 -209 -335 -262 -420 -53 -85
-764 -1228 -1580 -2540 -815 -1312 -1491 -2397 -1501 -2411 -11 -16 -163 -108
-396 -239 -360 -204 -382 -218 -459 -294 -131 -130 -215 -300 -250 -500 -27
-154 -3 -292 65 -367 32 -35 320 -213 330 -204 2 2 -6 16 -18 31 -58 73 -72
255 -32 419 26 110 112 285 181 373 28 34 75 81 105 105 30 23 220 136 423
251 l369 209 1999 3215 c1924 3095 2002 3218 2079 3296 78 79 93 88 524 331
243 138 461 259 484 269 23 10 67 22 97 25 l55 6 -154 89 c-138 80 -161 90
-210 93 -33 1 -73 -4 -96 -12z"/>
<path d="M27117 37526 c-4 -10 -1 -13 8 -9 8 3 12 9 9 14 -7 12 -11 11 -17 -5z"/>
<path d="M27050 37510 c-12 -7 -12 -12 -2 -22 9 -9 15 -9 25 1 10 10 8 11 -8
5 -18 -7 -18 -6 -6 9 15 19 13 21 -9 7z"/>
<path d="M28045 37490 c-3 -5 -1 -10 4 -10 6 0 11 5 11 10 0 6 -2 10 -4 10 -3
0 -8 -4 -11 -10z"/>
<path d="M28003 37460 c-10 -11 -23 -20 -31 -20 -7 0 -15 -7 -18 -15 -4 -8
-10 -13 -14 -10 -4 3 -13 -2 -20 -10 -7 -8 -17 -12 -23 -8 -6 3 -7 1 -3 -5 8
-13 36 -5 36 10 0 5 4 7 9 3 6 -3 14 2 19 11 6 10 12 13 16 6 3 -6 -4 -18 -16
-26 -18 -13 -19 -16 -5 -16 9 0 17 -5 17 -11 0 -6 5 -9 11 -7 6 2 9 8 7 13 -2
6 -6 9 -10 8 -12 -4 -10 15 2 22 6 4 8 11 5 16 -7 11 12 20 52 23 28 2 44 17
24 24 -6 2 -11 0 -11 -5 0 -5 -9 -9 -21 -10 -17 -2 -18 1 -9 13 7 8 10 14 6
14 -3 0 -14 -9 -23 -20z"/>
<path d="M27046 37458 c3 -5 10 -6 15 -3 13 9 11 12 -6 12 -8 0 -12 -4 -9 -9z"/>
<path d="M26980 37434 c0 -1 8 -8 17 -15 9 -8 14 -9 10 -2 -4 6 -1 13 5 16 7
3 3 4 -9 4 -13 -1 -23 -2 -23 -3z"/>
<path d="M27818 37354 c-2 -12 -5 -28 -8 -34 -1 -3 -3 -16 -6 -30 -3 -17 -1
-21 5 -11 5 7 13 11 18 8 5 -3 10 0 10 7 0 8 -7 12 -16 9 -14 -4 -14 -3 -1 9
9 7 15 18 15 25 0 14 -14 29 -17 17z"/>
<path d="M13656 37160 c-158 -98 -292 -182 -297 -187 -4 -4 4180 -2418 9299
-5363 5119 -2945 9346 -5380 9394 -5410 112 -70 216 -147 378 -279 125 -103
325 -306 445 -451 98 -120 205 -263 205 -274 0 -3 -177 -101 -392 -218 -239
-129 -410 -228 -436 -252 -84 -77 -122 -182 -102 -284 8 -44 203 -456 229
-484 3 -4 5 26 3 66 -7 123 35 228 115 296 72 60 1499 826 1617 868 57 20 91
25 176 26 96 1 110 -1 162 -27 71 -35 129 -98 189 -208 201 -363 903 -1772
896 -1797 -2 -10 -338 -570 -747 -1247 -408 -676 -747 -1239 -752 -1251 -8
-17 3 -47 57 -155 37 -74 84 -159 105 -189 76 -112 197 -200 337 -246 l88 -29
275 0 c302 0 398 10 628 65 68 17 127 30 132 30 12 0 602 -1180 597 -1194 -9
-22 -573 -187 -635 -186 -9 1 -34 25 -54 54 -70 101 -245 301 -299 342 -168
129 -414 248 -755 364 -161 56 -517 160 -543 160 -18 0 -26 16 -75 160 -34 98
-143 328 -621 1310 -625 1286 -1235 2503 -1490 2975 -209 388 -289 498 -535
746 -273 274 -463 429 -927 757 l-342 241 -8786 5126 c-4832 2819 -8788 5125
-8790 5125 -4 0 -63 -141 -87 -210 -47 -135 -179 -908 -558 -3255 -115 -709
-120 -746 -120 -890 0 -235 33 -394 113 -550 70 -136 268 -319 542 -502 124
-82 184 -118 1058 -629 422 -247 909 -532 1083 -634 l315 -186 307 34 c286 32
315 34 423 24 131 -13 261 -47 366 -97 40 -18 495 -278 1010 -576 516 -298
945 -544 954 -546 24 -7 61 -78 262 -502 l182 -384 1255 -735 c690 -404 2493
-1444 4005 -2312 1513 -867 2893 -1659 3068 -1760 l318 -183 267 34 c479 61
645 42 917 -101 61 -32 517 -287 1015 -568 l905 -509 212 -424 c116 -233 210
-429 208 -436 -5 -17 2802 -1624 3028 -1733 355 -172 766 -342 1067 -443 504
-170 752 -187 1177 -82 306 75 645 202 990 370 335 163 508 271 637 394 99 96
154 172 216 302 92 195 126 379 117 649 -6 194 -14 234 -79 413 l-43 121 -6
-120 c-10 -176 -50 -287 -160 -444 l-53 -75 -8 30 c-4 17 -12 89 -18 161 -18
230 14 473 95 719 l32 99 -72 174 -72 173 -31 -88 c-90 -252 -131 -448 -139
-668 -8 -210 13 -377 73 -591 l26 -92 -51 -47 c-84 -79 -307 -243 -316 -233
-1 1 -138 273 -303 603 l-300 601 52 43 c76 63 220 206 291 287 155 177 238
414 206 589 -7 38 -42 124 -95 235 -1266 2622 -1635 3367 -1845 3728 -252 432
-313 503 -451 519 -94 11 -123 -1 -440 -172 -167 -91 -306 -165 -309 -165 -3
0 -19 21 -36 48 -57 91 -232 318 -325 422 -312 349 -656 633 -1030 850 -69 39
-291 168 -495 285 -203 117 -455 262 -560 322 -104 60 -210 121 -235 135 -25
14 -3858 2220 -8518 4902 -4660 2682 -8479 4876 -8485 4875 -7 0 -142 -81
-301 -179z m-461 -3024 c171 -70 731 -392 1410 -811 198 -122 401 -246 450
-275 440 -258 786 -596 955 -930 86 -170 1239 -2585 1236 -2588 -4 -3 -4694
2694 -4710 2709 -16 14 35 610 80 934 60 426 138 698 250 866 90 135 174 160
329 95z m3825 -2241 c402 -224 889 -503 1140 -653 427 -255 553 -355 699 -549
95 -127 169 -265 215 -403 32 -96 52 -202 96 -515 l12 -80 127 -77 126 -77 38
-252 37 -253 -27 -28 c-33 -34 -71 -36 -145 -8 -28 11 -53 19 -54 17 -1 -1 22
-166 51 -367 30 -200 53 -365 52 -366 -3 -3 -1301 757 -1314 769 -11 11 -1443
3041 -1443 3053 0 5 1 5 390 -211z m7070 -3584 c985 -557 960 -541 960 -623 0
-21 -24 -123 -54 -226 -82 -283 -200 -839 -279 -1317 l-34 -200 41 -27 c23
-16 45 -29 50 -31 8 -3 -55 -466 -70 -519 -4 -15 -11 -13 -54 12 l-49 29 -5
-27 c-6 -27 -90 -594 -142 -952 -15 -102 -28 -186 -29 -188 -2 -2 -902 512
-911 520 -5 6 136 1116 151 1183 3 16 -9 27 -66 59 -39 21 -73 36 -75 33 -5
-5 -94 -612 -140 -957 -15 -113 -30 -208 -33 -212 -4 -4 -202 105 -441 243
-239 138 -444 256 -456 262 l-20 12 18 150 c107 883 243 1800 323 2182 70 331
174 767 227 947 39 132 66 166 131 166 37 0 157 -66 957 -519z m2563 -1836
c145 -38 765 -390 1597 -907 146 -90 299 -184 340 -208 316 -183 625 -449 809
-695 87 -116 165 -268 476 -920 l129 -271 370 -219 c203 -121 378 -227 388
-235 23 -19 318 -648 318 -677 0 -13 -13 -37 -29 -55 -51 -57 -72 -51 -350
111 -134 78 -245 140 -246 139 -1 -2 72 -158 162 -347 90 -189 163 -345 161
-346 -2 -3 -4703 2699 -4716 2710 -11 9 54 703 89 955 85 608 243 969 429 979
9 1 41 -6 73 -14z m9178 -5565 c74 -22 134 -58 204 -122 l49 -45 -44 -28
c-133 -84 -477 -227 -604 -250 l-38 -8 4 104 c3 85 8 114 29 159 46 98 120
164 222 195 60 19 106 18 178 -5z m-1361 -1692 c302 -91 585 -202 794 -311
105 -55 238 -138 232 -145 -2 -2 -54 -7 -116 -12 -392 -29 -748 97 -1028 364
-36 33 -102 138 -102 161 0 8 32 -1 220 -57z"/>
<path d="M23887 27973 c-9 -15 -119 -500 -162 -718 -49 -244 -115 -618 -115
-651 0 -16 18 -32 68 -62 l67 -40 13 76 c57 348 160 843 247 1181 18 74 32
138 29 142 -5 8 -129 79 -138 79 -2 0 -7 -3 -9 -7z"/>
<path d="M27770 37260 c-9 -16 -8 -22 5 -26 8 -3 12 -11 8 -18 -3 -6 -2 -7 2
-3 13 11 15 37 3 37 -6 0 -8 7 -4 15 8 22 -2 18 -14 -5z"/>
<path d="M28105 37269 c-4 -5 -10 -7 -13 -5 -9 6 -8 -41 1 -51 4 -3 2 -12 -4
-19 -7 -8 -6 -14 2 -20 8 -4 9 -3 5 4 -4 7 -3 12 3 12 17 0 20 -14 7 -32 -7
-10 -17 -14 -21 -10 -5 4 -5 1 0 -7 7 -12 10 -11 21 3 7 10 17 16 22 12 5 -3
9 1 9 9 0 8 -5 15 -11 16 -6 0 -2 5 9 10 19 9 19 9 -2 5 -16 -3 -21 1 -20 15
1 22 8 24 27 7 12 -11 12 -10 0 5 -7 10 -20 15 -28 12 -10 -4 -12 0 -8 11 3 8
6 19 6 22 0 4 4 1 9 -7 5 -8 11 -9 15 -3 3 5 -1 12 -9 16 -8 3 -17 1 -20 -5z"/>
<path d="M27811 37233 c-1 -17 16 -25 25 -12 4 7 3 9 -4 5 -5 -3 -13 0 -15 6
-4 9 -6 10 -6 1z"/>
<path d="M27750 37221 c0 -5 5 -13 10 -16 6 -3 10 -2 10 4 0 5 -4 13 -10 16
-5 3 -10 2 -10 -4z"/>
<path d="M27721 37160 c-10 -22 -15 -40 -10 -40 5 0 9 5 9 11 0 5 4 8 9 5 5
-3 14 1 20 8 8 10 9 16 1 21 -5 3 -10 11 -10 16 0 6 5 7 12 3 7 -4 8 -3 4 4
-11 18 -14 15 -35 -28z m24 1 c3 -5 2 -12 -3 -15 -5 -3 -9 1 -9 9 0 17 3 19
12 6z"/>
<path d="M27649 37099 c0 -22 -1 -23 -9 -4 -5 11 -9 15 -9 9 -1 -6 -13 -16
-28 -23 -20 -9 -23 -15 -14 -24 6 -6 23 -12 36 -13 14 0 23 2 19 5 -6 6 -12 8
-41 10 -20 1 -12 11 14 16 10 1 28 -6 40 -17 20 -19 21 -19 18 -2 -2 11 -4 19
-5 19 -1 0 -3 8 -5 18 -5 29 -15 33 -16 6z"/>
<path d="M27938 37113 c-10 -2 -18 -11 -18 -19 0 -19 10 -18 27 4 8 9 12 11 8
5 -3 -7 -1 -13 4 -13 6 0 11 7 11 15 0 15 -2 16 -32 8z"/>
<path d="M27985 37100 c2 -11 1 -21 -3 -21 -4 -1 -17 -3 -30 -4 -28 -3 -37
-11 -20 -18 8 -2 29 4 48 14 19 10 29 18 22 19 -7 0 -11 4 -7 9 3 5 1 12 -4
16 -6 3 -8 -3 -6 -15z"/>
<path d="M28011 37113 c-1 -17 16 -25 25 -12 4 7 3 9 -4 5 -5 -3 -13 0 -15 6
-4 9 -6 10 -6 1z"/>
<path d="M27510 37049 c0 -5 5 -7 10 -4 6 3 10 8 10 11 0 2 -4 4 -10 4 -5 0
-10 -5 -10 -11z"/>
<path d="M27419 37034 c-1 -5 -2 -13 -4 -19 -1 -5 -3 -15 -3 -21 -1 -7 -9 -11
-18 -10 -9 0 -19 -4 -21 -11 -3 -7 4 -11 16 -10 12 1 21 5 21 10 0 4 4 6 9 2
5 -3 13 0 17 6 4 8 3 9 -4 5 -7 -4 -12 -2 -12 3 0 6 4 11 9 11 5 0 8 7 7 15
-3 17 -16 32 -17 19z"/>
<path d="M27845 37030 c8 -13 -18 -18 -37 -9 -11 6 -22 4 -32 -7 -24 -23 -20
-30 18 -30 19 0 34 4 33 9 -1 5 4 12 12 15 8 3 11 0 7 -7 -5 -7 -1 -9 9 -4 12
4 13 8 5 13 -8 5 -9 10 -2 14 6 4 15 -2 21 -11 6 -10 11 -13 11 -6 0 13 -17
26 -38 29 -6 1 -10 -1 -7 -6z m-30 -28 c-9 -9 -35 -11 -35 -3 0 14 12 20 26
14 8 -3 12 -8 9 -11z"/>
<path d="M27360 37025 c5 -22 -1 -27 -17 -14 -16 12 -17 12 -7 -1 6 -8 10 -23
8 -33 -2 -18 -1 -18 16 -2 18 16 21 38 6 52 -4 4 -7 4 -6 -2z"/>
<path d="M27297 36992 c-10 -10 -17 -21 -17 -24 0 -7 30 -6 31 1 0 3 2 14 4
24 4 21 2 21 -18 -1z"/>
<path d="M27255 36981 c-3 -5 -2 -12 3 -15 5 -3 9 1 9 9 0 17 -3 19 -12 6z"/>
<path d="M27790 36960 c0 -5 7 -7 15 -4 8 4 15 8 15 10 0 2 -7 4 -15 4 -8 0
-15 -4 -15 -10z"/>
<path d="M27687 36928 c2 -5 11 -8 19 -8 9 0 12 -5 8 -12 -4 -7 -3 -9 1 -5 17
15 12 32 -10 32 -13 0 -21 -3 -18 -7z"/>
<path d="M28870 36901 c0 -6 5 -13 10 -16 6 -3 10 1 10 9 0 9 -4 16 -10 16 -5
0 -10 -4 -10 -9z"/>
<path d="M28825 36891 c-3 -6 3 -9 14 -8 11 0 17 5 15 9 -7 11 -22 10 -29 -1z"/>
<path d="M27520 36870 c0 -5 4 -10 9 -10 6 0 13 5 16 10 3 6 -1 10 -9 10 -9 0
-16 -4 -16 -10z"/>
<path d="M27546 36856 c-29 -24 -29 -24 -7 -35 17 -10 22 -9 27 3 3 8 12 12
20 9 17 -6 18 8 2 30 -12 14 -16 14 -42 -7z m38 -1 c3 -8 2 -14 -2 -14 -20 3
-33 -2 -27 -11 3 -6 -1 -7 -9 -4 -13 5 -12 9 7 25 27 22 24 22 31 4z"/>
<path d="M27611 36864 c6 -7 17 -10 25 -7 20 7 18 10 -11 15 -20 4 -23 2 -14
-8z"/>
<path d="M28663 36853 c-4 -11 -8 -11 -20 -1 -11 9 -16 9 -24 -3 -5 -8 -7 -20
-4 -26 2 -7 0 -13 -5 -13 -5 0 -10 8 -12 18 -3 14 -5 14 -10 -4 -5 -21 16 -29
37 -14 6 4 18 6 27 5 12 -2 15 2 10 13 -5 15 -4 15 11 3 9 -7 15 -17 12 -20
-2 -4 2 -8 10 -8 8 0 12 4 9 8 -2 4 0 10 6 14 5 3 10 12 10 18 0 8 -3 8 -8 2
-10 -15 -34 -13 -40 4 -3 8 0 11 5 8 5 -3 15 -2 23 3 11 7 9 9 -9 7 -13 -1
-26 -7 -28 -14z m-13 -26 c0 -7 -4 -6 -10 3 -8 12 -10 12 -10 1 0 -8 -3 -12
-6 -8 -9 9 6 28 17 22 5 -4 9 -12 9 -18z"/>
<path d="M27420 36793 c0 -21 45 -39 55 -23 3 4 -2 10 -10 14 -8 3 -15 0 -15
-7 0 -7 -7 -3 -15 7 -8 11 -15 15 -15 9z"/>
<path d="M27499 36783 c-13 -16 -12 -17 4 -4 16 13 21 21 13 21 -2 0 -10 -8
-17 -17z"/>
<path d="M27372 36785 c4 -4 3 -14 -3 -22 -7 -8 -8 -13 -1 -13 15 0 23 28 9
36 -7 4 -9 4 -5 -1z"/>
<path d="M27403 36773 c4 -7 -5 -20 -23 -33 -29 -21 -32 -41 -7 -39 9 0 8 2
-1 6 -6 2 -10 9 -7 13 3 5 12 7 21 3 9 -3 14 0 12 8 -2 7 2 13 9 14 21 0 24
12 6 26 -9 8 -14 9 -10 2z"/>
<path d="M27253 36706 c0 -8 6 -12 14 -9 7 3 10 9 7 14 -8 14 -21 11 -21 -5z"/>
<path d="M27304 36705 c-3 -8 -12 -15 -19 -15 -7 0 -15 -7 -19 -15 -10 -27 23
-16 38 13 13 23 22 18 17 -10 -2 -12 5 -9 18 6 10 12 8 17 -9 26 -16 9 -21 8
-26 -5z"/>
<path d="M28540 36709 c0 -5 -4 -8 -8 -5 -4 2 -8 -4 -8 -15 0 -18 2 -18 12 -5
6 9 14 13 18 9 4 -4 4 0 0 10 -7 19 -14 22 -14 6z"/>
<path d="M28842 36708 c-8 -8 -8 -17 -1 -30 6 -11 8 -22 5 -25 -3 -3 -12 10
-21 28 -8 19 -13 27 -11 17 3 -9 2 -19 -2 -23 -4 -3 -7 -22 -8 -41 -2 -33 -1
-34 12 -17 13 17 14 17 8 -2 -5 -16 -4 -17 5 -5 6 9 7 18 1 24 -15 15 -12 30
3 18 17 -14 31 -3 34 28 2 21 1 22 -5 6 -7 -16 -9 -17 -14 -4 -4 9 -1 21 5 27
6 6 9 11 6 11 -3 0 -10 -5 -17 -12z"/>
<path d="M28506 36652 c-2 -4 4 -8 14 -8 10 0 16 4 14 8 -3 4 -9 8 -14 8 -5 0
-11 -4 -14 -8z"/>
<path d="M28850 36631 c0 -6 5 -13 10 -16 6 -3 10 1 10 9 0 9 -4 16 -10 16 -5
0 -10 -4 -10 -9z"/>
<path d="M28455 36600 c-3 -5 -13 -6 -22 -3 -15 6 -16 5 -3 -9 8 -9 17 -12 18
-7 2 5 7 7 11 5 4 -3 8 1 8 9 0 17 -3 19 -12 5z"/>
<path d="M28350 36585 c-7 -8 -11 -15 -9 -16 39 -8 40 -7 27 9 -11 14 -10 15
5 9 11 -4 16 -3 12 3 -9 14 -21 12 -35 -5z"/>
<path d="M28836 36583 c-3 -3 -1 -11 4 -18 7 -8 3 -18 -13 -33 -22 -20 -22
-20 -60 -2 -21 11 -34 13 -28 7 14 -17 7 -67 -10 -78 -20 -12 -2 -11 22 2 38
20 109 89 109 106 0 14 -15 25 -24 16z m-70 -88 c-9 -9 -16 -13 -16 -8 0 12
22 34 28 28 2 -2 -3 -11 -12 -20z"/>
<path d="M28400 36570 c-9 -6 -10 -10 -3 -10 6 0 15 5 18 10 8 12 4 12 -15 0z"/>
<path d="M28290 36550 c0 -6 -5 -8 -11 -4 -7 4 -10 1 -7 -6 6 -19 46 -20 43
-1 -2 18 -25 28 -25 11z"/>
<path d="M28800 36540 c-9 -6 -10 -10 -3 -10 6 0 15 5 18 10 8 12 4 12 -15 0z"/>
<path d="M28225 36510 c-3 -6 1 -7 9 -4 18 7 21 14 7 14 -6 0 -13 -4 -16 -10z"/>
<path d="M28263 36513 c4 -3 -1 -12 -11 -20 -15 -13 -15 -13 4 -4 12 6 24 7
28 4 11 -11 36 -12 36 -2 0 5 -12 14 -26 19 -29 12 -40 13 -31 3z"/>
<path d="M28654 36453 c3 -27 21 -41 21 -16 0 6 4 15 9 20 5 4 6 3 2 -4 -8
-14 10 -27 19 -13 3 6 -1 17 -9 26 -10 10 -16 11 -16 3 0 -9 -3 -9 -14 0 -11
9 -13 6 -12 -16z"/>
<path d="M28085 36460 c-3 -6 1 -7 9 -4 18 7 21 14 7 14 -6 0 -13 -4 -16 -10z"/>
<path d="M28128 36454 c6 -12 9 -23 7 -26 -3 -3 1 -5 8 -5 7 0 14 9 14 20 1
11 -1 17 -4 13 -3 -3 -13 0 -21 7 -13 10 -14 9 -4 -9z"/>
<path d="M28110 36438 c0 -10 -25 -12 -102 -10 -57 2 -101 1 -98 -1 3 -3 47
-7 98 -8 51 -1 92 -6 92 -10 0 -5 8 -9 18 -8 9 0 12 3 6 5 -7 3 -10 14 -7 24
3 11 3 20 -1 20 -3 0 -6 -6 -6 -12z"/>
<path d="M27881 36398 c-10 -17 -10 -20 -1 -11 11 10 16 9 24 -3 10 -13 12
-12 13 6 1 11 -2 18 -7 15 -4 -3 -10 -1 -12 5 -2 6 -9 0 -17 -12z"/>
<path d="M28483 36387 c-3 -5 -2 -11 1 -14 3 -4 6 -1 6 7 0 10 3 10 14 1 11
-9 16 -9 21 0 6 8 10 7 16 -2 7 -11 9 -11 9 -1 0 7 4 11 8 8 4 -2 14 -1 20 3
7 4 -10 7 -39 7 -28 -1 -53 -5 -56 -9z"/>
<path d="M28615 36390 c-3 -6 1 -7 9 -4 18 7 21 14 7 14 -6 0 -13 -4 -16 -10z"/>
<path d="M26121 36360 c13 -10 19 -19 14 -20 -6 0 -17 6 -25 13 -12 10 -12 9
-2 -4 6 -9 10 -18 7 -21 -3 -2 2 -5 10 -5 8 0 15 4 15 9 0 4 5 8 11 8 5 0 8
-4 4 -9 -3 -6 3 -9 14 -8 11 1 19 2 18 4 -8 8 -79 53 -84 53 -3 0 5 -9 18 -20z"/>
<path d="M27877 36350 c-3 -13 -4 -26 -2 -29 3 -2 5 1 5 7 0 6 6 9 13 6 8 -3
14 2 14 10 0 8 -4 13 -8 10 -4 -2 -9 1 -11 8 -3 7 -7 2 -11 -12z"/>
<path d="M28500 36359 c0 -6 -5 -7 -12 -3 -6 4 -8 3 -4 -4 5 -9 26 -10 84 -3
7 0 10 6 7 11 -5 8 -11 8 -19 1 -7 -6 -16 -8 -20 -4 -11 11 -36 12 -36 2z"/>
<path d="M26083 36335 c0 -8 4 -12 9 -9 5 3 6 10 3 15 -9 13 -12 11 -12 -6z"/>
<path d="M27845 36341 c-3 -5 -2 -12 3 -15 5 -3 9 1 9 9 0 17 -3 19 -12 6z"/>
<path d="M28492 36323 c-18 -18 -58 -31 -49 -16 3 5 -8 9 -24 9 -29 2 -38 -9
-19 -21 6 -4 7 -11 4 -17 -5 -7 -2 -8 6 -3 9 6 11 4 6 -4 -5 -7 -15 -10 -23
-7 -8 3 -11 2 -8 -4 8 -13 -28 -30 -44 -21 -11 7 -11 10 0 14 9 3 10 6 2 6
-17 1 -26 -16 -13 -24 7 -4 -2 -17 -21 -31 -37 -27 -61 -31 -53 -9 4 8 10 12
15 9 5 -3 6 3 2 12 -4 11 -8 13 -11 6 -2 -7 -7 -10 -11 -8 -4 3 -7 -5 -6 -17
3 -25 -13 -49 -26 -41 -5 3 -9 0 -9 -6 0 -6 -8 -13 -17 -17 -10 -3 -25 -12
-35 -20 -12 -11 -18 -12 -24 -2 -5 8 -3 10 6 4 9 -5 11 -4 6 3 -12 19 -28 14
-21 -7 7 -22 -17 -35 -34 -18 -9 9 -11 8 -6 -4 8 -20 -11 -34 -28 -21 -16 12
-85 13 -93 1 -3 -5 -10 -9 -15 -9 -6 0 -7 5 -3 12 4 7 3 8 -4 4 -17 -10 -3
-36 16 -28 15 5 15 4 3 -12 -14 -17 -16 -17 -29 1 -10 13 -13 14 -12 3 6 -40
0 -49 -28 -45 -19 2 -32 -3 -40 -15 -10 -17 -8 -18 15 -14 37 7 74 31 103 67
14 17 19 28 13 24 -7 -5 -13 -4 -13 2 0 17 21 13 36 -6 12 -16 13 -16 14 -2 0
14 30 24 30 9 0 -9 -60 -52 -77 -54 -8 -1 -19 -9 -24 -17 -5 -8 -9 -9 -9 -4 0
6 -3 6 -8 0 -13 -18 -61 -45 -74 -42 -7 2 -10 2 -5 0 12 -8 -3 -23 -23 -23
-10 0 -20 -3 -22 -7 -1 -5 -17 -18 -35 -30 -22 -16 -34 -19 -39 -11 -5 7 -3 8
6 3 9 -5 11 -4 6 3 -12 19 -28 14 -21 -7 7 -22 -17 -35 -34 -18 -9 9 -11 8 -6
-4 8 -21 -12 -34 -29 -20 -17 14 -76 3 -76 -14 0 -15 -39 -28 -41 -14 -1 5 -2
13 -3 18 0 5 -4 13 -8 17 -10 10 -2 -31 12 -55 13 -25 32 -28 23 -4 -5 12 -2
15 10 10 10 -4 16 -2 14 6 -1 7 6 11 16 11 9 -1 17 4 17 10 0 7 7 13 15 13 25
0 17 -12 -27 -44 -66 -46 -67 -46 -77 -21 -7 17 -10 18 -10 6 -1 -11 -6 -15
-15 -12 -18 7 -30 -12 -15 -22 7 -4 9 -3 5 4 -4 7 1 10 14 9 28 -2 25 -14 -5
-21 -25 -6 -25 -8 -26 -109 -1 -56 -1 -114 0 -129 1 -35 -12 -42 -40 -20 -26
22 -17 47 14 38 15 -4 17 -2 9 6 -14 14 -65 -9 -55 -25 4 -6 1 -7 -6 -3 -7 5
-10 15 -7 23 4 10 1 13 -13 8 -21 -6 -61 13 -61 29 0 5 10 1 23 -10 22 -19 22
-19 4 2 -16 20 -52 30 -41 12 3 -5 -9 -2 -28 6 -76 33 -88 41 -83 57 3 10 -1
19 -11 23 -13 5 -15 2 -11 -14 4 -17 2 -18 -15 -9 -14 8 -17 14 -9 23 8 10 7
17 -5 27 -20 16 -54 22 -54 10 0 -6 9 -8 20 -6 11 2 22 0 25 -6 12 -19 -56
-13 -71 7 -6 8 -19 14 -28 14 -9 0 -16 5 -16 11 0 5 5 7 10 4 6 -3 10 1 10 9
0 20 -5 20 -24 0 -15 -14 -16 -14 -16 3 0 14 -2 15 -9 4 -7 -11 -10 -11 -17 0
-14 22 -14 41 -1 31 18 -13 47 -22 46 -14 -3 19 2 25 11 12 6 -9 10 -10 10 -3
0 16 -17 26 -25 13 -3 -5 -11 -10 -16 -10 -6 0 -8 4 -5 8 3 5 -14 8 -37 7 -25
-2 -41 -7 -40 -14 4 -15 -9 -14 -33 4 -23 17 -44 19 -44 3 0 -6 3 -9 6 -5 4 3
19 0 35 -8 16 -9 32 -15 36 -14 21 3 29 -3 31 -24 6 -76 117 -624 143 -704 61
-191 151 -330 264 -410 l31 -21 154 88 155 89 5 107 c5 106 5 108 -23 142 -44
56 -86 135 -113 214 -27 80 -64 218 -64 240 0 8 87 68 193 134 184 115 201
124 430 209 l237 88 0 59 0 59 65 41 65 42 0 123 c0 121 2 129 33 124 5 -1 6
3 2 9 -8 14 -12 13 -33 -7z m-50 -31 c8 -8 5 -9 -11 -5 -12 3 -24 9 -26 13 -8
12 23 6 37 -8z"/>
<path d="M28341 36311 c-15 -10 -25 -41 -13 -40 24 4 34 -3 27 -18 -4 -12 -3
-14 3 -8 16 17 24 55 12 55 -6 0 -8 -6 -4 -12 5 -10 3 -10 -7 0 -12 11 -12 14
1 22 8 5 11 10 5 10 -5 0 -16 -4 -24 -9z"/>
<path d="M26274 36266 c-10 -8 -15 -18 -11 -23 5 -4 13 0 18 10 6 9 15 17 20
17 6 0 7 -4 4 -10 -4 -6 6 -10 22 -10 l28 0 -29 15 c-34 18 -28 18 -52 1z"/>
<path d="M27806 36271 c-7 -10 18 -34 27 -25 7 8 -3 34 -13 34 -5 0 -11 -4
-14 -9z"/>
<path d="M36885 36148 c-126 -64 -261 -131 -300 -147 -40 -17 -69 -36 -68 -43
8 -60 667 -3485 672 -3490 3 -3 269 128 591 292 322 165 588 300 592 302 17 7
-75 258 -94 258 -5 0 -95 -32 -199 -71 -105 -39 -192 -69 -195 -67 -2 3 59 85
136 182 77 98 140 182 140 187 0 6 -38 103 -84 217 -46 114 -135 335 -196 492
-62 157 -117 296 -123 310 -9 24 -10 24 -21 -17 -11 -42 -21 -50 -291 -243
-154 -110 -284 -199 -290 -197 -9 3 -173 546 -174 577 -1 10 72 53 197 120
176 93 209 107 309 130 l112 25 -131 330 c-71 182 -132 339 -134 350 -7 37
-26 75 -38 75 -6 0 -45 -13 -86 -29 -41 -16 -76 -29 -77 -27 -1 1 18 67 42
146 25 80 45 154 45 165 0 20 -88 275 -99 285 -3 3 -109 -47 -236 -112z"/>
<path d="M27776 36252 c-3 -5 1 -9 9 -9 8 0 12 4 9 9 -3 4 -7 8 -9 8 -2 0 -6
-4 -9 -8z"/>
<path d="M26040 36230 c0 -16 17 -20 28 -7 8 10 6 13 -9 14 -10 1 -19 -2 -19
-7z"/>
<path d="M27726 36211 c-4 -5 1 -8 9 -7 21 3 31 16 12 16 -9 0 -18 -4 -21 -9z"/>
<path d="M26434 36186 c-10 -8 -15 -18 -11 -23 5 -4 13 0 18 10 6 9 15 17 20
17 6 0 7 -4 4 -10 -4 -6 6 -10 22 -10 l28 0 -29 15 c-34 18 -28 18 -52 1z"/>
<path d="M27705 36190 c5 -9 2 -10 -13 -6 -11 4 -23 3 -26 -2 -3 -5 0 -9 7
-10 7 0 27 -3 44 -5 20 -3 35 -1 39 6 4 7 3 9 -1 4 -5 -4 -19 0 -33 9 -13 9
-21 11 -17 4z"/>
<path d="M26066 36181 c-3 -5 2 -15 12 -22 15 -12 16 -12 5 2 -7 9 -10 19 -6
22 3 4 4 7 0 7 -3 0 -8 -4 -11 -9z"/>
<path d="M26106 36149 c3 -5 13 -13 24 -19 15 -8 18 -6 16 8 -2 9 -12 17 -24
18 -12 1 -19 -3 -16 -7z"/>
<path d="M26160 36149 c0 -5 5 -7 10 -4 6 3 10 8 10 11 0 2 -4 4 -10 4 -5 0
-10 -5 -10 -11z"/>
<path d="M26193 36127 c0 -19 2 -25 7 -16 5 7 6 17 4 21 -3 4 2 5 11 1 12 -4
13 -8 5 -13 -9 -5 -9 -13 -3 -25 12 -20 20 -5 19 34 -1 17 -7 25 -21 26 -16 1
-21 -5 -22 -28z"/>
<path d="M27663 36145 c0 -8 4 -12 9 -9 5 3 6 10 3 15 -9 13 -12 11 -12 -6z"/>
<path d="M28082 36133 c-1 -14 2 -21 8 -18 6 4 8 11 5 16 -4 5 -1 9 4 9 6 0
11 4 11 8 0 21 -26 6 -28 -15z"/>
<path d="M28156 36144 c-5 -13 -4 -14 7 -6 8 7 18 8 22 4 5 -4 5 -1 1 6 -10
17 -23 15 -30 -4z"/>
<path d="M27619 36133 c-7 -10 -9 -15 -5 -11 5 4 14 0 21 -9 8 -11 14 -13 19
-4 4 6 0 14 -8 17 -9 3 -13 10 -10 15 10 16 -3 9 -17 -8z"/>
<path d="M27582 36131 c2 -7 -4 -15 -12 -16 -23 -5 -70 -24 -70 -29 0 -9 52 1
59 12 5 8 14 7 34 -3 19 -9 29 -10 33 -3 4 6 2 8 -3 5 -10 -7 -42 21 -35 30 2
3 1 8 -3 11 -4 4 -5 1 -3 -7z"/>
<path d="M26594 36106 c-10 -8 -15 -18 -11 -23 5 -4 13 0 18 10 6 9 15 17 20
17 6 0 7 -4 4 -10 -4 -6 6 -10 22 -10 l28 0 -29 15 c-34 18 -28 18 -52 1z"/>
<path d="M26266 36069 c3 -5 13 -13 24 -19 15 -8 18 -6 16 8 -2 9 -12 17 -24
18 -12 1 -19 -3 -16 -7z"/>
<path d="M26333 36073 c4 -6 3 -14 -3 -18 -5 -3 -10 -11 -10 -17 0 -6 7 -5 17
3 11 10 14 10 9 2 -9 -16 3 -16 29 0 26 16 28 32 4 34 -10 1 -19 -3 -19 -8 0
-6 5 -7 10 -4 6 3 10 1 10 -4 0 -16 -11 -13 -33 7 -11 9 -17 12 -14 5z"/>
<path d="M26754 36026 c-10 -8 -15 -18 -11 -23 5 -4 13 0 18 10 6 9 15 17 20
17 6 0 7 -4 4 -10 -4 -6 6 -10 22 -10 l28 0 -29 15 c-34 18 -28 18 -52 1z"/>
<path d="M27979 36023 c-13 -17 -13 -17 6 -3 11 8 22 16 24 17 2 2 0 3 -6 3
-6 0 -17 -8 -24 -17z"/>
<path d="M26375 36020 c3 -5 8 -10 11 -10 2 0 4 5 4 10 0 6 -5 10 -11 10 -5 0
-7 -4 -4 -10z"/>
<path d="M26914 35946 c-10 -8 -15 -18 -11 -23 5 -4 13 0 18 10 6 9 15 17 20
17 6 0 7 -4 4 -10 -4 -6 6 -10 22 -10 l28 0 -29 15 c-34 18 -28 18 -52 1z"/>
<path d="M26418 35913 c7 -3 16 -2 19 1 4 3 -2 6 -13 5 -11 0 -14 -3 -6 -6z"/>
<path d="M26449 35903 c-6 -7 -15 -10 -20 -7 -5 3 -9 -2 -9 -10 0 -10 6 -13
17 -9 10 4 14 2 10 -4 -4 -7 0 -10 10 -8 10 1 28 -3 40 -11 14 -9 24 -10 28
-4 6 9 -1 14 -17 11 -13 -2 -9 16 6 28 11 9 15 7 19 -9 7 -28 23 -25 23 4 0
17 -5 23 -20 21 -12 0 -25 1 -31 4 -19 10 -45 7 -56 -6z m44 -5 c19 5 20 3 9
-10 -20 -25 -62 -13 -46 13 5 9 9 9 11 2 2 -6 14 -8 26 -5z"/>
<path d="M27682 35893 c-1 -14 2 -21 8 -18 6 4 8 11 5 16 -4 5 -1 9 4 9 6 0
11 4 11 8 0 21 -26 6 -28 -15z"/>
<path d="M27757 35901 c-10 -14 -10 -14 4 -4 9 7 18 10 21 7 3 -3 8 -1 12 4 9
16 -24 9 -37 -7z"/>
<path d="M27074 35866 c-10 -8 -15 -18 -11 -23 5 -4 13 0 18 10 6 9 15 17 20
17 6 0 7 -4 4 -10 -4 -6 6 -10 22 -10 l28 0 -29 15 c-34 18 -28 18 -52 1z"/>
<path d="M26580 35830 c-9 -6 -10 -10 -3 -10 6 0 15 5 18 10 8 12 4 12 -15 0z"/>
<path d="M26617 35822 c4 -10 8 -11 13 -2 4 7 13 9 19 6 6 -4 9 -12 6 -17 -4
-5 -2 -9 3 -9 5 0 12 8 14 18 4 14 -2 17 -28 18 -23 0 -31 -3 -27 -14z"/>
<path d="M26693 35833 c4 -3 2 -12 -3 -18 -8 -9 -6 -14 4 -18 11 -4 13 -1 10
11 -3 11 1 9 12 -5 16 -23 44 -31 44 -14 0 5 -7 17 -16 25 -10 11 -11 16 -3
16 7 0 9 3 6 6 -4 4 -13 1 -22 -6 -10 -8 -15 -9 -15 -1 0 6 -5 11 -12 11 -6 0
-8 -3 -5 -7z m47 -28 c7 -9 8 -15 2 -15 -5 0 -12 7 -16 15 -3 8 -4 15 -2 15 2
0 9 -7 16 -15z"/>
<path d="M26764 35824 c1 -8 7 -19 14 -26 8 -8 9 -15 1 -25 -7 -8 -8 -13 -1
-13 24 0 25 72 1 75 -10 2 -16 -3 -15 -11z"/>
<path d="M27234 35786 c-10 -8 -15 -18 -11 -23 5 -4 13 0 18 10 6 9 15 17 20
17 6 0 7 -4 4 -10 -4 -6 6 -10 22 -10 l28 0 -29 15 c-34 18 -28 18 -52 1z"/>
<path d="M27394 35706 c-10 -8 -15 -18 -11 -23 5 -4 13 0 18 10 6 9 15 17 20
17 6 0 8 -4 5 -9 -3 -5 1 -12 9 -15 13 -4 14 -2 5 14 -13 24 -20 25 -46 6z"/>
<path d="M27173 35664 c0 -7 6 -10 14 -7 7 3 13 8 13 12 0 4 -6 8 -13 8 -8 0
-14 -6 -14 -13z"/>
<path d="M27235 35590 c-3 -6 1 -7 9 -4 18 7 21 14 7 14 -6 0 -13 -4 -16 -10z"/>
<path d="M27316 35592 c-14 -13 -4 -23 15 -17 14 5 19 3 15 -3 -3 -6 -3 -13 2
-16 4 -2 8 4 9 14 2 17 -30 34 -41 22z"/>
<path d="M27260 35580 c-9 -6 -10 -10 -3 -10 6 0 15 5 18 10 8 12 4 12 -15 0z"/>
<path d="M27442 35491 c-11 -6 -10 -10 4 -15 20 -8 32 0 18 14 -5 5 -15 5 -22
1z"/>
<path d="M28899 35085 c-1 -3 -2 -8 -3 -12 -1 -5 -5 -15 -11 -23 -7 -12 -6
-13 7 -3 8 7 19 9 24 5 4 -4 2 2 -6 12 -14 18 -13 19 3 13 11 -4 16 -3 12 3
-6 10 -24 14 -26 5z"/>
<path d="M28830 35040 c-13 -8 -12 -10 3 -10 9 0 17 5 17 10 0 12 -1 12 -20 0z"/>
<path d="M28894 35026 c-3 -8 -20 -12 -44 -11 -22 1 -37 -2 -34 -6 8 -13 -16
-21 -31 -9 -19 15 -29 -4 -15 -30 6 -11 13 -20 16 -20 2 0 0 9 -6 19 -14 28
-12 36 5 21 9 -7 18 -10 22 -7 3 4 14 2 24 -3 13 -7 22 -5 35 8 17 16 17 16
12 -6 -3 -12 -2 -20 3 -16 5 3 9 15 9 27 0 17 2 19 9 7 6 -8 7 -18 4 -24 -3
-5 -1 -6 5 -2 9 5 9 13 2 26 -14 26 -13 29 11 25 12 -3 19 -1 15 2 -12 12 -37
12 -42 -1z m-34 -26 c0 -13 -12 -19 -26 -13 -8 3 -12 8 -9 12 5 10 35 10 35 1z"/>
<path d="M28925 35000 c3 -5 8 -10 11 -10 2 0 4 5 4 10 0 6 -5 10 -11 10 -5 0
-7 -4 -4 -10z"/>
<path d="M29355 34990 c-3 -5 -1 -10 4 -10 6 0 11 5 11 10 0 6 -2 10 -4 10 -3
0 -8 -4 -11 -10z"/>
<path d="M29324 34968 c-4 -7 -3 -8 4 -4 11 7 17 -6 13 -27 -1 -5 3 -6 9 -2 7
4 7 12 0 26 -12 22 -16 23 -26 7z"/>
<path d="M28735 34960 c-3 -6 1 -7 9 -4 18 7 21 14 7 14 -6 0 -13 -4 -16 -10z"/>
<path d="M28814 34949 c-8 -14 14 -19 25 -6 8 10 7 14 -5 14 -8 0 -17 -4 -20
-8z"/>
<path d="M28750 34942 c0 -7 5 -12 11 -12 5 0 7 -5 4 -11 -5 -7 -14 -4 -28 8
l-22 18 19 -22 c20 -24 10 -32 -13 -10 -11 10 -12 9 -6 -2 6 -11 4 -13 -11 -7
-48 19 -55 17 -33 -14 13 -17 18 -33 13 -42 -6 -10 -4 -10 9 1 17 13 17 15 0
34 -17 20 -17 20 2 12 11 -4 28 -7 38 -7 11 1 15 -4 10 -11 -3 -7 3 -4 15 7
12 10 19 22 17 27 -3 4 3 13 12 19 14 9 15 10 2 7 -9 -3 -22 0 -28 6 -8 8 -11
8 -11 -1z"/>
<path d="M29299 34933 c-7 -10 -9 -15 -5 -11 5 4 14 0 21 -9 8 -11 14 -13 19
-4 4 6 0 14 -8 17 -9 3 -13 10 -10 15 10 16 -3 9 -17 -8z"/>
<path d="M29260 34931 c0 -6 4 -13 10 -16 6 -3 7 1 4 9 -7 18 -14 21 -14 7z"/>
<path d="M29234 34905 c1 -8 6 -18 11 -22 4 -4 5 -3 2 4 -4 6 -2 13 5 15 8 3
6 6 -4 10 -10 4 -15 2 -14 -7z"/>
<path d="M28626 34898 c-8 -26 -3 -46 11 -41 10 4 13 0 11 -12 -2 -10 3 -19
10 -21 7 -1 8 0 2 3 -8 3 -7 9 1 19 9 11 8 14 -2 14 -11 0 -11 3 1 11 12 8 10
9 -7 4 -18 -5 -21 -3 -18 14 4 23 -3 29 -9 9z"/>
<path d="M29270 34890 c0 -4 7 -7 15 -6 23 3 26 12 5 13 -11 1 -20 -2 -20 -7z"/>
<path d="M29184 34866 c4 -15 0 -28 -10 -36 -13 -12 -14 -10 -10 14 4 23 3 26
-9 16 -11 -9 -12 -17 -5 -30 13 -23 30 -35 30 -20 0 6 3 9 8 6 4 -2 7 13 7 35
0 21 -4 39 -8 39 -5 0 -6 -11 -3 -24z"/>
<path d="M28579 34853 c-7 -10 -9 -15 -5 -11 5 4 14 0 21 -9 8 -11 14 -13 19
-4 4 6 0 14 -8 17 -9 3 -13 10 -10 15 10 16 -3 9 -17 -8z"/>
<path d="M29104 34832 c3 -6 2 -13 -4 -17 -5 -3 -10 -1 -10 5 0 6 -5 8 -11 4
-8 -4 -8 -9 0 -17 8 -8 16 -7 27 5 12 12 13 17 3 23 -7 5 -10 4 -5 -3z"/>
<path d="M28559 34818 c13 -18 4 -25 -15 -10 -5 4 -2 0 8 -9 9 -9 14 -19 11
-23 -4 -3 -1 -6 5 -6 7 0 12 5 12 11 0 5 6 7 13 3 9 -6 9 -5 0 8 -7 8 -9 19
-5 24 4 5 3 6 -2 2 -5 -4 -16 -2 -25 5 -14 11 -14 10 -2 -5z"/>
<path d="M29296 34792 c-2 -4 -1 -14 4 -22 6 -9 3 -19 -8 -27 -15 -12 -14 -13
5 -3 15 7 20 16 16 27 -4 11 -3 14 5 9 8 -5 10 -2 6 8 -7 17 -20 21 -28 8z"/>
<path d="M29345 34780 c3 -5 8 -10 11 -10 2 0 4 5 4 10 0 6 -5 10 -11 10 -5 0
-7 -4 -4 -10z"/>
<path d="M29004 34758 c-10 -13 -12 -17 -4 -11 9 9 17 9 26 2 9 -7 12 -6 10 5
-4 26 -12 27 -32 4z"/>
<path d="M29023 34705 c0 -8 4 -12 9 -9 5 3 6 10 3 15 -9 13 -12 11 -12 -6z"/>
<path d="M29123 34703 c0 -9 4 -10 11 -3 24 24 42 4 23 -27 -4 -6 -2 -15 5
-19 7 -4 10 -4 6 1 -4 4 -3 14 3 22 6 7 8 13 4 13 -4 0 -2 6 4 13 8 11 4 14
-22 14 -22 0 -34 -5 -34 -14z"/>
<path d="M29225 34710 c-3 -5 -2 -10 4 -10 5 0 13 5 16 10 3 6 2 10 -4 10 -5
0 -13 -4 -16 -10z"/>
<path d="M28979 34693 c-7 -10 -9 -15 -5 -11 5 4 14 0 21 -9 8 -11 14 -13 19
-4 4 6 0 14 -8 17 -9 3 -13 10 -10 15 10 16 -3 9 -17 -8z"/>
<path d="M28945 34650 c4 -6 11 -7 17 -4 7 5 9 1 5 -9 -8 -23 0 -22 12 1 8 15
5 18 -15 20 -15 1 -23 -2 -19 -8z"/>
<path d="M29755 34650 c-3 -5 -1 -10 4 -10 6 0 11 5 11 10 0 6 -2 10 -4 10 -3
0 -8 -4 -11 -10z"/>
<path d="M28824 34624 c5 -14 4 -15 -9 -4 -13 11 -14 10 -9 -4 4 -11 13 -15
26 -10 13 4 18 2 14 -4 -3 -6 -1 -14 5 -18 7 -4 9 -3 6 3 -8 13 20 26 34 17 6
-4 6 -11 -1 -19 -12 -15 3 -30 20 -20 6 3 10 -1 10 -10 0 -9 -7 -15 -16 -13
-10 2 -18 -5 -20 -15 -2 -15 0 -16 12 -6 17 14 19 -2 2 -19 -7 -7 -9 -12 -5
-12 14 0 46 39 34 43 -6 2 -4 6 6 10 9 3 17 2 17 -4 0 -6 5 -7 10 -4 17 11 11
24 -10 20 -25 -5 -26 7 -1 22 15 10 21 10 24 0 4 -9 6 -9 6 1 1 6 6 12 11 12
7 0 7 -7 0 -22 -10 -22 -10 -22 4 -4 8 10 19 15 25 12 5 -4 13 -2 16 4 4 6 3
10 -2 9 -30 -5 -35 2 -18 21 18 20 30 19 30 -2 0 -6 6 -13 14 -16 9 -3 12 0 8
10 -3 9 -1 20 4 25 20 20 -37 7 -69 -15 -20 -15 -32 -19 -32 -11 0 7 -6 4 -14
-7 -16 -21 -25 -17 -31 16 -3 17 -1 20 13 15 13 -5 14 -3 5 6 -12 12 -37 3
-28 -11 3 -5 1 -11 -4 -14 -5 -4 -13 -2 -16 4 -4 6 -15 8 -26 5 -12 -4 -21 -1
-25 9 -3 9 -11 16 -16 16 -6 0 -7 -7 -4 -16z m99 -37 c3 -7 -3 -13 -14 -14
-15 -1 -16 1 -6 12 15 18 14 18 20 2z"/>
<path d="M29087 34621 c-4 -17 -3 -21 5 -13 5 5 8 16 6 23 -3 8 -7 3 -11 -10z"/>
<path d="M29745 34620 c6 -10 4 -12 -11 -6 -15 6 -17 5 -6 -5 9 -9 15 -10 23
-2 8 8 7 13 -2 18 -8 6 -10 4 -4 -5z"/>
<path d="M29703 34598 c1 -14 5 -24 9 -22 3 2 9 -2 11 -8 4 -10 6 -9 6 1 1 10
4 11 14 2 10 -8 14 -7 14 3 0 8 -7 13 -16 11 -9 -1 -21 7 -28 19 -11 20 -11
19 -10 -6z"/>
<path d="M28746 34601 c-5 -7 -18 -16 -30 -21 -19 -8 -19 -9 6 -7 15 1 24 5
22 9 -3 4 0 8 5 8 6 0 11 -8 12 -17 0 -14 2 -15 6 -3 3 8 11 19 17 23 7 6 5 7
-6 4 -9 -3 -18 -1 -21 6 -2 8 -6 7 -11 -2z"/>
<path d="M29655 34597 c-10 -8 -14 -16 -9 -19 5 -3 17 3 27 14 20 21 9 24 -18
5z"/>
<path d="M28807 34577 c-3 -8 1 -14 8 -14 7 0 11 6 8 14 -3 7 -6 13 -8 13 -2
0 -5 -6 -8 -13z"/>
<path d="M29670 34570 c0 -5 5 -10 11 -10 5 0 7 5 4 10 -3 6 -8 10 -11 10 -2
0 -4 -4 -4 -10z"/>
<path d="M28674 34545 c-4 -8 -10 -13 -14 -10 -4 3 -16 -8 -25 -23 -10 -15
-14 -24 -10 -20 5 4 15 2 24 -5 14 -10 14 -10 4 3 -8 10 -9 21 -3 30 6 8 10
11 10 5 0 -5 7 -2 14 8 8 11 17 14 20 8 4 -5 -4 -17 -16 -25 -18 -13 -19 -16
-5 -16 9 0 17 -5 17 -11 0 -6 5 -9 11 -7 6 2 9 8 7 13 -2 6 -6 9 -10 8 -10 -4
-10 11 -1 21 4 3 8 13 9 21 3 20 -25 19 -32 0z"/>
<path d="M29575 34550 c-11 -5 -17 -9 -13 -9 3 -1 13 -3 21 -6 8 -4 14 0 14
10 0 8 -1 15 -1 14 -1 0 -10 -4 -21 -9z"/>
<path d="M29556 34521 c-7 -11 32 -47 41 -38 3 4 1 7 -7 7 -10 0 -10 4 1 17
10 11 10 14 2 9 -7 -4 -13 -2 -13 3 0 13 -17 14 -24 2z"/>
<path d="M29513 34510 c-28 -11 -30 -20 -4 -13 10 3 22 0 25 -6 4 -6 13 -11
19 -11 7 0 4 5 -6 11 -9 6 -15 14 -12 20 7 11 7 11 -22 -1z"/>
<path d="M28590 34501 c0 -6 4 -13 10 -16 6 -3 7 1 4 9 -7 18 -14 21 -14 7z"/>
<path d="M28725 34470 c-6 -9 1 -14 18 -11 11 2 8 -14 -5 -27 -7 -7 -8 -12 -4
-12 5 0 3 -7 -4 -15 -19 -23 6 -19 30 5 11 11 23 19 28 19 4 -1 12 8 18 19 7
14 14 18 20 12 7 -7 16 -5 28 3 16 12 16 14 2 14 -9 0 -16 -4 -16 -9 0 -5 -6
-6 -12 -2 -21 13 -49 12 -38 -1 5 -6 5 -16 0 -25 -6 -8 -10 -10 -10 -5 0 6 -7
2 -14 -8 -8 -11 -17 -14 -20 -8 -4 5 4 17 16 25 18 13 19 16 5 16 -9 0 -17 5
-17 10 0 6 -4 10 -9 10 -6 0 -13 -4 -16 -10z"/>
<path d="M29680 34471 c0 -6 5 -13 11 -17 8 -4 7 -9 -2 -15 -10 -6 -10 -9 -2
-9 6 0 14 4 18 9 5 9 17 9 54 -1 7 -1 15 5 16 15 2 9 -1 15 -6 11 -5 -3 -6
-10 -3 -16 4 -7 2 -8 -4 -4 -6 4 -9 13 -5 21 3 9 -1 15 -11 15 -9 0 -15 -3
-15 -7 3 -20 -2 -23 -17 -9 -17 18 -34 21 -34 7z"/>
<path d="M29425 34450 c-4 -6 -11 -8 -16 -5 -5 4 -9 1 -9 -5 0 -6 -4 -9 -9 -6
-5 3 -14 -1 -21 -9 -7 -8 -16 -13 -20 -10 -4 2 -15 -4 -25 -15 -10 -12 -13
-20 -7 -20 7 0 12 6 12 13 0 8 3 7 10 -3 8 -12 10 -12 16 3 3 9 11 14 17 10 5
-3 7 -1 4 4 -4 6 4 11 18 11 14 0 23 -4 20 -8 -2 -3 2 -7 9 -7 7 0 13 6 13 13
0 7 -4 11 -9 8 -12 -8 -10 10 4 24 7 7 9 12 6 12 -4 0 -10 -5 -13 -10z"/>
<path d="M29727 34419 c7 -7 15 -10 18 -7 3 3 -2 9 -12 12 -14 6 -15 5 -6 -5z"/>
<path d="M29703 34405 c0 -8 4 -12 9 -9 5 3 6 10 3 15 -9 13 -12 11 -12 -6z"/>
<path d="M28680 34376 c-10 -29 -33 -37 -23 -8 5 13 3 14 -6 6 -7 -7 -11 -19
-9 -27 2 -13 9 -12 41 7 32 20 35 25 22 36 -12 10 -16 8 -25 -14z"/>
<path d="M29608 34393 c7 -3 16 -2 19 1 4 3 -2 6 -13 5 -11 0 -14 -3 -6 -6z"/>
<path d="M29666 34388 c5 -7 -10 -12 -29 -9 -5 1 -6 -3 -2 -8 7 -12 47 1 52
16 2 5 -3 10 -11 10 -8 0 -13 -4 -10 -9z"/>
<path d="M29285 34379 c-4 -6 -5 -12 -2 -15 2 -3 7 2 10 11 7 17 1 20 -8 4z"/>
<path d="M29320 34370 c-8 -5 -11 -12 -7 -16 4 -4 2 -13 -4 -21 -9 -9 -8 -13
0 -13 6 0 11 5 11 11 0 5 4 8 9 4 13 -8 20 7 12 27 -4 12 -10 15 -21 8z"/>
<path d="M29219 34359 c-11 -7 -11 -9 -1 -9 7 0 10 -5 7 -10 -4 -7 -13 -6 -26
1 -12 6 -23 8 -27 5 -3 -3 0 -6 7 -6 7 0 10 -4 7 -8 -6 -11 25 -9 43 2 8 5 16
4 21 -4 6 -10 9 -9 13 1 4 10 6 10 6 2 1 -18 18 -16 25 3 4 9 2 13 -5 8 -6 -4
-15 -1 -19 7 -10 16 -33 20 -51 8z"/>
<path d="M29135 34330 c-3 -5 1 -10 9 -10 9 0 16 5 16 10 0 6 -4 10 -9 10 -6
0 -13 -4 -16 -10z"/>
<path d="M29101 34314 c0 -11 3 -14 6 -6 3 7 2 16 -1 19 -3 4 -6 -2 -5 -13z"/>
<path d="M29076 34313 c-4 -5 -17 -8 -28 -8 -13 0 -22 -7 -24 -18 -2 -17 -1
-17 14 -4 9 8 23 12 30 10 10 -4 8 -9 -7 -20 -12 -8 -21 -19 -21 -24 0 -6 7
-3 16 5 19 20 35 21 28 2 -4 -9 0 -14 11 -12 8 1 15 5 15 9 0 4 0 12 0 18 0 5
-4 8 -9 5 -11 -7 -23 22 -15 35 6 11 0 12 -10 2z"/>
<path d="M29444 34301 c3 -17 46 -26 46 -9 0 5 4 7 8 4 5 -3 9 1 9 9 0 10 -4
12 -12 5 -7 -5 -15 -7 -19 -3 -14 14 -34 10 -32 -6z"/>
<path d="M29520 34298 c0 -21 16 -32 26 -17 5 8 3 9 -6 4 -9 -5 -11 -4 -6 3
11 18 26 14 26 -5 0 -15 2 -15 9 -4 14 22 2 39 -25 37 -15 0 -24 -7 -24 -18z"/>
<path d="M28949 34275 c0 0 -2 -9 -4 -19 -2 -10 -10 -23 -17 -27 -8 -6 -9 -9
-2 -9 7 0 19 12 29 26 11 18 23 24 36 21 10 -3 19 -1 19 4 0 7 -49 10 -61 4z"/>
<path d="M29450 34255 c-10 -12 -10 -15 2 -15 8 0 15 7 15 15 0 8 -1 15 -2 15
-2 0 -8 -7 -15 -15z"/>
<path d="M29358 34233 c6 -3 12 -12 12 -21 0 -11 -3 -13 -8 -6 -9 14 -44 14
-39 0 2 -6 8 -11 13 -11 5 0 14 -3 19 -7 12 -7 30 11 31 32 1 10 -8 16 -20 17
-12 1 -15 -1 -8 -4z"/>
<path d="M33864 34194 c4 -9 45 -85 93 -168 47 -83 86 -158 85 -166 0 -8 -41
-128 -91 -266 -50 -139 -91 -255 -91 -258 0 -3 81 44 180 104 99 61 184 110
188 110 4 -1 97 -160 206 -355 178 -317 202 -355 224 -355 43 0 103 -23 133
-51 50 -46 35 -130 -37 -206 l-32 -34 120 -186 121 -187 484 -1154 c464 -1105
484 -1156 481 -1209 l-3 -54 -622 -352 c-342 -194 -624 -355 -628 -358 -5 -5
-35 -362 -31 -365 131 -82 1488 -849 1501 -849 18 1 1380 839 1413 869 8 8 13
61 15 180 l2 168 -532 312 -533 311 -2 806 -3 807 -140 -59 -140 -58 -147 147
-148 147 0 -295 c0 -162 -4 -290 -8 -285 -5 6 -91 222 -192 480 l-183 470 -83
85 -83 85 -6 106 c-3 59 -16 221 -30 360 -13 140 -20 258 -16 262 5 5 267 121
582 258 316 138 577 253 581 257 4 4 -202 52 -458 108 -459 99 -466 100 -475
80 -5 -12 -60 -171 -123 -355 -62 -184 -115 -330 -118 -325 -3 5 -135 299
-293 654 -158 355 -291 649 -296 654 -6 7 -813 142 -868 146 -2 0 0 -7 3 -16z
m2056 -5034 l0 -130 150 -75 c82 -41 155 -75 161 -75 6 0 71 37 145 83 l133
82 1 112 0 113 66 -25 c142 -53 261 -150 314 -254 l29 -58 -29 -50 c-69 -120
-233 -228 -426 -280 -90 -24 -116 -27 -289 -27 -227 -1 -307 15 -475 96 -85
41 -117 63 -170 117 -36 36 -74 82 -84 103 -19 35 -19 37 -1 85 26 69 138 178
235 228 69 36 198 83 228 85 9 0 12 -32 12 -130z"/>
<path d="M28913 34193 c4 -3 1 -13 -6 -22 -11 -14 -10 -14 5 -2 16 12 16 31 1
31 -4 0 -3 -3 0 -7z"/>
<path d="M28944 34189 c-3 -6 -1 -16 4 -21 8 -8 11 -5 9 11 -1 24 -3 25 -13
10z"/>
<path d="M29304 34185 c4 -29 21 -35 34 -14 8 12 9 18 3 15 -5 -4 -12 -2 -16
4 -9 15 -24 12 -21 -5z"/>
<path d="M29272 34158 c-7 -7 -12 -19 -12 -27 -1 -12 -6 -10 -20 7 -11 13 -25
21 -32 19 -10 -4 -10 -6 -1 -6 7 -1 10 -8 7 -16 -4 -8 -2 -15 2 -16 48 -6 63
-4 61 5 -1 6 4 10 12 8 11 -2 12 0 3 11 -7 8 -9 17 -5 20 3 4 4 7 2 7 -3 0
-10 -5 -17 -12z"/>
<path d="M28830 34120 c-14 -11 -32 -20 -40 -21 -10 0 -11 -2 -2 -6 6 -2 10
-9 7 -13 -3 -5 -12 -7 -21 -3 -9 3 -14 0 -12 -8 2 -7 -2 -13 -9 -14 -21 0 -24
-12 -6 -26 9 -8 14 -9 10 -3 -8 13 57 67 67 56 4 -3 4 2 0 12 -5 14 -4 17 4
12 7 -4 12 -2 12 3 0 6 7 11 15 11 8 0 15 -5 15 -11 0 -5 -4 -7 -10 -4 -6 4
-7 -1 -3 -11 5 -15 7 -15 16 1 6 12 5 21 -4 31 -12 11 -18 10 -39 -6z"/>
<path d="M29215 34100 c3 -6 1 -10 -6 -10 -7 0 -10 -3 -6 -6 3 -3 13 -2 22 4
16 8 16 9 1 15 -10 4 -15 3 -11 -3z"/>
<path d="M29040 34055 c0 -14 5 -25 11 -25 5 0 8 -4 4 -9 -3 -5 -1 -12 4 -15
5 -4 12 -2 15 3 4 5 2 12 -4 16 -20 12 1 24 26 15 22 -9 24 -8 14 10 -5 10
-16 22 -23 26 -8 5 -7 2 2 -9 12 -16 11 -17 -10 -13 -13 2 -23 9 -21 15 1 6
-2 11 -8 11 -5 0 -10 -11 -10 -25z"/>
<path d="M27793 34027 c26 -106 142 -776 136 -781 -2 -2 -179 -103 -393 -224
-229 -129 -393 -228 -397 -239 -3 -10 -10 -77 -13 -149 l-8 -131 494 -283
c271 -156 543 -312 605 -348 l112 -64 574 356 574 356 6 83 c4 45 7 107 7 139
l0 56 -497 291 c-274 160 -503 295 -510 299 -7 4 -26 93 -43 197 -17 104 -32
190 -33 191 -4 5 -223 101 -312 139 -44 18 -131 56 -194 84 -106 48 -113 49
-108 28z m869 -1067 c132 -48 225 -122 270 -216 21 -43 21 -43 2 -79 -48 -90
-185 -182 -336 -226 -113 -32 -314 -37 -443 -10 -172 35 -321 125 -382 228
l-26 45 20 42 c30 61 70 105 137 148 32 21 62 38 66 38 4 0 12 -37 19 -82 6
-45 17 -88 24 -94 6 -7 79 -53 160 -102 l148 -90 124 72 c143 82 134 60 106
243 l-18 123 26 -7 c14 -3 61 -18 103 -33z"/>
<path d="M28691 34036 c-9 -11 -8 -15 3 -19 11 -4 13 -1 10 11 -4 12 1 10 15
-7 12 -13 21 -19 21 -14 0 6 -8 17 -19 27 -15 14 -20 14 -30 2z"/>
<path d="M28777 34035 c-4 -8 -1 -17 6 -21 7 -4 9 -4 5 1 -4 4 -3 14 3 22 7 8
8 13 1 13 -5 0 -12 -7 -15 -15z"/>
<path d="M28655 34010 c-3 -5 -1 -10 4 -10 6 0 11 5 11 10 0 6 -2 10 -4 10 -3
0 -8 -4 -11 -10z"/>
<path d="M28603 33989 c-34 -22 -46 -37 -16 -20 13 7 22 6 33 -4 14 -13 16
-11 18 15 1 17 1 30 0 30 -2 0 -18 -10 -35 -21z m27 -9 c0 -5 -2 -10 -4 -10
-3 0 -8 5 -11 10 -3 6 -1 10 4 10 6 0 11 -4 11 -10z"/>
<path d="M28885 33966 c0 -32 1 -33 22 -19 17 11 22 11 26 1 3 -7 4 -3 4 9 -1
12 -6 21 -12 20 -5 -1 -9 3 -8 8 1 6 -6 11 -15 12 -13 1 -18 -6 -17 -31z m30
4 c3 -5 2 -10 -4 -10 -5 0 -13 5 -16 10 -3 6 -2 10 4 10 5 0 13 -4 16 -10z"/>
<path d="M28950 33976 c0 -9 8 -14 20 -13 11 1 20 2 20 4 0 1 -9 7 -20 13 -16
8 -20 8 -20 -4z"/>
<path d="M28544 33945 c3 -22 13 -28 31 -18 14 8 13 11 -9 21 -19 9 -24 8 -22
-3z"/>
<path d="M28905 33930 c-3 -5 -1 -10 4 -10 6 0 11 5 11 10 0 6 -2 10 -4 10 -3
0 -8 -4 -11 -10z"/>
<path d="M28770 33900 c6 -11 13 -20 16 -20 2 0 0 9 -6 20 -6 11 -13 20 -16
20 -2 0 0 -9 6 -20z"/>
<path d="M28790 33910 c0 -5 5 -10 11 -10 5 0 7 5 4 10 -3 6 -8 10 -11 10 -2
0 -4 -4 -4 -10z"/>
<path d="M28851 33909 c12 -7 12 -9 0 -9 -8 0 -12 -3 -8 -6 3 -3 15 1 27 9 21
14 21 15 -6 15 -18 0 -22 -3 -13 -9z"/>
<path d="M28729 33908 c-6 -14 -4 -56 2 -52 4 2 10 0 14 -6 3 -5 1 -10 -6 -10
-7 0 -10 -3 -6 -6 3 -3 16 1 29 10 12 9 17 16 10 16 -8 0 -10 5 -6 13 4 6 4 9
-1 5 -10 -10 -37 11 -29 23 3 5 3 9 0 9 -3 0 -6 -1 -7 -2z"/>
<path d="M28805 33880 c4 -6 11 -8 16 -5 14 9 11 15 -7 15 -8 0 -12 -5 -9 -10z"/>
<path d="M28575 33824 c-14 -11 -14 -12 0 -18 9 -3 13 -10 10 -16 -11 -17 5
-32 21 -19 8 6 14 8 14 3 0 -5 7 0 16 11 8 11 17 19 19 18 3 -2 13 5 23 15 18
18 17 19 -34 18 -29 0 -60 -6 -69 -12z m20 -4 c-3 -5 -1 -10 4 -10 6 0 11 4
11 9 0 4 13 8 29 7 18 -1 27 -5 24 -13 -3 -7 -9 -11 -13 -8 -5 3 -14 -3 -20
-12 -9 -15 -10 -14 -5 7 6 24 5 24 -10 -2 -16 -29 -28 -38 -19 -14 3 8 0 17
-5 21 -11 6 -6 25 5 25 3 0 2 -4 -1 -10z"/>
<path d="M28563 33780 c5 -18 -3 -25 -25 -21 -4 0 -4 -7 -1 -16 4 -11 8 -13
11 -5 2 7 10 12 17 12 7 0 12 10 11 25 0 14 -5 25 -10 25 -4 0 -6 -9 -3 -20z"/>
<path d="M37232 31737 l-203 -222 63 -7 c126 -15 659 -59 667 -56 9 3 -304
501 -317 505 -4 1 -98 -98 -210 -220z"/>
<path d="M32107 31234 c-3 -3 -20 -7 -39 -10 -70 -9 -101 -16 -117 -24 -9 -4
-43 -21 -76 -36 -92 -43 -175 -95 -175 -110 0 -8 -8 -14 -17 -14 -10 -1 -40
-30 -68 -66 -27 -36 -57 -73 -66 -83 -9 -10 -29 -44 -44 -76 -66 -140 -89
-248 -83 -381 l4 -82 -23 11 c-12 5 -20 15 -16 21 4 7 2 8 -5 1 -10 -9 18
-115 148 -548 20 -65 24 -70 80 -106 127 -82 264 -91 395 -27 39 19 80 45 91
58 12 13 65 153 123 323 l102 300 59 53 c105 93 198 248 235 387 19 70 31 245
20 272 -5 10 -8 21 -7 25 1 4 -5 5 -12 2 -8 -3 -34 6 -59 19 -85 48 -181 76
-279 82 -51 3 -109 8 -129 10 -20 3 -38 2 -42 -1z"/>
<path d="M10659 29887 c-14 -7 -88 -48 -163 -92 l-137 -80 63 -6 c35 -4 72
-10 83 -14 66 -27 949 -535 991 -570 28 -24 69 -67 91 -97 23 -29 936 -1486
2029 -3238 1092 -1752 1995 -3193 2004 -3203 10 -11 183 -113 386 -227 375
-212 430 -249 506 -338 213 -250 284 -671 141 -825 l-28 -30 50 29 c298 170
339 203 367 297 22 71 16 268 -10 362 -47 167 -152 341 -264 439 -31 28 -209
136 -436 264 l-382 217 -1517 2430 c-834 1337 -1560 2500 -1613 2585 -821
1318 -882 1414 -959 1490 -72 72 -99 89 -533 333 -251 142 -472 264 -492 272
-42 18 -141 19 -177 2z"/>
<path d="M10235 28846 c-132 -79 -320 -190 -417 -248 l-177 -104 167 -95 c254
-143 260 -150 567 -649 60 -96 127 -204 151 -240 23 -36 113 -180 199 -320 87
-140 172 -277 190 -305 27 -42 307 -491 708 -1135 50 -80 114 -181 142 -225
29 -44 114 -181 190 -305 76 -124 163 -263 194 -310 30 -47 60 -94 67 -105 14
-26 287 -465 434 -700 156 -248 412 -658 697 -1115 132 -212 289 -463 349
-559 165 -262 236 -377 298 -478 108 -179 147 -235 174 -249 258 -143 752
-430 786 -457 103 -85 224 -291 268 -457 28 -106 31 -280 6 -348 l-16 -43 32
19 c17 10 302 173 634 363 565 322 602 345 582 358 -12 8 -215 123 -453 256
l-432 242 -7 39 c-4 22 -7 96 -7 166 l-1 126 -202 114 -203 113 -3 215 -3 215
-37 18 c-20 11 -112 61 -204 114 l-168 94 0 212 0 212 -198 111 -197 111 -3
214 -3 214 -209 115 -209 115 -1 206 0 206 -206 116 -205 115 1 216 c0 170 -2
216 -12 217 -7 0 -98 49 -203 108 l-190 108 0 218 0 217 -200 113 -200 113 -3
214 -3 213 -204 114 -205 113 0 214 c0 197 -1 214 -17 214 -10 0 -103 49 -208
108 l-190 107 -3 215 -3 215 -37 18 c-20 11 -112 61 -204 114 l-168 94 0 213
0 212 -482 250 c-265 137 -486 250 -492 251 -6 1 -119 -62 -251 -141z"/>
<path d="M8660 28707 c-249 -143 -270 -157 -216 -143 55 14 137 -26 589 -281
252 -142 479 -276 505 -297 26 -21 67 -62 92 -91 25 -30 946 -1497 2048 -3262
l2002 -3208 382 -215 c307 -172 394 -226 445 -274 253 -236 358 -685 208 -882
-22 -28 -4 -20 138 62 89 52 174 109 190 127 15 17 37 56 49 87 30 77 30 250
-1 365 -47 176 -178 388 -293 473 -29 22 -215 130 -413 242 -198 111 -365 207
-372 214 -6 6 -615 979 -1353 2161 -738 1183 -1352 2166 -1364 2185 -13 19
-311 496 -662 1059 -581 932 -646 1032 -714 1100 -72 73 -95 87 -542 339 -258
145 -483 268 -500 273 -18 5 -58 9 -88 9 -47 0 -67 -7 -130 -43z"/>
<path d="M3434 26782 c-121 -75 -221 -141 -222 -147 0 -5 102 -67 227 -136
l227 -125 232 139 c127 77 229 143 227 147 -7 11 -450 260 -461 259 -5 0 -108
-62 -230 -137z"/>
<path d="M4045 26454 c-187 -113 -350 -210 -362 -216 -19 -9 -41 0 -150 60
-70 38 -159 87 -198 107 -38 21 -137 75 -220 121 -82 45 -157 85 -165 89 -13
5 -14 -20 -10 -199 3 -113 8 -207 11 -211 5 -5 104 -59 397 -217 50 -27 90
-53 87 -57 -2 -4 -56 -39 -119 -77 -64 -38 -115 -71 -116 -74 0 -3 104 -62
230 -131 l231 -126 206 124 207 125 64 -35 c35 -19 63 -38 62 -43 0 -5 -121
-82 -268 -170 l-267 -162 -50 28 c-27 16 -193 107 -368 203 l-317 175 2 -716
3 -716 366 -218 366 -218 364 208 364 208 6 979 c6 941 3 1365 -10 1365 -3 0
-159 -93 -346 -206z"/>
<path d="M8470 24924 c-113 -64 -226 -132 -251 -151 -115 -87 -228 -273 -280
-458 -20 -73 -23 -108 -27 -388 l-4 -308 71 35 c39 20 80 36 91 36 11 0 41
-13 68 -30 26 -17 40 -30 30 -30 -19 0 -108 -41 -108 -49 0 -4 -1 -82 -3 -176
l-2 -169 -70 -41 -70 -42 0 -82 0 -83 283 -164 283 -163 384 217 384 217 1
813 c0 469 -4 812 -9 812 -5 0 -133 72 -286 160 -152 88 -277 160 -278 160 -1
-1 -94 -53 -207 -116z m668 -916 c5 -7 12 -72 14 -144 l5 -132 -151 -90 c-83
-50 -151 -90 -152 -89 -1 1 -5 61 -8 133 -7 168 -6 169 151 263 65 39 121 71
124 71 4 0 11 -6 17 -12z"/>
<path d="M6415 23776 c-171 -95 -234 -136 -281 -182 -118 -114 -209 -286 -245
-459 -16 -76 -19 -137 -19 -393 l0 -304 55 31 c68 38 97 39 160 1 46 -27 48
-30 22 -30 -15 0 -46 -10 -67 -22 l-39 -23 -3 -175 -3 -174 -62 -36 -63 -35 0
-65 1 -65 283 -162 283 -163 382 216 381 216 0 394 0 394 38 23 c20 13 175
104 345 201 l307 178 0 169 c0 93 -2 169 -4 169 -2 0 -156 -88 -341 -195 -186
-107 -339 -195 -341 -195 -2 0 -4 109 -4 243 l-1 242 -226 130 c-125 72 -252
144 -283 162 l-55 32 -220 -123z m675 -965 c5 -11 10 -75 10 -143 l0 -123
-148 -87 c-82 -49 -151 -88 -155 -88 -4 0 -7 63 -7 139 0 132 1 141 23 167 27
31 223 152 249 153 10 1 22 -8 28 -18z"/>
<path d="M4355 22587 c-192 -106 -229 -131 -290 -193 -87 -88 -158 -204 -201
-331 -48 -142 -54 -197 -54 -521 l0 -293 70 37 c77 39 90 39 153 1 l38 -23
-38 -12 c-21 -7 -49 -20 -61 -30 -23 -18 -24 -22 -23 -189 l0 -170 -70 -39
-70 -39 3 -64 3 -63 275 -159 c151 -87 281 -159 289 -159 7 0 182 95 387 212
l374 212 0 392 0 393 28 19 c15 10 170 101 345 202 l317 183 0 169 c0 92 -2
168 -5 168 -3 0 -149 -84 -326 -186 -176 -102 -327 -188 -335 -191 -12 -4 -14
31 -14 236 0 133 -4 241 -8 241 -5 0 -134 72 -286 160 -153 88 -278 160 -279
160 -1 0 -101 -55 -222 -123z m655 -966 c5 -11 10 -76 10 -144 l0 -125 -152
-92 -153 -91 -3 135 c-2 106 1 142 13 165 10 20 52 52 132 100 65 38 123 70
130 71 7 0 17 -9 23 -19z"/>
<path d="M2307 21403 c-226 -125 -294 -178 -373 -289 -56 -79 -118 -211 -146
-311 -22 -76 -22 -96 -25 -703 l-3 -625 273 -157 c151 -87 280 -160 288 -163
8 -3 183 91 389 208 339 193 376 216 381 243 4 16 7 196 8 399 l1 370 336 194
c185 107 338 199 340 205 3 7 3 84 2 173 l-3 161 -335 -194 -335 -193 -3 237
-2 238 -281 162 c-154 89 -286 162 -292 162 -7 0 -106 -53 -220 -117z m651
-1098 l2 -140 -146 -88 c-80 -49 -148 -86 -151 -84 -2 3 -7 63 -10 134 -5 123
-4 129 18 161 31 42 225 162 259 159 l25 -2 3 -140z"/>
<path d="M22124 20923 c-134 -82 -142 -89 -183 -154 l-42 -69 -34 14 c-34 15
-35 14 -135 -46 l-100 -61 0 -84 c0 -47 4 -83 8 -81 5 2 149 91 320 198 l312
195 0 88 c0 48 -1 87 -3 87 -2 0 -66 -39 -143 -87z"/>
<path d="M29110 20986 c0 -3 9 -10 20 -16 11 -6 20 -8 20 -6 0 3 -9 10 -20 16
-11 6 -20 8 -20 6z"/>
<path d="M29180 20946 c0 -3 9 -10 20 -16 11 -6 20 -8 20 -6 0 3 -9 10 -20 16
-11 6 -20 8 -20 6z"/>
<path d="M29250 20906 c0 -3 9 -10 20 -16 11 -6 20 -8 20 -6 0 3 -9 10 -20 16
-11 6 -20 8 -20 6z"/>
<path d="M29320 20866 c0 -3 9 -10 20 -16 11 -6 20 -8 20 -6 0 3 -9 10 -20 16
-11 6 -20 8 -20 6z"/>
<path d="M29390 20826 c0 -3 9 -10 20 -16 11 -6 20 -8 20 -6 0 3 -9 10 -20 16
-11 6 -20 8 -20 6z"/>
<path d="M29460 20786 c0 -3 9 -10 20 -16 11 -6 20 -8 20 -6 0 3 -9 10 -20 16
-11 6 -20 8 -20 6z"/>
<path d="M22634 20617 c-144 -89 -269 -168 -277 -176 -9 -7 -51 -69 -93 -137
-85 -137 -71 -129 -168 -93 l-49 18 -188 -115 -189 -116 0 -165 c0 -128 3
-163 13 -157 6 4 285 178 620 387 l607 381 0 168 c0 92 -3 168 -7 168 -5 0
-126 -74 -269 -163z"/>
<path d="M9768 20744 c-51 -27 -58 -57 -58 -237 0 -90 -3 -184 -6 -208 l-6
-44 -147 -81 -146 -81 -8 46 c-8 43 -30 81 -48 81 -5 0 -49 25 -97 55 -49 30
-99 55 -112 55 -18 0 -2306 -1320 -2390 -1379 -14 -10 -37 -42 -52 -71 l-28
-52 0 -268 c0 -155 4 -279 10 -296 8 -22 37 -46 119 -97 60 -37 119 -67 131
-67 27 0 2375 1365 2409 1400 46 49 56 86 61 245 l5 149 70 41 c39 23 106 61
149 85 l79 43 -7 -2059 c-3 -1132 -9 -2330 -12 -2662 l-7 -602 -33 -21 c-18
-11 -42 -35 -53 -53 -20 -31 -22 -67 -42 -679 -23 -729 -26 -690 54 -748 71
-52 141 -71 242 -67 112 4 191 38 231 98 25 37 26 44 25 187 -1 81 -8 381 -16
666 -15 571 -13 556 -81 598 l-32 19 -7 1728 c-18 4169 -19 4215 -35 4240 -31
47 -110 65 -162 36z m-481 -716 c6 -7 13 -90 17 -184 8 -187 2 -218 -45 -260
-34 -30 -2245 -1314 -2262 -1314 -29 0 -34 28 -41 200 -5 155 -4 179 12 214
17 38 66 68 1147 698 622 362 1137 658 1146 658 9 0 21 -6 26 -12z"/>
<path d="M29530 20746 c0 -3 9 -10 20 -16 11 -6 20 -8 20 -6 0 3 -9 10 -20 16
-11 6 -20 8 -20 6z"/>
<path d="M29600 20706 c0 -3 9 -10 20 -16 11 -6 20 -8 20 -6 0 3 -9 10 -20 16
-11 6 -20 8 -20 6z"/>
<path d="M29670 20666 c0 -3 9 -10 20 -16 11 -6 20 -8 20 -6 0 3 -9 10 -20 16
-11 6 -20 8 -20 6z"/>
<path d="M29740 20626 c0 -3 9 -10 20 -16 11 -6 20 -8 20 -6 0 3 -9 10 -20 16
-11 6 -20 8 -20 6z"/>
<path d="M29810 20586 c0 -3 9 -10 20 -16 11 -6 20 -8 20 -6 0 3 -9 10 -20 16
-11 6 -20 8 -20 6z"/>
<path d="M29860 20556 c0 -3 14 -12 30 -21 17 -9 30 -13 30 -11 0 3 -13 12
-30 21 -16 9 -30 13 -30 11z"/>
<path d="M29930 20516 c0 -3 14 -12 30 -21 17 -9 30 -13 30 -11 0 3 -13 12
-30 21 -16 9 -30 13 -30 11z"/>
<path d="M30000 20476 c0 -3 14 -12 30 -21 17 -9 30 -13 30 -11 0 3 -13 12
-30 21 -16 9 -30 13 -30 11z"/>
<path d="M30070 20436 c0 -3 14 -12 30 -21 17 -9 30 -13 30 -11 0 3 -13 12
-30 21 -16 9 -30 13 -30 11z"/>
<path d="M23435 20324 l-220 -94 -105 -110 c-101 -106 -114 -115 -360 -268
l-255 -158 -112 -24 -113 -23 -67 -89 c-67 -88 -71 -91 -260 -210 l-193 -120
0 -175 c0 -147 2 -174 14 -170 8 3 438 270 955 593 l941 587 0 178 c0 99 -1
179 -2 178 -2 0 -102 -43 -223 -95z"/>
<path d="M30140 20396 c0 -3 14 -12 30 -21 17 -9 30 -13 30 -11 0 3 -13 12
-30 21 -16 9 -30 13 -30 11z"/>
<path d="M30210 20356 c0 -3 14 -12 30 -21 17 -9 30 -13 30 -11 0 3 -13 12
-30 21 -16 9 -30 13 -30 11z"/>
<path d="M30280 20316 c0 -3 14 -12 30 -21 17 -9 30 -13 30 -11 0 3 -13 12
-30 21 -16 9 -30 13 -30 11z"/>
<path d="M30350 20276 c0 -3 14 -12 30 -21 17 -9 30 -13 30 -11 0 3 -13 12
-30 21 -16 9 -30 13 -30 11z"/>
<path d="M24155 19749 l-130 -78 -148 -12 -147 -12 -62 -114 c-34 -63 -73
-123 -87 -132 -15 -10 -293 -181 -620 -381 l-594 -362 -166 9 c-91 5 -168 8
-169 7 -2 -1 -13 -49 -23 -106 -11 -57 -22 -113 -24 -125 -3 -14 -34 -39 -90
-73 l-85 -51 0 -180 c0 -98 2 -179 4 -179 2 0 110 63 239 140 l236 140 3 46 3
47 345 219 c190 121 358 232 374 246 16 15 46 64 67 110 39 84 115 202 130
202 4 0 23 -25 41 -55 18 -30 36 -55 40 -55 4 0 28 25 55 55 l48 55 97 0 c79
0 106 -4 142 -21 l44 -22 298 177 c165 98 302 181 307 185 4 4 6 96 5 203 l-3
196 -130 -79z"/>
<path d="M24154 19132 l-251 -167 73 -34 c69 -32 76 -38 107 -95 19 -34 38
-60 43 -59 5 2 73 49 152 105 l142 102 0 158 c0 87 -3 158 -7 157 -5 0 -121
-76 -259 -167z"/>
<path d="M24723 18757 c-105 -62 -188 -115 -185 -119 4 -3 81 -47 172 -98 159
-88 166 -91 190 -76 l25 15 3 195 c1 108 -1 196 -5 196 -5 0 -94 -51 -200
-113z"/>
<path d="M26980 16411 c0 -2363 0 -2400 -19 -2413 -13 -9 -22 -31 -26 -64 l-6
-49 3345 -1937 3345 -1937 943 551 c518 303 950 551 958 552 9 1 669 379 1468
840 l1452 839 0 218 0 218 -152 -88 c-84 -49 -286 -166 -448 -259 l-295 -171
-3 205 c-1 124 -6 204 -12 204 -9 0 -1118 -639 -1145 -660 -5 -4 -595 329
-1310 741 l-1300 748 -5 575 -5 575 -73 -45 -73 -45 -75 45 -74 45 -2 -467 -3
-468 -3167 1831 c-1742 1006 -3167 1833 -3168 1836 0 3 32 20 70 39 l70 34 0
453 c0 249 -2 453 -5 453 -2 0 -34 -18 -70 -40 -36 -22 -67 -40 -70 -40 -3 0
-34 18 -70 40 -36 22 -68 40 -70 40 -3 0 -5 -1080 -5 -2399z m1017 181 c389
-224 732 -421 761 -437 l52 -28 0 -374 c0 -370 0 -374 -20 -368 -20 6 -20 2
-20 -189 0 -177 2 -195 18 -200 16 -5 17 -61 14 -1013 -2 -554 -5 -1009 -6
-1011 -2 -1 -30 12 -62 31 -33 19 -79 46 -104 59 -25 14 -328 188 -675 386
l-630 360 -5 196 c-4 170 -7 194 -20 186 -8 -5 -18 -10 -22 -10 -5 0 -8 635
-8 1410 0 854 4 1410 9 1410 5 0 328 -184 718 -408z m1198 -691 c137 -79 331
-191 430 -249 99 -57 299 -172 444 -256 145 -83 266 -159 270 -168 3 -9 5
-176 3 -370 -2 -340 -3 -354 -22 -354 -10 0 -17 3 -14 7 6 11 -195 121 -208
113 -7 -4 -8 -3 -4 4 7 11 -6 17 -27 13 -5 -1 -6 2 -3 7 4 8 -205 129 -213
123 -2 -1 -7 1 -10 7 -13 19 -101 63 -112 56 -7 -4 -9 -3 -6 3 4 6 -158 104
-386 234 -215 122 -400 229 -409 237 -17 14 -18 45 -18 383 0 344 1 368 17
362 10 -4 130 -72 268 -152z m1988 -1146 l696 -400 1 -367 0 -367 -127 73
c-71 40 -153 87 -183 103 -30 16 -71 39 -90 51 -19 12 -39 21 -44 21 -5 -1
-12 3 -15 9 -10 14 -218 132 -240 135 -11 2 -24 7 -28 12 -5 4 -2 5 5 1 6 -4
12 -5 12 -2 0 11 -78 45 -85 38 -5 -4 -6 -2 -2 3 5 10 -259 162 -275 158 -4
-2 -8 2 -8 7 0 6 -17 18 -37 28 -21 9 -42 21 -48 25 -5 5 -66 41 -135 80
l-125 72 -3 363 c-2 351 -2 363 17 360 10 -2 332 -183 714 -403z m-1922 -32
c178 -103 332 -187 341 -187 9 0 15 -3 12 -7 -2 -4 160 -101 361 -215 l364
-209 -6 -1010 c-3 -555 -7 -1011 -7 -1012 -1 -1 -323 187 -715 419 l-714 422
7 85 c3 47 9 494 12 994 4 499 10 907 14 907 4 0 153 -84 331 -187z m2830
-490 c8 -7 18 -13 22 -13 3 0 72 -39 154 -86 81 -47 168 -98 193 -112 56 -32
434 -249 730 -420 l225 -129 -4 -359 c-1 -198 -4 -360 -5 -360 0 -1 -154 86
-341 192 -187 107 -351 200 -365 208 -14 7 -81 46 -150 85 -68 40 -129 73
-135 74 -5 1 -12 5 -15 9 -13 17 -133 77 -143 71 -7 -3 -9 -3 -5 2 8 8 -44 43
-167 109 -117 64 -106 17 -105 433 l1 363 47 -27 c26 -14 54 -32 63 -40z
m-1481 -286 c58 -33 110 -60 117 -60 7 0 11 -3 8 -5 -9 -9 165 -103 177 -96 6
4 8 3 5 -3 -3 -5 209 -133 471 -284 l477 -275 3 -1017 c1 -559 -1 -1017 -5
-1017 -5 0 -24 10 -43 21 -39 24 -207 124 -885 524 -258 152 -475 282 -481
288 -7 9 -8 223 -3 727 4 393 8 842 8 998 l1 283 23 -12 c12 -7 69 -39 127
-72z m4488 -1187 c694 -403 1261 -734 1260 -735 -12 -9 -808 -466 -819 -470
-9 -3 -379 202 -889 493 l-875 499 -3 492 -2 493 32 -19 c18 -10 601 -349
1296 -753z m-2973 314 c65 -37 120 -62 126 -58 7 4 9 3 6 -3 -6 -9 259 -171
287 -176 6 -1 16 -7 22 -13 6 -5 199 -118 429 -250 l416 -239 -3 -987 c-2
-542 -6 -989 -10 -993 -3 -4 -93 45 -200 108 -106 63 -209 124 -228 134 -19
11 -66 39 -105 62 -86 51 -34 21 -460 272 -198 117 -374 221 -392 231 l-32 19
5 577 c6 770 15 1382 21 1382 2 0 55 -30 118 -66z"/>
<path d="M24085 18500 c-124 -78 -144 -94 -177 -146 -21 -33 -39 -63 -41 -68
-2 -5 -20 -3 -40 3 -37 13 -40 12 -132 -44 l-95 -56 0 -85 c0 -65 3 -84 13
-78 6 4 148 92 315 196 l302 190 0 89 c0 49 -1 89 -2 88 -2 0 -66 -40 -143
-89z"/>
<path d="M24622 18247 l-274 -172 -74 -119 c-40 -66 -78 -124 -83 -129 -6 -6
-30 -1 -65 12 -31 12 -64 21 -72 21 -20 0 -365 -210 -370 -225 -3 -6 -3 -81
-2 -167 l3 -156 610 383 610 383 3 171 c1 94 -1 171 -5 170 -5 0 -131 -78
-281 -172z"/>
<path d="M25152 17672 l-392 -228 -263 -78 -263 -78 -55 -106 -54 -105 -259
-148 c-142 -82 -262 -149 -267 -149 -5 0 -9 -81 -9 -181 0 -168 1 -181 18
-174 9 3 269 138 577 299 530 276 567 297 692 394 127 99 136 104 240 135 105
32 109 34 138 78 24 39 50 58 167 124 l138 79 0 183 c0 101 -3 183 -7 182 -5
0 -185 -102 -401 -227z"/>
<path d="M21604 17696 c-105 -66 -123 -81 -153 -131 -34 -56 -39 -58 -81 -41
-9 3 -48 -14 -95 -42 l-80 -48 -3 -73 c-2 -40 1 -71 6 -69 5 1 126 77 270 167
l262 163 0 74 c0 41 -1 74 -3 74 -2 0 -57 -33 -123 -74z"/>
<path d="M21370 17280 l-375 -219 -8 -136 c-5 -75 -6 -139 -3 -142 3 -3 179
97 391 223 l385 228 0 133 c0 73 -3 133 -7 132 -5 0 -177 -99 -383 -219z"/>
<path d="M18370 17313 l0 -109 121 -59 c107 -53 129 -69 189 -133 l68 -72 204
-84 c447 -184 693 -297 1130 -519 334 -169 458 -237 458 -249 0 -53 -75 -303
-119 -393 -86 -179 -152 -251 -329 -356 -48 -29 -106 -66 -130 -83 l-43 -30
102 -51 102 -52 -74 -45 c-41 -25 -108 -66 -149 -91 -72 -44 -77 -50 -125
-138 l-50 -93 -96 -42 c-61 -27 -123 -46 -175 -54 -139 -20 -124 2 -124 -181
0 -87 3 -159 6 -159 4 0 179 102 390 226 l384 226 0 45 c0 55 -10 57 170 -29
l136 -65 44 40 c60 52 280 210 294 210 6 0 63 -20 126 -45 151 -60 350 -123
469 -149 138 -30 523 -38 701 -15 285 38 492 116 639 243 27 24 81 84 119 135
236 315 307 579 385 1424 l3 31 -341 150 -340 150 -7 -56 c-4 -31 -14 -121
-23 -201 -43 -382 -135 -742 -249 -967 -78 -155 -205 -219 -476 -238 -161 -11
-300 36 -503 171 -84 56 -98 69 -93 88 3 11 15 80 27 151 11 72 26 161 32 199
l12 69 210 112 c190 102 228 118 399 171 l188 59 29 56 c27 54 32 59 129 108
l100 52 0 99 0 98 66 37 c36 20 64 38 62 40 -2 1 -103 46 -225 100 l-222 97
-503 -296 c-277 -164 -508 -303 -513 -311 -6 -7 -22 -95 -35 -194 -13 -100
-27 -181 -32 -181 -5 0 -574 284 -1264 631 l-1254 631 0 -109z"/>
<path d="M3376 17033 c3 -12 -97 -134 -321 -392 -291 -334 -324 -375 -308
-386 10 -6 43 -26 73 -43 53 -29 56 -30 67 -13 13 21 456 532 572 660 42 46
76 88 76 94 0 6 -37 31 -82 54 -64 35 -80 40 -77 26z"/>
<path d="M3584 16927 c1 -15 -89 -124 -428 -514 -125 -145 -227 -265 -225
-266 2 -1 15 -8 29 -16 14 -8 44 -26 68 -39 l43 -24 22 28 c20 26 133 155 519
592 76 86 135 159 130 163 -4 3 -41 25 -83 48 -49 26 -76 36 -75 28z"/>
<path d="M3610 16592 c-107 -124 -260 -299 -339 -389 -79 -91 -139 -168 -135
-172 20 -18 144 -81 144 -74 0 4 30 42 68 85 431 489 597 681 600 691 1 7 -30
28 -70 48 l-73 36 -195 -225z"/>
<path d="M3750 16406 c-146 -167 -284 -325 -306 -352 -23 -27 -58 -67 -78 -89
l-36 -40 22 -15 c45 -32 138 -81 136 -72 -2 5 149 184 335 397 186 213 334
391 330 396 -4 4 -37 23 -73 43 l-66 35 -264 -303z"/>
<path d="M4204 16596 c0 -7 -151 -188 -337 -401 l-338 -388 77 -45 78 -45 17
22 c9 11 162 189 339 395 178 206 323 377 324 380 0 4 -36 26 -80 51 -49 26
-81 39 -80 31z"/>
<path d="M4410 16480 c0 -6 -150 -184 -332 -395 -183 -212 -334 -389 -336
-393 -1 -4 24 -22 56 -39 l58 -32 329 397 c182 218 331 402 333 409 2 6 -19
23 -47 38 -56 28 -61 29 -61 15z"/>
<path d="M4275 15989 c-209 -253 -387 -466 -395 -474 -14 -12 -97 33 -675 370
-363 211 -661 382 -662 381 -2 -2 0 -23 3 -47 l6 -44 535 -315 c356 -209 543
-325 558 -345 13 -16 98 -140 189 -275 l167 -245 -6 -1160 c-3 -638 -8 -1607
-11 -2153 l-6 -994 -43 -18 c-100 -43 -159 -134 -136 -210 59 -199 469 -232
581 -47 27 43 27 121 0 164 -20 34 -94 93 -115 93 -7 0 -17 6 -23 13 -7 8 -14
824 -22 2563 l-12 2552 226 272 226 272 0 54 c0 30 -1 54 -2 53 -2 0 -174
-207 -383 -460z m-275 -599 c0 -82 -3 -150 -7 -150 -5 0 -32 37 -61 81 l-53
80 58 69 c31 39 58 70 60 70 2 0 3 -67 3 -150z"/>
<path d="M14855 15805 c-415 -233 -606 -346 -644 -380 -101 -92 -194 -238
-231 -362 -15 -49 -20 -51 -40 -23 -8 11 -18 20 -23 20 -9 0 -102 58 -190 119
-21 14 -45 31 -55 36 -9 6 -85 55 -169 110 -84 55 -222 145 -308 200 -281 180
-370 239 -373 247 -2 4 -9 8 -16 8 -7 0 -31 14 -54 31 -23 17 -42 27 -42 22 0
-4 -4 -3 -8 4 -12 19 -222 154 -231 149 -5 -3 -19 -47 -32 -98 -22 -84 -24
-114 -24 -322 l0 -229 165 -90 c195 -106 301 -147 382 -147 55 0 59 2 120 56
35 31 80 65 100 75 109 56 272 -15 389 -169 28 -37 85 -136 126 -220 66 -135
74 -156 65 -178 -7 -13 -16 -24 -22 -24 -5 0 -10 -6 -10 -12 0 -7 -13 -28 -28
-46 l-28 -34 -58 124 c-103 216 -176 308 -261 324 -42 7 -73 -9 -153 -80 -69
-61 -98 -71 -204 -68 -94 2 -167 29 -368 136 -96 52 -185 99 -197 105 l-23 12
0 -189 0 -189 753 -441 c414 -242 759 -444 768 -447 9 -3 308 160 760 416 409
231 747 424 752 428 4 4 6 334 5 733 l-3 725 -590 -332z m439 -614 c-10 -17
-22 -31 -26 -31 -4 0 -21 -27 -39 -60 -17 -33 -36 -60 -40 -60 -5 0 -9 -5 -9
-11 0 -7 -16 -31 -35 -55 -19 -23 -35 -46 -35 -51 0 -28 -75 -78 -315 -209
-148 -81 -400 -219 -560 -306 l-290 -157 -3 111 c-1 61 1 115 5 119 4 4 199
112 433 240 234 128 538 294 675 369 138 76 252 136 253 134 2 -1 -4 -16 -14
-33z"/>
<path d="M19507 15393 c-99 -63 -123 -84 -153 -130 -36 -57 -36 -57 -94 -40
-3 1 -42 -21 -87 -48 l-83 -50 0 -73 0 -74 33 21 c17 11 139 87 269 168 l237
148 1 78 c0 42 -1 77 -2 76 -2 0 -56 -35 -121 -76z"/>
<path d="M20630 14530 l-125 -26 -43 -69 c-23 -39 -50 -77 -60 -86 -9 -9 -79
-53 -156 -98 l-138 -81 -102 0 -102 0 -41 -85 -42 -84 -146 -86 -145 -86 -1
-172 c0 -95 0 -200 1 -234 1 -46 -2 -63 -12 -63 -10 0 -9 -3 2 -10 12 -8 10
-10 -8 -10 -13 0 -21 3 -19 8 3 4 -5 7 -18 7 -14 0 -21 -5 -18 -12 3 -7 9 -11
13 -8 5 3 12 0 15 -6 4 -5 13 -8 21 -5 16 6 28 -10 19 -25 -5 -7 -14 -4 -26 7
-10 9 -19 13 -19 9 0 -4 -9 0 -20 10 -11 10 -20 15 -20 11 0 -4 -9 -2 -21 4
-17 10 -18 14 -7 27 12 15 11 15 -9 5 -13 -7 -24 -8 -27 -3 -4 5 -14 8 -24 7
-15 -3 -22 -48 -60 -382 -24 -208 -47 -388 -52 -399 -5 -13 -249 -156 -679
-399 l-671 -380 2 -200 3 -200 760 -453 c418 -249 768 -460 778 -469 11 -8 24
-13 30 -9 7 3 363 211 792 463 l780 457 21 210 c12 116 21 211 20 211 0 1
-242 142 -536 314 -294 172 -538 315 -542 319 -9 8 124 1110 137 1131 2 3 40
19 84 35 l81 29 0 52 0 53 55 33 54 33 1 101 0 101 159 97 159 96 6 43 c10 75
28 288 25 291 -2 1 -60 -10 -129 -24z m-1454 -2512 c-18 -136 -28 -260 -20
-268 5 -4 83 -47 173 -95 l165 -87 30 16 c17 9 114 72 216 139 l185 122 12
100 c6 55 12 101 12 102 1 2 25 -7 54 -18 135 -53 278 -173 331 -278 l27 -52
-23 -47 c-37 -77 -149 -180 -253 -234 -172 -88 -325 -123 -545 -123 -263 0
-462 57 -635 180 -76 54 -105 85 -149 159 l-36 59 37 69 c59 113 201 224 361
283 61 22 65 20 58 -27z"/>
<path d="M34775 14200 c10 -11 20 -20 23 -20 3 0 -3 9 -13 20 -10 11 -20 20
-23 20 -3 0 3 -9 13 -20z"/>
<path d="M18280 14104 c0 -9 5 -12 12 -8 6 4 16 0 22 -8 13 -17 44 -30 49 -20
2 4 -15 17 -39 29 -36 18 -44 20 -44 7z"/>
<path d="M18465 14001 c28 -10 54 -16 59 -13 12 7 -30 23 -74 27 -32 4 -30 2
15 -14z"/>
<path d="M18388 14003 c7 -3 16 -2 19 1 4 3 -2 6 -13 5 -11 0 -14 -3 -6 -6z"/>
<path d="M18625 13921 c28 -10 54 -16 59 -13 12 7 -30 23 -74 27 -32 4 -30 2
15 -14z"/>
<path d="M18548 13923 c7 -3 16 -2 19 1 4 3 -2 6 -13 5 -11 0 -14 -3 -6 -6z"/>
<path d="M18410 13910 c12 -8 10 -10 -10 -11 -14 -1 -34 -2 -45 -1 -15 0 -13
-2 8 -12 15 -7 24 -16 20 -20 -4 -4 1 -4 11 0 14 5 15 9 4 15 -10 7 -9 9 3 9
9 0 20 -7 23 -16 3 -8 11 -12 17 -8 8 4 9 -1 4 -16 -5 -14 -3 -20 3 -16 6 3
13 0 15 -6 4 -10 6 -10 6 0 1 7 6 10 12 6 8 -5 8 -1 0 13 -6 11 -7 23 -3 27 3
4 -2 4 -12 0 -14 -5 -17 -4 -12 4 4 7 3 12 -3 12 -5 0 -11 -6 -14 -12 -3 -7
-4 -3 -4 8 1 15 6 20 16 16 9 -3 12 -1 7 6 -4 7 -19 12 -34 12 -21 0 -24 -2
-12 -10z"/>
<path d="M18785 13841 c28 -10 54 -16 59 -13 12 7 -30 23 -74 27 -32 4 -30 2
15 -14z"/>
<path d="M18708 13843 c7 -3 16 -2 19 1 4 3 -2 6 -13 5 -11 0 -14 -3 -6 -6z"/>
<path d="M18570 13830 c12 -8 10 -10 -10 -11 -14 -1 -34 -2 -45 -1 -15 0 -13
-2 8 -12 15 -7 24 -16 20 -20 -4 -4 1 -4 11 0 14 5 15 9 4 15 -10 7 -9 9 3 9
9 0 20 -7 23 -16 3 -8 10 -12 16 -9 14 9 13 -8 -2 -23 -9 -9 -9 -12 1 -12 11
0 11 -3 2 -14 -9 -11 -9 -20 -2 -34 6 -11 8 -22 5 -24 -3 -3 2 -8 10 -11 10
-4 13 -1 9 9 -3 7 -1 14 4 14 5 0 10 7 10 15 0 8 -4 12 -9 9 -4 -3 -8 0 -8 5
0 6 6 11 13 11 7 0 5 5 -5 11 -10 5 -15 16 -11 25 5 13 7 13 14 2 6 -9 8 -6 7
9 -2 14 -7 19 -17 15 -9 -3 -12 -1 -7 6 4 7 3 12 -3 12 -5 0 -11 -6 -14 -12
-3 -7 -4 -3 -4 8 1 15 6 20 16 16 9 -3 12 -1 7 6 -4 7 -19 12 -34 12 -21 0
-24 -2 -12 -10z m47 -117 c1 -22 -1 -24 -8 -10 -6 9 -7 22 -4 27 9 14 10 13
12 -17z"/>
<path d="M18945 13761 c28 -10 54 -16 59 -13 12 7 -30 23 -74 27 -32 4 -30 2
15 -14z"/>
<path d="M18868 13763 c7 -3 16 -2 19 1 4 3 -2 6 -13 5 -11 0 -14 -3 -6 -6z"/>
<path d="M19105 13681 c28 -10 54 -16 59 -13 12 7 -30 23 -74 27 -32 4 -30 2
15 -14z"/>
<path d="M19028 13683 c7 -3 16 -2 19 1 4 3 -2 6 -13 5 -11 0 -14 -3 -6 -6z"/>
<path d="M18669 13676 c-6 -7 -5 -35 1 -31 5 3 10 2 13 -2 2 -5 3 -3 1 3 -1 6
2 16 7 21 6 6 4 10 -6 10 -8 0 -15 -1 -16 -1z"/>
<path d="M18709 13663 c-13 -16 -12 -17 4 -4 15 12 17 11 17 -3 0 -9 -8 -16
-17 -16 -11 0 -3 -8 17 -19 38 -21 51 -19 49 7 -1 15 -2 14 -6 -1 -5 -18 -5
-18 -18 -1 -11 15 -9 20 8 34 17 14 17 17 4 17 -10 0 -17 -5 -17 -10 0 -5 -6
-4 -14 2 -10 9 -17 7 -27 -6z"/>
<path d="M18785 13650 c3 -5 8 -10 11 -10 2 0 4 5 4 10 0 6 -5 10 -11 10 -5 0
-7 -4 -4 -10z"/>
<path d="M18854 13588 c-5 -8 3 -12 20 -9 4 1 14 -3 21 -9 9 -8 15 -8 20 0 3
5 -1 10 -9 10 -9 0 -16 4 -16 8 0 5 -7 9 -15 9 -9 0 -18 -4 -21 -9z"/>
<path d="M18939 13598 c-4 -15 -6 -50 -3 -41 4 10 10 9 21 -3 15 -14 17 -14
25 0 5 9 16 16 24 16 8 0 13 -4 10 -8 -3 -5 1 -9 7 -9 7 0 13 11 13 24 0 15
-3 20 -10 13 -5 -5 -17 -10 -25 -10 -14 0 -14 1 -1 10 12 7 10 9 -7 8 -14 -2
-20 -8 -18 -20 5 -22 -2 -23 -21 -4 -11 11 -11 16 -1 19 9 4 9 6 0 6 -7 1 -13
0 -14 -1z"/>
<path d="M35455 13560 c10 -11 20 -20 23 -20 3 0 -3 9 -13 20 -10 11 -20 20
-23 20 -3 0 3 -9 13 -20z"/>
<path d="M6710 11172 c0 -2272 -1 -2400 -17 -2414 -10 -8 -306 -180 -658 -383
-352 -202 -646 -373 -652 -379 -10 -9 741 -449 3140 -1841 1733 -1006 3175
-1843 3204 -1860 l52 -31 -452 -262 -452 -261 -5 209 -5 208 -576 -334 -577
-334 -83 46 c-46 25 -88 50 -94 54 -5 4 -131 77 -280 163 -226 129 -394 226
-645 370 -19 11 -64 37 -100 57 -61 35 -228 131 -525 302 -71 41 -204 118
-295 170 -91 52 -189 109 -218 127 -29 17 -55 31 -58 31 -2 0 -37 20 -77 44
-39 24 -106 62 -147 86 -41 23 -88 50 -105 60 -16 10 -106 61 -200 115 -93 54
-185 106 -202 116 -18 11 -48 27 -65 38 -18 10 -150 86 -293 168 -143 82 -366
211 -496 286 -251 144 -288 166 -359 205 -25 13 -49 28 -55 32 -5 4 -165 97
-355 205 -467 268 -529 304 -570 328 -19 11 -64 37 -100 57 -36 20 -110 63
-165 95 -55 32 -129 75 -165 95 -36 20 -139 80 -230 132 -91 52 -271 156 -400
230 -129 74 -275 158 -324 187 -49 28 -90 51 -92 51 -2 0 -4 -89 -4 -197 l1
-198 3339 -1940 c1837 -1067 3340 -1942 3340 -1945 -1 -8 -811 -473 -824 -473
-6 0 -1527 864 -3381 1921 l-3370 1921 -3 -196 c-1 -108 -1 -197 0 -198 12
-11 6749 -3885 6755 -3885 4 0 661 377 1458 838 1293 747 1450 840 1453 864 3
22 103 84 880 538 l877 512 -3 52 c-3 34 -11 58 -24 73 l-20 22 7 2406 8 2406
-77 -46 -76 -46 -75 45 -75 45 -2 -468 -3 -468 -3110 1799 c-1710 989 -3137
1813 -3169 1832 l-60 34 72 38 72 39 0 453 c0 248 -2 452 -5 452 -2 0 -34 -18
-70 -40 -36 -22 -68 -40 -72 -40 -3 0 -34 18 -69 40 -35 22 -66 40 -69 40 -3
0 -5 -1079 -5 -2398z m1090 752 c72 -42 141 -89 155 -106 25 -29 25 -32 25
-217 0 -194 -3 -211 -43 -211 -34 0 -287 159 -308 194 -17 27 -19 51 -19 205
0 148 2 177 17 193 9 10 22 18 30 18 8 0 72 -34 143 -76z m-452 -352 c180
-103 522 -300 760 -437 l432 -250 -1 -1505 c-1 -828 -4 -1538 -8 -1578 l-6
-73 -710 420 -710 420 -3 56 c-3 55 -3 56 -52 83 l-50 27 0 1513 c0 1009 3
1512 10 1512 6 0 157 -85 338 -188z m905 107 c67 -39 136 -84 152 -100 l30
-29 3 -177 c2 -97 1 -187 -2 -200 -12 -47 -44 -39 -190 47 -94 56 -143 91
-156 113 -18 29 -20 51 -20 209 0 147 3 179 16 192 8 9 22 16 30 16 9 0 70
-32 137 -71z m1128 -1281 l695 -401 -4 -1476 c-2 -812 -7 -1522 -10 -1578 l-7
-102 -707 417 -707 417 -1 1573 0 1573 23 -12 c12 -6 335 -191 718 -411z
m1527 -879 c665 -383 758 -439 721 -426 -15 5 -17 -128 -21 -1564 -3 -863 -7
-1572 -11 -1575 -3 -3 -323 182 -711 412 l-706 417 0 1569 c0 1401 2 1568 15
1568 9 0 329 -181 713 -401z m1552 -892 c459 -265 686 -391 688 -381 3 11 8
11 28 -2 l24 -16 0 -1552 -1 -1551 -23 -17 c-23 -17 -26 -16 -187 80 -90 54
-415 246 -721 427 l-558 330 0 1552 c0 854 -3 1553 -7 1553 -5 0 -19 10 -33
21 -41 33 69 -29 790 -444z"/>
<path d="M19133 13505 c-13 -9 -13 -14 -3 -20 9 -5 11 -4 6 3 -11 19 5 14 21
-5 7 -10 13 -13 12 -8 -3 25 2 34 22 32 19 -1 19 -2 3 -14 -16 -12 -15 -13 10
-13 26 0 27 -2 15 -17 -13 -16 -12 -17 4 -4 15 12 17 11 17 -7 0 -12 5 -24 10
-27 6 -4 10 -3 9 2 -4 22 2 25 17 7 14 -18 15 -18 4 4 -6 12 -16 20 -22 16 -6
-4 -9 -1 -6 7 3 8 10 13 15 12 5 -1 10 9 11 23 1 19 -3 23 -22 22 -14 -1 -24
-6 -23 -11 1 -5 -4 -12 -11 -14 -7 -3 -11 1 -10 8 4 17 -57 20 -79 4z"/>
<path d="M19305 13420 c5 -25 15 -40 15 -22 0 7 5 12 11 12 5 0 7 -6 3 -12 -4
-7 -3 -10 1 -5 5 4 19 0 32 -8 13 -9 23 -11 23 -5 0 5 -5 10 -11 10 -6 0 -8 7
-5 16 5 13 4 14 -7 6 -17 -14 -31 -3 -17 13 7 8 5 12 -5 12 -8 0 -12 -4 -9 -9
8 -12 -10 -10 -24 4 -9 9 -10 6 -7 -12z"/>
<path d="M19404 13432 c-6 -4 -4 -13 7 -24 15 -14 18 -15 23 -1 10 26 -7 41
-30 25z"/>
<path d="M19425 13350 c3 -5 8 -10 11 -10 2 0 4 5 4 10 0 6 -5 10 -11 10 -5 0
-7 -4 -4 -10z"/>
<path d="M27520 11771 c-19 -10 -1057 -603 -2305 -1317 -1249 -715 -2284
-1306 -2300 -1314 -16 -9 -39 -30 -51 -47 l-21 -31 -6 -1569 c-4 -862 -10
-2196 -14 -2963 l-6 -1395 -38 -27 c-76 -54 -71 -22 -90 -607 -23 -666 -23
-774 -5 -809 20 -38 52 -65 116 -98 50 -27 64 -29 160 -29 89 0 113 4 158 24
56 25 108 76 118 116 10 41 -26 1306 -38 1338 -6 15 -28 43 -50 61 l-39 34
-11 2414 -11 2415 766 974 766 974 904 518 c497 284 907 517 911 517 4 0 6
-35 4 -77 l-3 -77 -270 -155 c-385 -223 -369 -194 -359 -653 4 -190 11 -316
18 -330 16 -30 254 -178 289 -178 31 0 1442 802 1489 847 14 14 39 53 54 86
l28 62 -3 309 c-2 205 -6 320 -14 344 -10 30 -29 45 -142 113 -71 44 -140 79
-153 79 -12 0 -133 -63 -267 -140 -134 -77 -249 -140 -255 -140 -6 0 -10 30
-10 74 l0 73 383 218 c210 119 392 228 405 242 41 44 26 113 -29 132 -41 14
-38 14 -79 -8z m-787 -802 c-4 -4 -44 -28 -88 -53 l-80 -46 -7 48 c-14 102
-17 96 85 156 l92 54 3 -75 c2 -42 -1 -80 -5 -84z m810 -4 c17 -17 31 -222 26
-375 -3 -79 -8 -100 -27 -127 -16 -23 -191 -128 -678 -407 -361 -207 -664
-376 -675 -376 -10 0 -22 8 -27 18 -5 9 -12 110 -16 223 -8 233 -4 256 55 303
41 32 1299 754 1316 755 6 1 18 -6 26 -14z m-3290 -1283 c-15 -21 -282 -361
-593 -756 l-565 -718 -6 113 c-4 63 -7 248 -8 411 l-1 298 23 15 c26 17 1170
674 1175 674 2 1 -9 -16 -25 -37z"/>
<path d="M34377 8384 c-103 -228 -187 -425 -187 -437 0 -27 60 -360 66 -366 2
-3 23 13 47 35 23 22 78 73 122 115 44 41 95 87 113 101 l32 27 -21 88 -22 88
20 380 c11 209 19 381 18 382 0 1 -85 -185 -188 -413z"/>
<path d="M29510 8429 c-386 -226 -631 -375 -657 -401 -23 -22 -54 -68 -70
-102 l-28 -61 3 -1664 c3 -1381 6 -1670 17 -1697 8 -20 32 -44 61 -62 l47 -30
-71 -41 c-39 -23 -78 -51 -87 -63 -18 -27 -21 -193 -3 -233 13 -29 29 -40 318
-208 120 -70 236 -131 263 -138 26 -6 76 -9 111 -7 60 5 81 16 651 343 325
185 600 348 613 361 20 22 22 35 22 122 0 77 -4 103 -19 127 -12 21 -75 63
-205 138 -102 60 -186 110 -186 112 0 2 28 19 63 38 80 45 129 97 164 172 l28
60 2 1200 c2 660 0 1420 -5 1688 l-7 489 -30 25 c-16 14 -92 63 -169 109 -108
66 -146 84 -175 83 -29 0 -156 -70 -651 -360z m868 -101 c17 -17 15 -161 -2
-201 -19 -46 -43 -64 -216 -164 -85 -49 -289 -168 -454 -263 -272 -158 -302
-174 -340 -171 -22 2 -74 4 -113 5 l-73 1 0 32 c0 85 34 120 220 229 80 46
321 188 535 314 215 126 399 229 411 229 11 1 25 -4 32 -11z m6 -480 c12 -19
15 -224 21 -1295 7 -1248 6 -1272 -13 -1315 -10 -23 -30 -53 -43 -65 -24 -21
-1068 -634 -1102 -646 -12 -5 -26 1 -43 18 l-24 24 -2 1083 c-2 596 -3 1173
-3 1284 l0 201 30 47 c29 45 57 64 575 366 300 175 555 319 567 319 13 1 29
-9 37 -21z"/>
<path d="M15780 8226 c-80 -49 -140 -93 -147 -107 -9 -18 -14 -381 -19 -1439
-6 -1296 -6 -1420 9 -1471 26 -88 72 -148 144 -189 34 -19 61 -39 60 -44 -2
-5 -68 -47 -148 -93 -197 -115 -190 -108 -191 -227 -1 -71 3 -101 13 -111 8
-8 244 -145 524 -306 507 -291 510 -292 577 -297 38 -2 82 1 104 8 54 18 445
247 472 276 19 22 22 36 22 118 0 105 -2 109 -94 162 l-49 28 24 15 c13 9 35
26 49 38 l25 21 8 939 c4 516 6 1170 5 1453 -3 514 -3 515 -26 566 -13 28 -40
67 -60 87 -57 54 -1100 657 -1137 657 -20 -1 -76 -29 -165 -84z m341 -489
c576 -335 631 -369 650 -401 18 -29 34 -84 27 -91 -1 -2 -48 -7 -103 -12
l-100 -10 -260 151 c-143 82 -323 186 -399 230 -77 45 -148 94 -160 109 -15
21 -22 47 -24 103 -4 78 5 104 37 104 9 0 159 -82 332 -183z m-283 -242 c26
-13 243 -138 482 -278 388 -227 437 -258 457 -293 l23 -39 0 -1097 c0 -663 -4
-1107 -9 -1121 -6 -14 -19 -28 -30 -32 -15 -4 -141 64 -488 266 -257 149 -476
279 -487 288 -53 46 -50 -14 -47 1181 2 943 5 1108 17 1128 18 28 24 28 82 -3z"/>
<path d="M34151 7049 c-221 -436 -400 -793 -399 -794 9 -7 492 182 499 195 11
21 312 1381 306 1386 -2 3 -185 -352 -406 -787z"/>
<path d="M33387 7345 c-50 -17 -54 -22 -38 -47 7 -12 13 -41 13 -65 -1 -47
-47 -232 -61 -246 -10 -10 -197 -43 -298 -53 -40 -4 -73 -10 -73 -13 0 -3 105
-38 233 -77 l232 -71 55 48 c30 27 102 93 159 146 l104 98 -124 148 c-132 156
-133 157 -202 132z"/>
<path d="M36296 7010 c5 -5 180 -74 389 -153 209 -80 401 -153 427 -164 l47
-18 -379 -864 c-209 -475 -380 -868 -380 -873 0 -5 35 22 78 59 109 96 210
169 277 199 52 24 60 25 96 14 48 -16 101 1 132 42 l20 27 -22 208 c-12 114
-21 216 -21 226 0 15 10 17 73 17 l72 0 147 433 148 432 -6 95 -7 95 -396 84
c-218 47 -465 99 -550 117 -84 18 -149 28 -145 24z"/>
<path d="M35861 6640 c-231 -199 -421 -366 -421 -372 0 -6 43 -257 95 -558 52
-301 95 -550 95 -553 0 -3 -31 -22 -69 -43 l-69 -37 -37 -196 c-20 -108 -40
-207 -44 -221 -5 -16 -37 -45 -92 -82 -94 -63 -344 -208 -359 -208 -6 0 -10
81 -10 211 l0 210 -147 -77 c-82 -42 -167 -88 -189 -101 l-42 -24 -103 116
-103 115 -228 0 c-211 0 -228 -1 -228 -17 1 -10 15 -120 33 -245 l33 -227 194
-175 c107 -96 196 -178 197 -183 1 -4 -256 -154 -572 -332 -316 -178 -579
-327 -586 -331 -13 -8 -42 -361 -31 -371 4 -4 342 -199 751 -433 l744 -426
616 382 c339 210 659 409 712 442 l97 59 7 169 c4 93 5 171 4 172 -2 2 -260
153 -574 336 -313 183 -574 336 -578 340 -11 10 1027 610 1055 610 11 0 35 90
52 195 15 84 66 476 66 501 0 11 -102 45 -198 65 -33 7 -52 15 -49 22 2 7 70
210 150 452 l147 440 54 365 c29 201 53 366 51 368 -1 2 -192 -160 -424 -358z
m-680 -3176 c105 -54 187 -129 232 -210 l34 -61 -25 -49 c-101 -198 -459 -343
-792 -319 -310 21 -564 147 -654 324 l-23 45 25 49 c37 70 102 139 176 186 60
38 174 91 195 91 6 0 12 -51 13 -127 l3 -128 153 -78 153 -78 140 86 139 87 0
133 0 134 72 -20 c40 -11 111 -40 159 -65z"/>
<path d="M4735 6920 c10 -11 20 -20 23 -20 3 0 -3 9 -13 20 -10 11 -20 20 -23
20 -3 0 3 -9 13 -20z"/>
<path d="M27352 5637 l-322 -191 2 -985 3 -984 370 -213 c204 -117 374 -213
379 -214 5 0 150 81 322 180 171 99 319 183 328 186 16 6 17 65 14 808 l-4
801 -26 97 c-50 181 -171 378 -284 460 -64 46 -428 248 -445 247 -8 0 -159
-86 -337 -192z m752 -572 c42 -75 76 -139 76 -143 0 -8 -290 -176 -294 -171
-1 2 -12 37 -25 78 -13 41 -41 108 -62 150 -22 42 -36 77 -32 79 4 1 62 34
128 72 66 38 123 69 126 69 4 1 41 -60 83 -134z m196 -413 c0 -31 -32 -68 -49
-57 -16 9 -13 46 6 67 24 27 43 22 43 -10z m-70 -40 c0 -34 -30 -65 -54 -56
-11 4 -16 1 -16 -10 0 -18 -36 -40 -50 -31 -26 16 8 89 38 83 10 -2 25 7 35
19 26 32 47 29 47 -5z m70 -50 c0 -31 -32 -68 -49 -57 -16 9 -13 46 6 67 24
27 43 22 43 -10z m-212 -113 c2 -57 0 -114 -3 -126 -6 -24 -79 -68 -95 -58
-13 8 -13 211 1 236 12 23 69 61 84 56 6 -2 11 -50 13 -108z m142 72 c0 -36
-25 -64 -51 -56 -13 4 -19 2 -19 -9 0 -18 -36 -40 -50 -31 -26 16 8 89 38 83
10 -2 25 7 35 19 26 32 47 29 47 -6z m68 -53 c3 -27 -20 -58 -44 -58 -20 0
-18 49 3 72 21 24 37 18 41 -14z m-70 -42 c4 -35 -15 -59 -43 -52 -15 4 -23
-1 -30 -17 -12 -27 -43 -34 -51 -12 -15 37 37 95 57 64 7 -12 9 -12 9 0 0 19
31 52 44 48 6 -2 12 -16 14 -31z"/>
<path d="M17755 4345 c-214 -123 -393 -226 -396 -227 -3 -2 -3 -39 0 -83 l6
-80 172 -100 172 -100 1 -360 0 -360 61 -38 61 -38 308 175 c169 97 311 176
315 176 4 0 212 -120 461 -266 l454 -267 0 -343 0 -344 54 -35 c104 -66 59
-81 467 157 l364 214 3 84 3 85 244 140 245 140 0 85 0 86 -1291 759 c-709
418 -1295 761 -1302 762 -7 2 -187 -98 -402 -222z m1569 -601 c636 -372 1156
-679 1156 -683 -1 -7 -502 -301 -514 -301 -10 0 -2318 1330 -2334 1345 -10 9
40 42 250 163 145 83 268 151 275 151 6 1 531 -303 1167 -675z"/>
<path d="M27030 3253 l0 -139 373 -212 c206 -117 380 -212 388 -211 8 0 158
85 334 188 l320 188 3 131 c1 73 1 132 -1 132 -2 0 -148 -83 -325 -185 -177
-102 -327 -185 -333 -185 -10 0 -661 370 -736 418 l-23 14 0 -139z"/>
</g>
</svg>
