<svg id="Capa_1" enable-background="new 0 0 512.022 512.022" height="512" viewBox="0 0 512.022 512.022" width="512" xmlns="http://www.w3.org/2000/svg"><path d="m436.023 512.007h-261.998c-67.272 0-122.002-54.73-122.002-122.003v-1.992c0-67.272 54.73-122.003 122.002-122.003h213.995c19.3 0 35.002-15.702 35.002-35.003v-.994c0-19.301-15.702-35.003-35.002-35.003h-164.554c-8.284 0-15-6.716-15-15s6.716-15 15-15h164.554c35.842 0 65.002 29.16 65.002 65.003v.994c0 35.843-29.16 65.003-65.002 65.003h-213.995c-50.73 0-92.002 41.272-92.002 92.003v1.992c0 50.73 41.272 92.003 92.002 92.003h261.998c8.284 0 15 6.716 15 15s-6.716 15-15 15z" fill="#09607d"/><path d="m436.023 482.007h-261.998c-3.226 0-6.413-.169-9.554-.494v30.122c3.153.245 6.339.373 9.554.373h261.998c8.284 0 15-6.716 15-15s-6.716-15.001-15-15.001z" fill="#07485e"/><path d="m388.02 165.009h-164.554c-8.284 0-15 6.716-15 15s6.716 15 15 15h164.554c19.3 0 35.002 15.702 35.002 35.003v.994c0 19.301-15.702 35.003-35.002 35.003h-213.995c-3.215 0-6.401.127-9.554.373v30.122c3.141-.325 6.328-.494 9.554-.494h213.995c35.842 0 65.002-29.16 65.002-65.003v-.994c0-35.844-29.16-65.004-65.002-65.004z" fill="#07485e"/><path d="m314.673 88.543h-314.673v91.447c0 8.284 6.716 15 15 15h250.995c21.231 0 40.217-10.108 52.091-27.732 11.866-17.611 14.122-39.013 6.191-58.717-2.778-6.902-6.004-13.568-9.604-19.998z" fill="#00cef5"/><path d="m324.277 108.54c-2.778-6.902-6.004-13.567-9.604-19.997h-150.202v106.447h101.523c21.231 0 40.217-10.108 52.091-27.732 11.867-17.612 14.123-39.014 6.192-58.718z" fill="#0095ff"/><path clip-rule="evenodd" d="m312.107 84.105c-12.676-21.146-29.742-39.41-50.329-53.626-20.29-14.012-43.009-23.38-66.888-27.71-4.802-.871-14.718 6.965-14.718 6.965s-10.096-9.7-15.283-9.724c-.268-.001-.536-.002-.804-.002h-86.649l-14.498 11.684-15.502-11.683h-32.436c-8.284 0-15 6.716-15 15v69.096z" fill="#fff4f4" fill-rule="evenodd"/><path clip-rule="evenodd" d="m164.471 84.105h147.636c-12.676-21.146-29.742-39.41-50.329-53.626-20.29-14.011-43.009-23.38-66.888-27.71-4.802-.871-14.718 6.965-14.718 6.965s-10.096-9.7-15.283-9.723c-.139-.001-.278-.001-.417-.001v84.095z" fill="#f6efea" fill-rule="evenodd"/><path d="m436.523 512.013c-7.967 0-15.437-4.801-25.782-16.571-6.86-7.806-14.557-18.344-21.671-29.675-8.433-13.43-28.046-47.355-28.046-72.258 0-41.631 33.869-75.5 75.5-75.5 41.63 0 75.5 33.869 75.5 75.5 0 24.902-19.614 58.828-28.046 72.258-7.115 11.331-14.811 21.869-21.671 29.675-10.347 11.77-17.817 16.571-25.784 16.571z" fill="#00cc71"/><path clip-rule="evenodd" d="m436.523 408.509c8.262 0 15-6.738 15-15s-6.738-15-15-15-15 6.738-15 15 6.738 15 15 15z" fill="#7d0" fill-rule="evenodd"/><path d="m319.238 97.259c-.025-.052-.051-.103-.076-.154-1.703-3.485-3.515-6.905-5.44-10.254-.388-.677-.781-1.351-1.177-2.022-.452-.763-.904-1.528-1.367-2.284-.823-1.343-1.66-2.676-2.518-3.994-.355-.545-.724-1.081-1.085-1.621-.421-.631-.836-1.267-1.266-1.892h-.022c-11.901-17.318-26.897-32.419-44.476-44.559-26.562-18.343-57.288-28.721-89.331-30.261-.007 0-.013-.001-.019-.001-1.23-.059-2.463-.105-3.697-.138-.044-.001-.089-.003-.133-.004-1.502-.039-3.006-.065-4.513-.065h-86.682-30-32.404c-8.284 0-15 6.716-15 15s6.716 15 15 15h32.404v12.975c0 11.721 3.269 22.692 8.939 32.054h-56.375v30h109.489 74.501 39.246c.418 0 .829-.029 1.239-.063.819.032 1.639.063 2.466.063h62.647 33.203.032c-1.126-2.633-2.336-5.217-3.585-7.78zm-209.749-22.222c-17.674 0-32.053-14.379-32.053-32.054v-12.974h86.681c.258 0 .514.012.772.013v12.961c0 11.721 3.269 22.692 8.939 32.054zm117.453 0c-17.674 0-32.053-14.379-32.053-32.054v-9.631c28.215 6.195 53.635 20.79 73.161 41.685z" fill="#ff3f5c"/><path d="m319.238 97.259c-.025-.052-.051-.103-.076-.154-1.703-3.485-3.515-6.905-5.44-10.254-.388-.677-.781-1.351-1.177-2.022-.452-.763-.904-1.528-1.367-2.284-.823-1.343-1.66-2.676-2.518-3.994-.355-.545-.724-1.081-1.085-1.621-.421-.631-.836-1.267-1.266-1.892h-.022c-11.901-17.318-26.897-32.419-44.476-44.559-26.562-18.343-57.288-28.721-89.331-30.261-.007 0-.013-.001-.019-.001-1.23-.059-2.463-.105-3.697-.138-.044-.001-.089-.003-.133-.004-1.384-.036-2.77-.057-4.158-.06v30.001c.139.003.278.006.417.007v12.961c0 11.721 3.269 22.692 8.939 32.054h-9.357v30h19.519 39.246c.418 0 .829-.029 1.239-.063.819.032 1.639.063 2.466.063h62.647 33.203.032c-1.127-2.632-2.337-5.216-3.586-7.779zm-92.296-22.222c-17.674 0-32.053-14.379-32.053-32.054v-9.631c28.215 6.195 53.635 20.79 73.161 41.685z" fill="#d20763"/></svg>