<?xml version="1.0" encoding="UTF-8" standalone="no"?>
<!-- Created with Inkscape (http://www.inkscape.org/) -->

<svg
   version="1.1"
   id="svg357"
   xml:space="preserve"
   width="682.66669"
   height="682.66669"
   viewBox="0 0 682.66669 682.66669"
   xmlns="http://www.w3.org/2000/svg"
   xmlns:svg="http://www.w3.org/2000/svg"><defs
     id="defs361"><clipPath
       clipPathUnits="userSpaceOnUse"
       id="clipPath377"><path
         d="M 0,512 H 512 V 0 H 0 Z"
         id="path375" /></clipPath></defs><g
     id="g363"
     transform="matrix(1.3333333,0,0,-1.3333333,0,682.66667)"><path
       d="M 502,10 H 10 v 48 h 492 z"
       style="fill:#ffe6c0;fill-opacity:1;fill-rule:nonzero;stroke:none"
       id="path365" /><path
       d="M 502,58 H 10 v 323.833 h 492 z"
       style="fill:#ffffff;fill-opacity:1;fill-rule:nonzero;stroke:none"
       id="path367" /><path
       d="M 456.745,107.917 H 54 v 224 h 402.745 z"
       style="fill:#ffcb7c;fill-opacity:1;fill-rule:nonzero;stroke:none"
       id="path369" /><g
       id="g371"><g
         id="g373"
         clip-path="url(#clipPath377)"><g
           id="g379"
           transform="translate(462,462)"><path
             d="m 0,0 h -412 c -22.091,0 -40,-17.909 -40,-40 V -80.167 H 40 V -40 C 40,-17.909 22.091,0 0,0"
             style="fill:#91def5;fill-opacity:1;fill-rule:nonzero;stroke:none"
             id="path381" /></g><g
           id="g383"
           transform="translate(84,422)"><path
             d="m 0,0 v 0 c -11.046,0 -20,8.954 -20,20 v 40 c 0,11.046 8.954,20 20,20 11.046,0 20,-8.954 20,-20 V 20 C 20,8.954 11.046,0 0,0"
             style="fill:#e1e3e9;fill-opacity:1;fill-rule:nonzero;stroke:none"
             id="path385" /></g><g
           id="g387"
           transform="translate(428,422)"><path
             d="M 0,0 V 0 C 11.046,0 20,8.954 20,20 V 60 C 20,71.046 11.046,80 0,80 -11.046,80 -20,71.046 -20,60 V 20 C -20,8.954 -11.046,0 0,0"
             style="fill:#e1e3e9;fill-opacity:1;fill-rule:nonzero;stroke:none"
             id="path389" /></g><g
           id="g391"
           transform="translate(300.311,58)"><path
             d="m 0,0 h 201.689 v -48 h -492 V 0 H -90"
             style="fill:none;stroke:#000000;stroke-width:20;stroke-linecap:round;stroke-linejoin:round;stroke-miterlimit:10;stroke-dasharray:none;stroke-opacity:1"
             id="path393" /></g><g
           id="g395"
           transform="translate(406.25,462)"><path
             d="M 0,0 H -299.25"
             style="fill:none;stroke:#000000;stroke-width:20;stroke-linecap:round;stroke-linejoin:round;stroke-miterlimit:10;stroke-dasharray:none;stroke-opacity:1"
             id="path397" /></g><g
           id="g399"
           transform="translate(502,148.5098)"><path
             d="m 0,0 v 273.49 c 0,22.092 -17.909,40 -40,40 h -11"
             style="fill:none;stroke:#000000;stroke-width:20;stroke-linecap:round;stroke-linejoin:round;stroke-miterlimit:10;stroke-dasharray:none;stroke-opacity:1"
             id="path401" /></g><g
           id="g403"
           transform="translate(62.5,462)"><path
             d="m 0,0 h -12.5 c -22.091,0 -40,-17.909 -40,-40 v -364"
             style="fill:none;stroke:#000000;stroke-width:20;stroke-linecap:round;stroke-linejoin:round;stroke-miterlimit:10;stroke-dasharray:none;stroke-opacity:1"
             id="path405" /></g><g
           id="g407"
           transform="translate(430,58)"><path
             d="M 0,0 72,72 H 0 Z"
             style="fill:#ffe6c0;fill-opacity:1;fill-rule:nonzero;stroke:none"
             id="path409" /></g><g
           id="g411"
           transform="translate(430,58)"><path
             d="M 0,0 72,72 V 0 Z"
             style="fill:#ffe6c0;fill-opacity:1;fill-rule:nonzero;stroke:none"
             id="path413" /></g><g
           id="g415"
           transform="translate(430,58)"><path
             d="M 0,0 72,72 H 0 Z"
             style="fill:none;stroke:#000000;stroke-width:20;stroke-linecap:round;stroke-linejoin:round;stroke-miterlimit:10;stroke-dasharray:none;stroke-opacity:1"
             id="path417" /></g><g
           id="g419"
           transform="translate(411.4902,58)"><path
             d="M 0,0 H 90.51 V 90.51"
             style="fill:none;stroke:#000000;stroke-width:20;stroke-linecap:round;stroke-linejoin:round;stroke-miterlimit:10;stroke-dasharray:none;stroke-opacity:1"
             id="path421" /></g><g
           id="g423"
           transform="translate(84,422)"><path
             d="m 0,0 v 0 c -11.046,0 -20,8.954 -20,20 v 40 c 0,11.046 8.954,20 20,20 11.046,0 20,-8.954 20,-20 V 20 C 20,8.954 11.046,0 0,0 Z"
             style="fill:none;stroke:#000000;stroke-width:20;stroke-linecap:round;stroke-linejoin:round;stroke-miterlimit:10;stroke-dasharray:none;stroke-opacity:1"
             id="path425" /></g><g
           id="g427"
           transform="translate(428,422)"><path
             d="M 0,0 V 0 C 11.046,0 20,8.954 20,20 V 60 C 20,71.046 11.046,80 0,80 -11.046,80 -20,71.046 -20,60 V 20 C -20,8.954 -11.046,0 0,0 Z"
             style="fill:none;stroke:#000000;stroke-width:20;stroke-linecap:round;stroke-linejoin:round;stroke-miterlimit:10;stroke-dasharray:none;stroke-opacity:1"
             id="path429" /></g><g
           id="g431"
           transform="translate(502,381.8335)"><path
             d="M 0,0 H -492 Z"
             style="fill:none;stroke:#000000;stroke-width:20;stroke-linecap:round;stroke-linejoin:round;stroke-miterlimit:10;stroke-dasharray:none;stroke-opacity:1"
             id="path433" /></g><g
           id="g435"
           transform="translate(430,107.9165)"><path
             d="M 0,0 H -376 V 224 H 28 V 24.417"
             style="fill:none;stroke:#000000;stroke-width:20;stroke-linecap:round;stroke-linejoin:round;stroke-miterlimit:10;stroke-dasharray:none;stroke-opacity:1"
             id="path437" /></g><g
           id="g439"
           transform="translate(54,275.9165)"><path
             d="M 0,0 H 404"
             style="fill:none;stroke:#000000;stroke-width:20;stroke-linecap:round;stroke-linejoin:round;stroke-miterlimit:10;stroke-dasharray:none;stroke-opacity:1"
             id="path441" /></g><g
           id="g443"
           transform="translate(54,219.9165)"><path
             d="M 0,0 H 404"
             style="fill:none;stroke:#000000;stroke-width:20;stroke-linecap:round;stroke-linejoin:round;stroke-miterlimit:10;stroke-dasharray:none;stroke-opacity:1"
             id="path445" /></g><g
           id="g447"
           transform="translate(54,163.9165)"><path
             d="M 0,0 H 404"
             style="fill:none;stroke:#000000;stroke-width:20;stroke-linecap:round;stroke-linejoin:round;stroke-miterlimit:10;stroke-dasharray:none;stroke-opacity:1"
             id="path449" /></g><g
           id="g451"
           transform="translate(377.2002,331.9165)"><path
             d="M 0,0 V -224.001"
             style="fill:none;stroke:#000000;stroke-width:20;stroke-linecap:round;stroke-linejoin:round;stroke-miterlimit:10;stroke-dasharray:none;stroke-opacity:1"
             id="path453" /></g><g
           id="g455"
           transform="translate(296.3999,331.9165)"><path
             d="M 0,0 V -224.001"
             style="fill:none;stroke:#000000;stroke-width:20;stroke-linecap:round;stroke-linejoin:round;stroke-miterlimit:10;stroke-dasharray:none;stroke-opacity:1"
             id="path457" /></g><g
           id="g459"
           transform="translate(215.6001,331.9165)"><path
             d="M 0,0 V -224.001"
             style="fill:none;stroke:#000000;stroke-width:20;stroke-linecap:round;stroke-linejoin:round;stroke-miterlimit:10;stroke-dasharray:none;stroke-opacity:1"
             id="path461" /></g><g
           id="g463"
           transform="translate(134.7998,331.9165)"><path
             d="M 0,0 V -224.001"
             style="fill:none;stroke:#000000;stroke-width:20;stroke-linecap:round;stroke-linejoin:round;stroke-miterlimit:10;stroke-dasharray:none;stroke-opacity:1"
             id="path465" /></g><g
           id="g467"
           transform="translate(255.3115,57.9385)"><path
             d="M 0,0 V 0"
             style="fill:none;stroke:#000000;stroke-width:20;stroke-linecap:round;stroke-linejoin:round;stroke-miterlimit:10;stroke-dasharray:none;stroke-opacity:1"
             id="path469" /></g></g></g></g></svg>
