<?xml version="1.0" encoding="UTF-8" standalone="no"?>
<!-- Created with Inkscape (http://www.inkscape.org/) -->

<svg
   version="1.1"
   id="svg7119"
   xml:space="preserve"
   width="682.66669"
   height="682.66669"
   viewBox="0 0 682.66669 682.66669"
   xmlns="http://www.w3.org/2000/svg"
   xmlns:svg="http://www.w3.org/2000/svg"><defs
     id="defs7123"><clipPath
       clipPathUnits="userSpaceOnUse"
       id="clipPath7133"><path
         d="M 0,512 H 512 V 0 H 0 Z"
         id="path7131" /></clipPath></defs><g
     id="g7125"
     transform="matrix(1.3333333,0,0,-1.3333333,0,682.66667)"><g
       id="g7127"><g
         id="g7129"
         clip-path="url(#clipPath7133)"><g
           id="g7135"
           transform="translate(164.3154,369.9995)"><path
             d="m 0,0 73.988,32.521 -2.775,20.47 c -0.735,5.456 -5.389,9.515 -10.889,9.515 H -60.323 c -5.499,0 -10.154,-4.059 -10.888,-9.515 l -2.776,-20.47 z"
             style="fill:#b9c1cb;fill-opacity:1;fill-rule:nonzero;stroke:none"
             id="path7137" /></g><g
           id="g7139"
           transform="translate(177.3477,375.7246)"><path
             d="M 0,0 -13.032,-5.729 -87.02,26.8 l 2.771,20.464 c 0.736,5.456 5.388,9.517 10.887,9.517 h 26.055 c -5.498,0 -10.15,-4.061 -10.885,-9.517 L -60.963,26.8 Z"
             style="fill:#909ba5;fill-opacity:1;fill-rule:nonzero;stroke:none"
             id="path7141" /></g><path
           d="M 270.67,60.767 H 57.961 V 30.055 H 270.67 Z"
           style="fill:#c6865c;fill-opacity:1;fill-rule:nonzero;stroke:none"
           id="path7143" /><g
           id="g7145"
           transform="translate(264.7344,402.522)"><path
             d="m 0,0 h -200.838 c -22.128,0 -40.066,-17.938 -40.066,-40.066 v -227.498 c 0,-22.128 17.938,-40.066 40.066,-40.066 H 0 c 22.128,0 40.066,17.938 40.066,40.066 V -40.066 C 40.066,-17.938 22.128,0 0,0"
             style="fill:#da4a54;fill-opacity:1;fill-rule:nonzero;stroke:none"
             id="path7147" /></g><g
           id="g7149"
           transform="translate(86.6484,94.896)"><path
             d="m 0,0 h -22.755 c -22.123,0 -40.063,17.932 -40.063,40.063 v 227.494 c 0,22.131 17.94,40.072 40.063,40.072 H 0 c -22.131,0 -40.071,-17.941 -40.071,-40.072 V 40.063 C -40.071,17.932 -22.131,0 0,0"
             style="fill:#d82e3d;fill-opacity:1;fill-rule:nonzero;stroke:none"
             id="path7151" /></g><g
           id="g7153"
           transform="translate(213.3135,94.8916)"><path
             d="m 0,0 -5.064,29.752 c -1.177,6.929 -7.188,12 -14.219,12 h -59.429 c -7.038,0 -13.041,-5.071 -14.226,-12 L -98.002,0"
             style="fill:#4d5961;fill-opacity:1;fill-rule:nonzero;stroke:none"
             id="path7155" /></g><g
           id="g7157"
           transform="translate(23.8301,282.2129)"><path
             d="m 0,0 v -147.255 c 0,-22.128 17.938,-40.066 40.066,-40.066 h 200.838 c 22.128,0 40.067,17.938 40.067,40.066 V 80.243 c 0,22.128 -17.939,40.066 -40.067,40.066 H 40.066 C 17.938,120.309 0,102.371 0,80.243 V 30"
             style="fill:none;stroke:#000000;stroke-width:15;stroke-linecap:round;stroke-linejoin:round;stroke-miterlimit:10;stroke-dasharray:none;stroke-opacity:1"
             id="path7159" /></g><g
           id="g7161"
           transform="translate(131.6416,339.8794)"><path
             d="M 0,0 H -65.366 C -76.072,0 -84.751,-8.679 -84.751,-19.384 V -80.79 c 0,-10.706 8.679,-19.385 19.385,-19.385 H 0 c 10.706,0 19.385,8.679 19.385,19.385 v 61.406 C 19.385,-8.679 10.706,0 0,0"
             style="fill:#d3effb;fill-opacity:1;fill-rule:nonzero;stroke:none"
             id="path7163" /></g><g
           id="g7165"
           transform="translate(177.6045,320.4951)"><path
             d="m 0,0 v -61.406 c 0,-10.706 8.679,-19.385 19.385,-19.385 h 65.366 c 10.706,0 19.385,8.679 19.385,19.385 V 0 c 0,10.706 -8.679,19.384 -19.385,19.384 H 19.385 C 8.679,19.384 0,10.706 0,0"
             style="fill:#d3effb;fill-opacity:1;fill-rule:nonzero;stroke:none"
             id="path7167" /></g><g
           id="g7169"
           transform="translate(131.6416,339.8794)"><path
             d="M 0,0 H -65.366 C -76.072,0 -84.751,-8.679 -84.751,-19.384 V -80.79 c 0,-10.706 8.679,-19.385 19.385,-19.385 H 0 c 10.706,0 19.385,8.679 19.385,19.385 v 61.406 C 19.385,-8.679 10.706,0 0,0 Z"
             style="fill:none;stroke:#000000;stroke-width:15;stroke-linecap:round;stroke-linejoin:round;stroke-miterlimit:10;stroke-dasharray:none;stroke-opacity:1"
             id="path7171" /></g><g
           id="g7173"
           transform="translate(177.6045,320.4951)"><path
             d="m 0,0 v -61.406 c 0,-10.706 8.679,-19.385 19.385,-19.385 h 65.366 c 10.706,0 19.385,8.679 19.385,19.385 V 0 c 0,10.706 -8.679,19.384 -19.385,19.384 H 19.385 C 8.679,19.384 0,10.706 0,0 Z"
             style="fill:none;stroke:#000000;stroke-width:15;stroke-linecap:round;stroke-linejoin:round;stroke-miterlimit:10;stroke-dasharray:none;stroke-opacity:1"
             id="path7175" /></g><g
           id="g7177"
           transform="translate(93.3848,169.478)"><path
             d="m 0,0 c 0,12.751 -10.336,23.088 -23.087,23.088 -12.751,0 -23.088,-10.337 -23.088,-23.088 0,-12.75 10.337,-23.087 23.088,-23.087 C -10.336,-23.087 0,-12.75 0,0"
             style="fill:#ecbe6b;fill-opacity:1;fill-rule:nonzero;stroke:none"
             id="path7179" /></g><g
           id="g7181"
           transform="translate(281.4209,169.478)"><path
             d="m 0,0 c 0,12.751 -10.337,23.088 -23.088,23.088 -12.751,0 -23.087,-10.337 -23.087,-23.088 0,-12.75 10.336,-23.087 23.087,-23.087 C -10.337,-23.087 0,-12.75 0,0"
             style="fill:#ecbe6b;fill-opacity:1;fill-rule:nonzero;stroke:none"
             id="path7183" /></g><g
           id="g7185"
           transform="translate(93.3848,169.478)"><path
             d="m 0,0 c 0,12.751 -10.336,23.088 -23.087,23.088 -12.751,0 -23.088,-10.337 -23.088,-23.088 0,-12.75 10.337,-23.087 23.088,-23.087 C -10.336,-23.087 0,-12.75 0,0 Z"
             style="fill:none;stroke:#000000;stroke-width:15;stroke-linecap:round;stroke-linejoin:round;stroke-miterlimit:10;stroke-dasharray:none;stroke-opacity:1"
             id="path7187" /></g><g
           id="g7189"
           transform="translate(281.4209,169.478)"><path
             d="m 0,0 c 0,12.751 -10.337,23.088 -23.088,23.088 -12.751,0 -23.087,-10.337 -23.087,-23.088 0,-12.75 10.336,-23.087 23.087,-23.087 C -10.337,-23.087 0,-12.75 0,0 Z"
             style="fill:none;stroke:#000000;stroke-width:15;stroke-linecap:round;stroke-linejoin:round;stroke-miterlimit:10;stroke-dasharray:none;stroke-opacity:1"
             id="path7191" /></g><g
           id="g7193"
           transform="translate(238.3037,402.5205)"><path
             d="m 0,0 -2.775,20.47 c -0.736,5.456 -5.389,9.515 -10.889,9.515 h -120.648 c -5.499,0 -10.153,-4.059 -10.887,-9.515 L -147.976,0"
             style="fill:none;stroke:#000000;stroke-width:15;stroke-linecap:round;stroke-linejoin:round;stroke-miterlimit:10;stroke-dasharray:none;stroke-opacity:1"
             id="path7195" /></g><g
           id="g7197"
           transform="translate(280.6582,370.9409)"><path
             d="m 0,0 c 0,5.75 -4.661,10.412 -10.412,10.412 -5.75,0 -10.412,-4.662 -10.412,-10.412 0,-5.75 4.662,-10.412 10.412,-10.412 C -4.661,-10.412 0,-5.75 0,0"
             style="fill:#e7ecf1;fill-opacity:1;fill-rule:nonzero;stroke:none"
             id="path7199" /></g><g
           id="g7201"
           transform="translate(68.7969,370.9409)"><path
             d="m 0,0 c 0,5.75 -4.662,10.412 -10.412,10.412 -5.751,0 -10.412,-4.662 -10.412,-10.412 0,-5.75 4.661,-10.412 10.412,-10.412 C -4.662,-10.412 0,-5.75 0,0"
             style="fill:#e7ecf1;fill-opacity:1;fill-rule:nonzero;stroke:none"
             id="path7203" /></g><g
           id="g7205"
           transform="translate(280.6582,370.9409)"><path
             d="m 0,0 c 0,5.75 -4.661,10.412 -10.412,10.412 -5.75,0 -10.412,-4.662 -10.412,-10.412 0,-5.75 4.662,-10.412 10.412,-10.412 C -4.661,-10.412 0,-5.75 0,0 Z"
             style="fill:none;stroke:#000000;stroke-width:15;stroke-linecap:round;stroke-linejoin:round;stroke-miterlimit:10;stroke-dasharray:none;stroke-opacity:1"
             id="path7207" /></g><g
           id="g7209"
           transform="translate(68.7969,370.9409)"><path
             d="m 0,0 c 0,5.75 -4.662,10.412 -10.412,10.412 -5.751,0 -10.412,-4.662 -10.412,-10.412 0,-5.75 4.661,-10.412 10.412,-10.412 C -4.662,-10.412 0,-5.75 0,0 Z"
             style="fill:none;stroke:#000000;stroke-width:15;stroke-linecap:round;stroke-linejoin:round;stroke-miterlimit:10;stroke-dasharray:none;stroke-opacity:1"
             id="path7211" /></g><g
           id="g7213"
           transform="translate(213.3135,94.8916)"><path
             d="m 0,0 -5.064,29.752 c -1.177,6.929 -7.188,12 -14.219,12 h -59.429 c -7.038,0 -13.041,-5.071 -14.226,-12 L -98.002,0"
             style="fill:none;stroke:#000000;stroke-width:15;stroke-linecap:round;stroke-linejoin:round;stroke-miterlimit:10;stroke-dasharray:none;stroke-opacity:1"
             id="path7215" /></g><g
           id="g7217"
           transform="translate(192.9463,358.646)"><path
             d="m 0,0 h -57.262 c -6.27,0 -11.353,5.083 -11.353,11.354 0,6.27 5.083,11.353 11.353,11.353 H 0 c 6.271,0 11.354,-5.083 11.354,-11.353 C 11.354,5.083 6.271,0 0,0"
             style="fill:#ecbe6b;fill-opacity:1;fill-rule:nonzero;stroke:none"
             id="path7219" /></g><g
           id="g7221"
           transform="translate(192.9463,358.646)"><path
             d="m 0,0 h -57.262 c -6.27,0 -11.353,5.083 -11.353,11.354 0,6.27 5.083,11.353 11.353,11.353 H 0 c 6.271,0 11.354,-5.083 11.354,-11.353 C 11.354,5.083 6.271,0 0,0 Z"
             style="fill:none;stroke:#000000;stroke-width:15;stroke-linecap:round;stroke-linejoin:round;stroke-miterlimit:10;stroke-dasharray:none;stroke-opacity:1"
             id="path7223" /></g><g
           id="g7225"
           transform="translate(117.9111,204.4487)"><path
             d="M 0,0 H 92.803"
             style="fill:none;stroke:#000000;stroke-width:15;stroke-linecap:round;stroke-linejoin:round;stroke-miterlimit:10;stroke-dasharray:none;stroke-opacity:1"
             id="path7227" /></g><g
           id="g7229"
           transform="translate(117.9111,182.2271)"><path
             d="M 0,0 H 92.803"
             style="fill:none;stroke:#000000;stroke-width:15;stroke-linecap:round;stroke-linejoin:round;stroke-miterlimit:10;stroke-dasharray:none;stroke-opacity:1"
             id="path7231" /></g><g
           id="g7233"
           transform="translate(97.0879,94.896)"><path
             d="M 0,0 -9.535,-26.167 -31.854,-87.396 H -89.585 L -48.196,-23.26 -33.188,0 Z"
             style="fill:#b9c1cb;fill-opacity:1;fill-rule:nonzero;stroke:none"
             id="path7235" /></g><g
           id="g7237"
           transform="translate(76.7783,94.896)"><path
             d="M 0,0 -39.739,-87.396 H -69.275 L -12.879,0 Z"
             style="fill:#909ba5;fill-opacity:1;fill-rule:nonzero;stroke:none"
             id="path7239" /></g><g
           id="g7241"
           transform="translate(321.1348,7.5)"><path
             d="m 0,0 h -57.739 l -22.32,61.229 -9.534,26.167 h 33.197 l 15.007,-23.26 z"
             style="fill:#b9c1cb;fill-opacity:1;fill-rule:nonzero;stroke:none"
             id="path7243" /></g><g
           id="g7245"
           transform="translate(251.8555,94.896)"><path
             d="M 0,0 39.738,-87.396 H 69.275 L 12.879,0 Z"
             style="fill:#909ba5;fill-opacity:1;fill-rule:nonzero;stroke:none"
             id="path7247" /></g><g
           id="g7249"
           transform="translate(63.8994,94.896)"><path
             d="M 0,0 H 33.188 L 23.653,-26.167 H 0 c -5.311,0 -10.373,1.034 -15.008,2.907 z"
             style="fill:#909ba5;fill-opacity:1;fill-rule:nonzero;stroke:none"
             id="path7251" /></g><g
           id="g7253"
           transform="translate(279.7461,71.6357)"><path
             d="M 0,0 C -4.635,-1.873 -9.706,-2.907 -15.008,-2.907 H -38.67 l -9.534,26.167 h 33.196 z"
             style="fill:#909ba5;fill-opacity:1;fill-rule:nonzero;stroke:none"
             id="path7255" /></g><g
           id="g7257"
           transform="translate(65.2373,7.5)"><path
             d="M 0,0 H -57.737 L -1.341,87.392 H 31.851 Z"
             style="fill:none;stroke:#000000;stroke-width:15;stroke-linecap:round;stroke-linejoin:round;stroke-miterlimit:10;stroke-dasharray:none;stroke-opacity:1"
             id="path7259" /></g><g
           id="g7261"
           transform="translate(263.3936,7.5)"><path
             d="M 0,0 H 57.737 L 1.341,87.392 h -33.192 z"
             style="fill:none;stroke:#000000;stroke-width:15;stroke-linecap:round;stroke-linejoin:round;stroke-miterlimit:10;stroke-dasharray:none;stroke-opacity:1"
             id="path7263" /></g><g
           id="g7265"
           transform="translate(243.9844,60.7671)"><path
             d="M 0,0 H -159.339"
             style="fill:none;stroke:#000000;stroke-width:15;stroke-linecap:round;stroke-linejoin:round;stroke-miterlimit:10;stroke-dasharray:none;stroke-opacity:1"
             id="path7267" /></g><g
           id="g7269"
           transform="translate(255.1689,30.0586)"><path
             d="M 0,0 H -181.709"
             style="fill:none;stroke:#000000;stroke-width:15;stroke-linecap:round;stroke-linejoin:round;stroke-miterlimit:10;stroke-dasharray:none;stroke-opacity:1"
             id="path7271" /></g><g
           id="g7273"
           transform="translate(353.7002,460.6045)"><path
             d="M 0,0 H 150.8 V 43.896 H 0 c -11.965,0 -21.664,-9.7 -21.664,-21.665 V 21.665 C -21.664,9.7 -11.965,0 0,0"
             style="fill:#909ba5;fill-opacity:1;fill-rule:nonzero;stroke:none"
             id="path7275" /></g><g
           id="g7277"
           transform="translate(353.7002,460.6045)"><path
             d="M 0,0 H 150.8 V 43.896 H 0 c -11.965,0 -21.664,-9.7 -21.664,-21.665 V 21.665 C -21.664,9.7 -11.965,0 0,0 Z"
             style="fill:none;stroke:#000000;stroke-width:15;stroke-linecap:round;stroke-linejoin:round;stroke-miterlimit:10;stroke-dasharray:none;stroke-opacity:1"
             id="path7279" /></g><path
           d="M 321.131,7.5 H 504.5 v 92.656 H 321.131 Z"
           style="fill:#909ba5;fill-opacity:1;fill-rule:nonzero;stroke:none"
           id="path7281" /><g
           id="g7283"
           transform="translate(344.9336,100.1558)"><path
             d="M 0,0 H -23.803 V -92.656 H 159.566 V 0 H 30"
             style="fill:none;stroke:#000000;stroke-width:15;stroke-linecap:round;stroke-linejoin:round;stroke-miterlimit:10;stroke-dasharray:none;stroke-opacity:1"
             id="path7285" /></g><g
           id="g7287"
           transform="translate(450.8291,330.6309)"><path
             d="m 0,0 h -80.532 c -10.085,0 -18.261,8.176 -18.261,18.261 v 29.986 c 0,10.086 8.176,18.261 18.261,18.261 H 0 c 10.085,0 18.261,-8.175 18.261,-18.261 V 18.261 C 18.261,8.176 10.085,0 0,0"
             style="fill:#81a7c6;fill-opacity:1;fill-rule:nonzero;stroke:none"
             id="path7289" /></g><g
           id="g7291"
           transform="translate(450.8291,330.6309)"><path
             d="m 0,0 h -80.532 c -10.085,0 -18.261,8.176 -18.261,18.261 v 29.986 c 0,10.086 8.176,18.261 18.261,18.261 H 0 c 10.085,0 18.261,-8.175 18.261,-18.261 V 18.261 C 18.261,8.176 10.085,0 0,0 Z"
             style="fill:none;stroke:#000000;stroke-width:15;stroke-linecap:round;stroke-linejoin:round;stroke-miterlimit:10;stroke-dasharray:none;stroke-opacity:1"
             id="path7293" /></g><g
           id="g7295"
           transform="translate(504.5,460.6045)"><path
             d="M 0,0 V -360.449"
             style="fill:none;stroke:#000000;stroke-width:15;stroke-linecap:round;stroke-linejoin:round;stroke-miterlimit:10;stroke-dasharray:none;stroke-opacity:1"
             id="path7297" /></g><path
           d="m 437.831,397.139 h -54.536 v 63.465 h 54.536 z"
           style="fill:none;stroke:#000000;stroke-width:15;stroke-linecap:round;stroke-linejoin:round;stroke-miterlimit:10;stroke-dasharray:none;stroke-opacity:1"
           id="path7299" /></g></g></g></svg>
