<svg height="454pt" viewBox="0 0 454.074 454" width="454pt" xmlns="http://www.w3.org/2000/svg"><path d="m117.636719 24.773438c-1.949219 23.128906-26.046875 26.78125-26.046875 26.78125 20.691406.972656 25.847656 28.117187 25.847656 28.117187.441406-19.355469 26.640625-28.402344 26.640625-28.402344-19.625-1.175781-26.441406-26.496093-26.441406-26.496093zm0 0" fill="#d7e057"/><path d="m144.257812 48.273438c-17.207031-1.027344-23.664062-24.050782-23.726562-24.28125-.382812-1.40625-1.71875-2.332032-3.164062-2.203126-1.453126.132813-2.597657 1.28125-2.71875 2.734376-1.71875 20.429687-22.625 23.925781-23.507813 24.0625-1.527344.230468-2.625 1.582031-2.546875 3.121093.082031 1.542969 1.3125 2.769531 2.855469 2.84375 18.054687.847657 22.996093 25.4375 23.042969 25.683594.277343 1.425781 1.519531 2.4375 2.945312 2.4375.085938 0 .167969-.003906.253906-.011719 1.527344-.128906 2.710938-1.386718 2.75-2.917968.386719-17.019532 24.378906-25.554688 24.625-25.636719 1.347656-.472657 2.183594-1.832031 1.988282-3.246094-.199219-1.417969-1.367188-2.5-2.796876-2.585937zm-27.132812 20.691406c-2.714844-6.261719-7.417969-13.816406-15.171875-17.753906 5.859375-2.808594 12.816406-7.824219 16.402344-16.542969 3.101562 6.140625 8.402343 13.757812 16.667969 17.441406-6.011719 3.28125-13.84375 8.8125-17.898438 16.855469zm0 0" fill="#3a312a"/><path d="m74.238281 58.734375c-1.378906 16.359375-18.425781 18.945313-18.425781 18.945313 14.636719.6875 18.285156 19.886718 18.285156 19.886718.3125-13.6875 18.84375-20.089844 18.84375-20.089844-13.882812-.832031-18.703125-18.742187-18.703125-18.742187zm0 0" fill="#d7e057"/><path d="m93.121094 74.480469c-11.53125-.691407-15.945313-16.371094-15.988282-16.527344-.378906-1.40625-1.714843-2.339844-3.164062-2.203125-1.453125.128906-2.597656 1.28125-2.722656 2.734375-1.15625 13.742187-15.289063 16.132813-15.882813 16.226563-1.523437.230468-2.625 1.582031-2.546875 3.125.082032 1.539062 1.316406 2.765624 2.859375 2.839843 12.066407.570313 15.445313 17.289063 15.476563 17.449219.269531 1.425781 1.519531 2.441406 2.945312 2.441406.082032 0 .164063-.003906.25-.011718 1.527344-.125 2.714844-1.386719 2.75-2.921876.261719-11.417968 16.664063-17.265624 16.828125-17.324218 1.351563-.464844 2.1875-1.824219 1.988281-3.242188-.195312-1.417968-1.363281-2.5-2.792968-2.585937zm-19.167969 13.589843c-1.847656-3.773437-4.679687-7.894531-8.894531-10.558593 3.710937-2.082031 7.394531-5.261719 9.738281-9.835938 2.113281 3.75 5.308594 7.910157 9.882813 10.449219-3.699219 2.203125-7.976563 5.480469-10.726563 9.945312zm0 0" fill="#3a312a"/><path d="m74.238281 5.421875c-1.378906 16.355469-18.425781 18.941406-18.425781 18.941406 14.636719.6875 18.285156 19.886719 18.285156 19.886719.3125-13.691406 18.84375-20.089844 18.84375-20.089844-13.882812-.832031-18.703125-18.738281-18.703125-18.738281zm0 0" fill="#d7e057"/><path d="m93.121094 21.164062c-11.53125-.691406-15.945313-16.371093-15.988282-16.53125-.378906-1.402343-1.710937-2.339843-3.164062-2.203124-1.449219.128906-2.597656 1.285156-2.71875 2.738281-1.15625 13.742187-15.292969 16.132812-15.882812 16.226562-1.527344.230469-2.628907 1.578125-2.546876 3.121094.078126 1.539063 1.3125 2.769531 2.855469 2.84375 12.070313.566406 15.445313 17.285156 15.476563 17.449219.273437 1.425781 1.519531 2.441406 2.945312 2.441406.085938 0 .167969 0 .25-.007812 1.53125-.128907 2.714844-1.390626 2.753906-2.925782.257813-11.417968 16.664063-17.265625 16.824219-17.320312 1.351563-.46875 2.1875-1.828125 1.992188-3.246094-.199219-1.414062-1.367188-2.5-2.796875-2.585938zm-19.167969 13.589844c-1.847656-3.769531-4.679687-7.894531-8.894531-10.558594 3.710937-2.082031 7.394531-5.261718 9.742187-9.832031 2.113281 3.746094 5.308594 7.90625 9.882813 10.445313-3.703125 2.203125-7.980469 5.480468-10.730469 9.945312zm0 0" fill="#3a312a"/><path d="m445.6875 129.644531-42.933594-42.933593-.113281.117187c-9.773437 9.769531-25.597656 9.757813-35.355469 0-9.757812-9.761719-9.773437-25.585937 0-35.359375l.113282-.113281-42.9375-42.933594c-7.195313-7.199219-18.851563-7.199219-26.050782 0l-290.027344 290.027344c-7.195312 7.195312-7.195312 18.851562 0 26.050781l42.953126 42.949219c.097656-.128907.222656-.253907.339843-.367188 9.757813-9.761719 25.59375-9.761719 35.351563 0 9.757812 9.757813 9.757812 25.597657 0 35.351563-.113282.113281-.238282.242187-.367188.339844l42.949219 42.949218c7.199219 7.199219 18.851563 7.199219 26.050781 0l290.027344-290.027344c7.199219-7.195312 7.199219-18.851562 0-26.050781zm0 0" fill="#8ac6dd"/><path d="m447.808594 127.527344-42.933594-42.9375c-1.171875-1.167969-3.1875-1.058594-4.355469.113281-8.578125 8.582031-22.539062 8.578125-31.117187 0-8.574219-8.578125-8.578125-22.535156.117187-31.226563 1.171875-1.167968 1.171875-3.070312 0-4.242187l-42.9375-42.933594c-8.351562-8.351562-21.941406-8.351562-30.292969 0l-22.589843 22.589844c-1.171875 1.167969-1.171875 3.070313 0 4.242187 1.171875 1.171876 3.070312 1.171876 4.242187 0l22.589844-22.589843c6.011719-6.011719 15.796875-6.011719 21.808594 0l40.917968 40.914062c-8.96875 10.988281-8.335937 27.25 1.902344 37.488281 10.210938 10.207032 26.398438 10.871094 37.480469 1.898438l40.925781 40.925781c6.011719 6.011719 6.011719 15.792969 0 21.808594l-290.027344 290.023437c-6.007812 6.015626-15.792968 6.011719-21.808593 0l-40.890625-40.890624c9.195312-10.988282 8.632812-27.429688-1.691406-37.753907-10.320313-10.320312-26.761719-10.882812-37.75-1.6875l-40.890626-40.894531c-6.015624-6.011719-6.015624-15.792969 0-21.808594l249.222657-249.222656c1.171875-1.167969 1.171875-3.070312 0-4.242188-1.171875-1.171874-3.070313-1.171874-4.242188 0l-249.222656 249.226563c-8.355469 8.351563-8.355469 21.9375 0 30.289063l42.949219 42.949218c.605468.609375 1.503906.875 2.351562.824219.855469-.050781 1.703125-.515625 2.230469-1.191406 8.578125-8.578125 22.53125-8.578125 31.113281 0 8.578125 8.578125 8.578125 22.535156-.097656 31.214843-.675781.53125-1.09375 1.324219-1.140625 2.179688-.054687.855469.265625 1.695312.871094 2.300781l42.949219 42.949219c4.179687 4.175781 9.664062 6.265625 15.148437 6.265625s10.96875-2.089844 15.144531-6.265625l290.023438-290.027344c8.351562-8.351562 8.351562-21.9375 0-30.289062zm0 0" fill="#3a312a"/><path d="m253.097656 98.980469c-1.171875-1.171875-3.070312-1.171875-4.242187 0s-1.171875 3.070312 0 4.242187l11.308593 11.316406c.589844.585938 1.355469.878907 2.125.878907.765626 0 1.535157-.292969 2.121094-.878907 1.171875-1.171874 1.171875-3.070312 0-4.242187zm-22.628906-22.625c-1.167969-1.171875-3.070312-1.171875-4.242188 0-1.171874 1.171875-1.171874 3.074219 0 4.242187l11.3125 11.316406c.585938.585938 1.355469.875 2.121094.875.769532 0 1.539063-.289062 2.125-.875 1.171875-1.171874 1.171875-3.074218 0-4.242187zm45.253906 45.253906c-1.171875-1.171875-3.070312-1.171875-4.242187 0s-1.171875 3.074219 0 4.242187l11.316406 11.316407c.585937.585937 1.351563.875 2.121094.875s1.535156-.289063 2.121093-.875c1.171876-1.171875 1.171876-3.074219 0-4.242188zm101.484375 101.484375-10.972656-10.972656c-1.171875-1.171875-3.070313-1.171875-4.242187 0-1.171876 1.167968-1.171876 3.070312 0 4.242187l10.972656 10.972657c.585937.585937 1.351562.875 2.121094.875.769531 0 1.535156-.289063 2.121093-.875 1.171875-1.171876 1.171875-3.070313 0-4.242188zm-33.601562-33.601562c-1.171875-1.171876-3.070313-1.171876-4.242188 0-1.171875 1.171874-1.171875 3.070312 0 4.242187l11.3125 11.3125c.585938.585937 1.355469.878906 2.121094.878906.769531 0 1.539063-.292969 2.125-.878906 1.171875-1.167969 1.171875-3.070313 0-4.242187zm-22.628907-22.628907c-1.171874-1.171875-3.070312-1.171875-4.242187 0s-1.171875 3.074219 0 4.242188l11.316406 11.316406c.585938.585937 1.351563.875 2.121094.875s1.535156-.289063 2.121094-.875c1.171875-1.171875 1.171875-3.074219 0-4.242187zm-22.625-22.625c-1.171874-1.171875-3.070312-1.171875-4.242187 0s-1.171875 3.070313 0 4.242188l11.3125 11.3125c.585937.585937 1.355469.878906 2.121094.878906.769531 0 1.535156-.292969 2.121093-.878906 1.175782-1.167969 1.175782-3.070313 0-4.242188zm0 0" fill="#3a312a"/><path d="m450.375 202.070312h.160156v-60.71875c0-10.179687-8.242187-18.417968-18.421875-18.417968h-410.160156c-10.179687 0-18.417969 8.238281-18.417969 18.417968v60.742188c.160156-.023438.339844-.023438.5-.023438 13.800782 0 25 11.203126 25 25 0 13.800782-11.199218 25-25 25-.160156 0-.339844 0-.5-.019531v60.742188c0 10.179687 8.238282 18.417969 18.417969 18.417969h410.160156c10.179688 0 18.421875-8.238282 18.421875-18.417969v-60.722657h-.160156c-13.820312 0-25-11.199218-25-25 0-13.796874 11.179688-25 25-25zm0 0" fill="#fce8cb"/><g fill="#3a312a"><path d="m450.535156 205.070312c1.65625 0 3-1.339843 3-3v-60.71875c0-11.8125-9.609375-21.417968-21.421875-21.417968h-345.308593c-1.660157 0-3 1.339844-3 3 0 1.65625 1.339843 3 3 3h345.308593c8.503907 0 15.421875 6.917968 15.421875 15.417968v57.863282c-14.113281 1.425781-25.160156 13.375-25.160156 27.855468 0 14.4375 10.980469 26.359376 25.160156 27.847657v57.875c0 8.5-6.917968 15.417969-15.421875 15.417969h-410.160156c-8.5 0-15.417969-6.914063-15.417969-15.417969v-57.832031c14.269532-1.265626 25.5-13.289063 25.5-27.890626 0-14.597656-11.230468-26.621093-25.5-27.886718v-57.828125c0-8.503907 6.914063-15.421875 15.417969-15.421875h39.976563c1.660156 0 3-1.339844 3-3 0-1.65625-1.339844-3-3-3h-39.976563c-11.808594 0-21.417969 9.609375-21.417969 21.421875v60.738281c0 .859375.433594 1.679688 1.078125 2.25s1.570313.832031 2.421875.734375c12.128906 0 22 9.867187 22 22 0 12.128906-9.871094 22-22.121094 22.003906-.851562-.113281-1.714843.152344-2.363281.722657-.648437.570312-1.019531 1.390624-1.019531 2.25v60.742187c0 11.808594 9.609375 21.417969 21.421875 21.417969h410.160156c11.808594 0 21.417969-9.609375 21.417969-21.417969v-60.726563c0-1.65625-1.503906-3-3.160156-3-12.128906 0-22-9.867187-22-22 0-12.128906 9.871094-22 22.164062-22zm0 0"/><path d="m333.035156 119.929688c-1.65625 0-3 1.339843-3 3v8c0 1.65625 1.34375 3 3 3s3-1.34375 3-3v-8c0-1.660157-1.34375-3-3-3zm0 0"/><path d="m333.035156 231.050781c-1.65625 0-3 1.34375-3 3v14.734375c0 1.65625 1.34375 3 3 3s3-1.34375 3-3v-14.734375c0-1.65625-1.34375-3-3-3zm0 29.464844c-1.65625 0-3 1.34375-3 3v14.734375c0 1.65625 1.34375 3 3 3s3-1.34375 3-3v-14.734375c0-1.65625-1.34375-3-3-3zm0 29.464844c-1.65625 0-3 1.339843-3 3v14.730469c0 1.660156 1.34375 3 3 3s3-1.339844 3-3v-14.730469c0-1.660157-1.34375-3-3-3zm0-147.320313c-1.65625 0-3 1.339844-3 3v14.730469c0 1.65625 1.34375 3 3 3s3-1.34375 3-3v-14.730469c0-1.65625-1.34375-3-3-3zm0 58.929688c-1.65625 0-3 1.339844-3 3v14.730468c0 1.65625 1.34375 3 3 3s3-1.34375 3-3v-14.730468c0-1.660156-1.34375-3-3-3zm0-29.46875c-1.65625 0-3 1.34375-3 3v14.734375c0 1.65625 1.34375 3 3 3s3-1.34375 3-3v-14.734375c0-1.65625-1.34375-3-3-3zm0 0"/><path d="m333.035156 319.445312c-1.65625 0-3 1.34375-3 3v8c0 1.660157 1.34375 3 3 3s3-1.339843 3-3v-8c0-1.65625-1.34375-3-3-3zm0 0"/><path d="m303.699219 305.261719h-92c-1.65625 0-3 1.339843-3 3 0 1.65625 1.34375 3 3 3h92c1.65625 0 3-1.34375 3-3 0-1.660157-1.34375-3-3-3zm0 0"/><path d="m303.699219 284.59375h-92c-1.65625 0-3 1.34375-3 3 0 1.660156 1.34375 3 3 3h92c1.65625 0 3-1.339844 3-3 0-1.65625-1.34375-3-3-3zm0 0"/><path d="m303.699219 263.929688h-92c-1.65625 0-3 1.339843-3 3 0 1.65625 1.34375 3 3 3h92c1.65625 0 3-1.34375 3-3 0-1.660157-1.34375-3-3-3zm0 0"/><path d="m371.035156 217.929688c-1.65625 0-3 1.339843-3 3v92c0 1.65625 1.34375 3 3 3s3-1.34375 3-3v-92c0-1.660157-1.34375-3-3-3zm0 0"/><path d="m391.699219 217.929688c-1.65625 0-3 1.339843-3 3v92c0 1.65625 1.34375 3 3 3s3-1.34375 3-3v-92c0-1.660157-1.34375-3-3-3zm0 0"/></g><path d="m267.035156 143.59375h30.664063v30.667969h-30.664063zm0 0" fill="#d7e057"/><path d="m297.699219 140.59375h-30.664063c-1.65625 0-3 1.34375-3 3v30.667969c0 1.65625 1.34375 3 3 3h30.664063c1.65625 0 3-1.34375 3-3v-30.667969c0-1.65625-1.34375-3-3-3zm-3 30.667969h-24.664063v-24.667969h24.664063zm0 0" fill="#3a312a"/><path d="m217.699219 143.59375h30.667969v30.667969h-30.667969zm0 0" fill="#d7e057"/><path d="m248.367188 140.59375h-30.664063c-1.660156 0-3 1.34375-3 3v30.667969c0 1.65625 1.339844 3 3 3h30.664063c1.65625 0 3-1.34375 3-3v-30.667969c0-1.65625-1.34375-3-3-3zm-3 30.667969h-24.664063v-24.667969h24.664063zm0 0" fill="#3a312a"/><path d="m107.28125 262.703125c-1.171875-1.171875-3.070312-1.171875-4.242188 0l-47.75 47.75c-1.171874 1.167969-1.171874 3.070313 0 4.242187.585938.585938 1.351563.875 2.121094.875.769532 0 1.535156-.289062 2.121094-.875l47.75-47.75c1.171875-1.171874 1.171875-3.074218 0-4.242187zm0 0" fill="#3a312a"/><path d="m178.78125 310.453125-47.75-47.75c-1.171875-1.171875-3.070312-1.171875-4.242188 0-1.171874 1.167969-1.171874 3.070313 0 4.242187l47.75 47.75c.585938.585938 1.351563.875 2.121094.875.769532 0 1.535156-.289062 2.121094-.875 1.171875-1.171874 1.171875-3.074218 0-4.242187zm0 0" fill="#3a312a"/><path d="m169.046875 168.222656h-104.023437c-8.144532 0-14.746094 6.605469-14.746094 14.746094v104.027344c0 8.140625 6.601562 14.746094 14.746094 14.746094h104.023437c8.144531 0 14.746094-6.605469 14.746094-14.746094v-104.027344c0-8.140625-6.601563-14.746094-14.746094-14.746094zm0 0" fill="#f16c7a"/><path d="m169.046875 165.222656h-104.023437c-9.789063 0-17.746094 7.960938-17.746094 17.746094v104.027344c0 9.785156 7.957031 17.746094 17.746094 17.746094h104.023437c9.785156 0 17.746094-7.960938 17.746094-17.746094v-104.027344c0-9.785156-7.964844-17.746094-17.746094-17.746094zm11.746094 121.773438c0 6.472656-5.269531 11.746094-11.746094 11.746094h-104.023437c-6.476563 0-11.746094-5.269532-11.746094-11.746094v-104.027344c0-6.472656 5.269531-11.746094 11.746094-11.746094h104.023437c6.476563 0 11.746094 5.269532 11.746094 11.746094zm0 0" fill="#3a312a"/><path d="m104.675781 208.804688h-36.269531c-4.4375 0-8.039062 3.601562-8.039062 8.042968v36.269532c0 4.4375 3.601562 8.039062 8.039062 8.039062h36.269531c4.441407 0 8.039063-3.601562 8.039063-8.039062v-36.269532c0-4.441406-3.597656-8.042968-8.039063-8.042968zm0 0" fill="#d7e057"/><path d="m104.675781 205.808594h-36.269531c-6.085938 0-11.039062 4.953125-11.039062 11.039062v36.269532c0 6.085937 4.953124 11.042968 11.039062 11.042968h36.269531c6.089844 0 11.039063-4.957031 11.039063-11.042968v-36.269532c0-6.085937-4.949219-11.039062-11.039063-11.039062zm5.039063 47.308594c0 2.777343-2.257813 5.042968-5.039063 5.042968h-36.269531c-2.777344 0-5.039062-2.265625-5.039062-5.042968v-36.269532c0-2.78125 2.261718-5.039062 5.039062-5.039062h36.269531c2.78125 0 5.039063 2.257812 5.039063 5.039062zm0 0" fill="#3a312a"/><path d="m165.660156 208.804688h-36.269531c-4.4375 0-8.039063 3.601562-8.039063 8.042968v36.269532c0 4.4375 3.601563 8.039062 8.039063 8.039062h36.269531c4.441406 0 8.039063-3.601562 8.039063-8.039062v-36.269532c.003906-4.441406-3.597657-8.042968-8.039063-8.042968zm0 0" fill="#d7e057"/><path d="m165.660156 205.808594h-36.269531c-6.085937 0-11.039063 4.953125-11.039063 11.039062v36.269532c0 6.085937 4.953126 11.042968 11.039063 11.042968h36.269531c6.089844 0 11.042969-4.957031 11.042969-11.042968v-36.269532c0-6.085937-4.957031-11.039062-11.042969-11.039062zm5.042969 47.308594c0 2.777343-2.261719 5.042968-5.042969 5.042968h-36.269531c-2.777344 0-5.039063-2.265625-5.039063-5.042968v-36.269532c0-2.78125 2.261719-5.039062 5.039063-5.039062h36.269531c2.78125 0 5.042969 2.257812 5.042969 5.039062zm0 0" fill="#3a312a"/><path d="m69.304688 274.964844c-4.871094 0-8.824219 3.949218-8.824219 8.824218s3.953125 8.824219 8.824219 8.824219c4.875 0 8.824218-3.949219 8.824218-8.824219s-3.945312-8.824218-8.824218-8.824218zm0 0" fill="#d7e057"/><path d="m69.308594 271.964844c-6.519532 0-11.828125 5.304687-11.828125 11.824218 0 6.519532 5.304687 11.824219 11.828125 11.824219 6.519531 0 11.824218-5.304687 11.824218-11.824219 0-6.519531-5.304687-11.824218-11.824218-11.824218zm0 17.648437c-3.210938 0-5.828125-2.609375-5.828125-5.824219 0-3.210937 2.617187-5.824218 5.828125-5.824218 3.210937 0 5.824218 2.613281 5.824218 5.824218 0 3.214844-2.613281 5.824219-5.824218 5.824219zm0 0" fill="#3a312a"/><path d="m164.761719 274.964844c-4.875 0-8.824219 3.949218-8.824219 8.824218s3.949219 8.824219 8.824219 8.824219 8.824219-3.949219 8.824219-8.824219-3.953126-8.824218-8.824219-8.824218zm0 0" fill="#d7e057"/><path d="m164.761719 271.964844c-6.523438 0-11.824219 5.304687-11.824219 11.824218 0 6.519532 5.300781 11.824219 11.824219 11.824219 6.519531 0 11.824219-5.304687 11.824219-11.824219 0-6.519531-5.304688-11.824218-11.824219-11.824218zm0 17.648437c-3.214844 0-5.824219-2.609375-5.824219-5.824219 0-3.210937 2.609375-5.824218 5.824219-5.824218 3.210937 0 5.824219 2.613281 5.824219 5.824218 0 3.214844-2.613282 5.824219-5.824219 5.824219zm0 0" fill="#3a312a"/><path d="m139.285156 152.40625h-44.503906c-8.734375 0-15.816406 7.082031-15.816406 15.816406h76.140625c0-8.734375-7.082031-15.816406-15.820313-15.816406zm0 0" fill="#8ac6dd"/><path d="m139.285156 149.40625h-44.503906c-10.375 0-18.816406 8.441406-18.816406 18.816406 0 1.660156 1.339844 3 3 3h76.140625c1.65625 0 3-1.339844 3-3 0-10.375-8.445313-18.816406-18.820313-18.816406zm-56.96875 15.816406c1.355469-5.625 6.429688-9.816406 12.464844-9.816406h44.503906c6.035156 0 11.109375 4.191406 12.460938 9.816406zm0 0" fill="#3a312a"/><path d="m166.226562 181.632812h-98.597656c-4.125 0-7.476562 3.34375-7.476562 7.476563 0 4.128906 3.347656 7.476563 7.476562 7.476563h98.597656c4.128907 0 7.476563-3.347657 7.476563-7.476563 0-4.132813-3.347656-7.476563-7.476563-7.476563zm0 0" fill="#d7e057"/><path d="m166.226562 178.632812h-98.597656c-5.777344 0-10.476562 4.699219-10.476562 10.472657 0 5.777343 4.703125 10.476562 10.476562 10.476562h98.59375c5.777344 0 10.476563-4.699219 10.476563-10.476562.003906-5.773438-4.695313-10.472657-10.472657-10.472657zm0 14.949219h-98.597656c-2.46875 0-4.476562-2.007812-4.476562-4.476562s2.007812-4.472657 4.476562-4.472657h98.59375c2.46875 0 4.476563 2.003907 4.476563 4.472657s-2.003907 4.476562-4.472657 4.476562zm0 0" fill="#3a312a"/><path d="m22.335938 334.214844 16.5 16.5h172.472656c4.289062 0 6.4375 5.183594 3.40625 8.21875l-83.820313 83.820312 1.328125 1.328125c1.128906 1.125 2.433594 2.085938 3.90625 2.699219 6.332032 2.636719 13 1.246094 17.40625-3.1875l109.398438-109.382812h-240.597656zm0 0" fill="#68a8bc"/><path d="m447.535156 199.214844v-57.863282c0-8.5-6.921875-15.417968-15.421875-15.417968h-17.339843c8.5 0 15.421874 6.917968 15.421874 15.417968v57.859376c-14.101562 1.441406-25.160156 13.382812-25.160156 27.859374 0 14.441407 10.980469 26.363282 25.160156 27.84375v57.878907c0 8.5-6.921874 15.417969-15.421874 15.417969h17.339843c8.5 0 15.421875-6.917969 15.421875-15.417969v-57.878907c-14.179687-1.480468-25.160156-13.402343-25.160156-27.84375 0-14.476562 11.039062-26.417968 25.160156-27.855468zm0 0" fill="#ccae8b"/></svg>