<svg id="Layer_1" enable-background="new 0 0 64 64" viewBox="0 0 64 64" xmlns="http://www.w3.org/2000/svg"><g id="Train"><g><g fill="none"><path d="m37.5 50.5h-4.8-6.2" stroke="#263238" stroke-linecap="round" stroke-linejoin="round" stroke-miterlimit="10"/><g stroke="#263238" stroke-linecap="round" stroke-linejoin="round" stroke-miterlimit="10"><path d="m43 50.5 16 13"/><path d="m5 63.5 16-13"/><path d="m19 55h26"/><path d="m12 60.5h40"/></g><g stroke="#263238" stroke-linecap="round" stroke-linejoin="round" stroke-miterlimit="10"><path d="m14 48h-8"/><path d="m1.5 50h-1"/><path d="m10 50h-6.5"/></g><g stroke="#263238" stroke-linecap="round" stroke-linejoin="round" stroke-miterlimit="10"><path d="m50 48h8"/><path d="m62.5 50h1"/><path d="m54 50h6.5"/></g><path d="m52 12.5 2-6h-3l6-6-2 6h3z" stroke="#263238" stroke-linecap="round" stroke-linejoin="round" stroke-miterlimit="10"/></g><g><g><path d="m6.5 32.4c0-1.1-.9-2-2-2s-2 .9-2 2c-1.1 0-2 .9-2 2s.9 2 2 2h4c1.1 0 2-.9 2-2s-.9-2-2-2z" fill="#4fc3f7"/></g></g><g><g><path d="m60 15c0-1.1-.9-2-2-2s-2 .9-2 2c-1.1 0-2 .9-2 2s.9 2 2 2h4c1.1 0 2-.9 2-2s-.9-2-2-2z" fill="#4fc3f7"/></g></g><g stroke="#263238" stroke-linecap="round" stroke-linejoin="round" stroke-miterlimit="10"><path d="m44 46.5h-24c-3.3 0-6-2.7-6-6v-24c0-3.3 2.7-6 6-6h24c3.3 0 6 2.7 6 6v24c0 3.3-2.7 6-6 6z" fill="#ff5252"/><path d="m44 30h-24c-1.1 0-2-.9-2-2v-12c0-1.1.9-2 2-2h24c1.1 0 2 .9 2 2v12c0 1.1-.9 2-2 2z" fill="#fff"/><path d="m34.9 42.5h-5.7c-1 0-1.8-.7-2-1.6l-.7-3.4h11l-.7 3.4c-.2.9-1 1.6-1.9 1.6z" fill="none"/><path d="m14 37.5h36" fill="none"/><circle cx="20" cy="37.4" fill="#ffd740" r="3"/><circle cx="44" cy="37.4" fill="#ffd740" r="3"/><g fill="none"><path d="m40.9 2.5h-16"/><path d="m40.9.5h-16"/><path d="m32.9 4.5v3"/><path d="m32.9 7.5c-1.7 0-3 1.3-3 3h6c0-1.7-1.4-3-3-3z"/><path d="m43 17v10"/><path d="m24.5 50.5v-2h15v2h3.5l2-4h-26l2 4z"/></g></g></g></g></svg>