<?xml version="1.0" encoding="iso-8859-1"?>
<!-- Generator: Adobe Illustrator 19.0.0, SVG Export Plug-In . SVG Version: 6.00 Build 0)  -->
<svg version="1.1" id="Capa_1" xmlns="http://www.w3.org/2000/svg" xmlns:xlink="http://www.w3.org/1999/xlink" x="0px" y="0px"
	 viewBox="0 0 512 512" style="enable-background:new 0 0 512 512;" xml:space="preserve">
<g>
	<circle style="fill:#5F75A1;" cx="77.79" cy="338.02" r="36.14"/>
	<circle style="fill:#5F75A1;" cx="180.79" cy="338.02" r="36.14"/>
	<circle style="fill:#5F75A1;" cx="283.79" cy="338.02" r="36.14"/>
	<circle style="fill:#5F75A1;" cx="386.79" cy="338.02" r="36.14"/>
</g>
<path style="fill:#E8E9EA;" d="M424.125,338.016H18.33C8.207,338.016,0,329.81,0,319.686V108.692c0-10.124,8.207-18.33,18.33-18.33
	h211.31c89.902,0,176.792,32.397,244.75,91.253l0,0c23.886,20.688,37.61,50.729,37.61,82.329v12.433
	c0,17.907-9.323,34.522-24.607,43.853l0,0C468.34,331.862,446.449,338.016,424.125,338.016z"/>
<g>
	<path style="fill:#95D4E9;" d="M352.568,275.63l-12.39-11.693c-5.573-5.258-12.861-8.154-20.522-8.154H0v15h319.656
		c3.818,0,7.45,1.443,10.227,4.063l12.39,11.692c1.449,1.368,3.299,2.046,5.146,2.046c1.992,0,3.98-0.789,5.455-2.353
		C355.719,283.219,355.581,278.473,352.568,275.63z"/>
	<path style="fill:#95D4E9;" d="M0,301.582v18.104c0,10.124,8.207,18.331,18.33,18.331h405.795c22.323,0,44.214-6.154,63.268-17.786
		c7.621-4.652,13.758-11.117,17.997-18.648L0,301.582L0,301.582z"/>
</g>
<g>
	<path style="fill:#6CB6DE;" d="M474.39,181.616L474.39,181.616c-19.973-17.299-41.591-32.291-64.431-44.868h-58.066
		c-8.082,0-12.008,9.879-6.13,15.426l18.646,17.597c23.209,21.904,53.914,34.105,85.827,34.105h43.698
		C488.515,195.682,481.966,188.177,474.39,181.616z"/>
	<path style="fill:#6CB6DE;" d="M0,203.876h317.501c9.985,0,14.835-12.205,7.573-19.059l-43.905-41.436
		c-4.514-4.261-10.487-6.634-16.695-6.634H0V203.876z"/>
</g>
<rect x="129.29" y="136.75" style="opacity:0.1;enable-background:new    ;" width="103" height="201.27"/>
<path style="fill:#4A5359;" d="M493.67,421.638H18.33c-10.124,0-18.33-8.207-18.33-18.33V392.49c0-10.124,8.207-18.33,18.33-18.33
	h475.34c10.124,0,18.33,8.207,18.33,18.33v10.817C512,413.431,503.793,421.638,493.67,421.638z"/>
<path style="opacity:0.1;enable-background:new    ;" d="M124.66,374.16H18.33C8.207,374.16,0,382.367,0,392.49v10.817
	c0,10.124,8.207,18.331,18.33,18.331h107.906C112.451,412.222,113.615,381.984,124.66,374.16z"/>
<path style="fill:#4A5359;" d="M207.584,241.819h-18.972c-4.142,0-7.5-3.357-7.5-7.5s3.358-7.5,7.5-7.5h18.972
	c4.142,0,7.5,3.357,7.5,7.5S211.727,241.819,207.584,241.819z"/>
<path style="fill:#FFCE71;" d="M467.925,279.271H459.4c-7.871,0-14.975-4.72-18.024-11.976l-9.792-23.298
	c-1.932-4.597,1.444-9.678,6.43-9.678h4.301c13.532,0,25.745,8.115,30.989,20.59l4.188,9.964
	C480.366,271.712,475.344,279.271,467.925,279.271z"/>
<path style="opacity:0.05;enable-background:new    ;" d="M61.548,90.362H18.33C8.207,90.362,0,98.569,0,108.692v210.993
	c0,10.124,8.207,18.331,18.33,18.331h84.024C52.509,296.582,61.548,135.103,61.548,90.362z"/>
<g>
</g>
<g>
</g>
<g>
</g>
<g>
</g>
<g>
</g>
<g>
</g>
<g>
</g>
<g>
</g>
<g>
</g>
<g>
</g>
<g>
</g>
<g>
</g>
<g>
</g>
<g>
</g>
<g>
</g>
</svg>
